G04 #@! TF.FileFunction,Copper,L2,Bot,Signal*
%FSLAX46Y46*%
G04 Gerber Fmt 4.6, Leading zero omitted, Abs format (unit mm)*
G04 Created by KiCad (PCBNEW 4.0.1-stable) date Torsdag 21 Januari 2016 22:06:45*
%MOMM*%
G01*
G04 APERTURE LIST*
%ADD10C,0.100000*%
%ADD11O,1.600000X1.600000*%
%ADD12O,1.250000X0.950000*%
%ADD13O,1.000000X1.550000*%
%ADD14O,3.014980X1.506220*%
%ADD15C,1.700000*%
%ADD16C,0.600000*%
%ADD17C,0.762000*%
%ADD18C,0.250000*%
%ADD19C,0.254000*%
G04 APERTURE END LIST*
D10*
D11*
X69394000Y-44894000D03*
X69394000Y-47434000D03*
X69394000Y-49974000D03*
X69394000Y-52514000D03*
X77014000Y-52514000D03*
X77014000Y-49974000D03*
X77014000Y-47434000D03*
X77014000Y-44894000D03*
D12*
X70116900Y-19786540D03*
X65116900Y-19786540D03*
D13*
X71116900Y-17086540D03*
X64116900Y-17086540D03*
D14*
X77600000Y-15530000D03*
X77600000Y-18070000D03*
X63806000Y-32448000D03*
X63806000Y-34988000D03*
D15*
X73000000Y-38200000D03*
X73000000Y-35000000D03*
X73000000Y-31800000D03*
X73000000Y-74200000D03*
X73000000Y-71000000D03*
X73000000Y-67800000D03*
D14*
X63500000Y-67960000D03*
X63500000Y-70500000D03*
X63500000Y-73040000D03*
D16*
X67400000Y-61700000D03*
X65400000Y-22200000D03*
X76994000Y-26100000D03*
X62790000Y-86296000D03*
X68632000Y-24320000D03*
X66854000Y-28892000D03*
D17*
X67400000Y-61700000D02*
X69394000Y-59706000D01*
X69394000Y-59706000D02*
X69394000Y-52514000D01*
D18*
X65400000Y-22200000D02*
X73700000Y-22200000D01*
X77600000Y-15530000D02*
X75170000Y-15530000D01*
X73700000Y-17000000D02*
X75170000Y-15530000D01*
X73700000Y-24700000D02*
X73700000Y-22200000D01*
X73700000Y-22200000D02*
X73700000Y-17000000D01*
X75100000Y-26100000D02*
X73700000Y-24700000D01*
X75100000Y-26100000D02*
X76994000Y-26100000D01*
X63500000Y-73040000D02*
X63500000Y-85586000D01*
X63500000Y-85586000D02*
X62790000Y-86296000D01*
X73000000Y-67800000D02*
X72142000Y-67800000D01*
X66902000Y-73040000D02*
X63500000Y-73040000D01*
X72142000Y-67800000D02*
X66902000Y-73040000D01*
X71116900Y-17086540D02*
X71116900Y-18786540D01*
X71116900Y-18786540D02*
X70116900Y-19786540D01*
X70116900Y-19786540D02*
X65116900Y-19786540D01*
X65116900Y-19786540D02*
X64116900Y-18786540D01*
X64116900Y-18786540D02*
X64116900Y-17086540D01*
X66854000Y-28892000D02*
X68124000Y-27622000D01*
X68124000Y-27622000D02*
X68124000Y-24828000D01*
X68124000Y-24828000D02*
X68632000Y-24320000D01*
D19*
G36*
X75514573Y-15116125D02*
X75500217Y-15188326D01*
X75622838Y-15403000D01*
X77473000Y-15403000D01*
X77473000Y-15383000D01*
X77727000Y-15383000D01*
X77727000Y-15403000D01*
X79577162Y-15403000D01*
X79699783Y-15188326D01*
X79685427Y-15116125D01*
X79464712Y-14710000D01*
X80290000Y-14710000D01*
X80290000Y-59434518D01*
X67585746Y-62550656D01*
X67583277Y-62551288D01*
X60710000Y-64384162D01*
X60710000Y-52863039D01*
X68002096Y-52863039D01*
X68162959Y-53251423D01*
X68538866Y-53666389D01*
X69044959Y-53905914D01*
X69267000Y-53784629D01*
X69267000Y-52641000D01*
X69521000Y-52641000D01*
X69521000Y-53784629D01*
X69743041Y-53905914D01*
X70249134Y-53666389D01*
X70625041Y-53251423D01*
X70785904Y-52863039D01*
X70663915Y-52641000D01*
X69521000Y-52641000D01*
X69267000Y-52641000D01*
X68124085Y-52641000D01*
X68002096Y-52863039D01*
X60710000Y-52863039D01*
X60710000Y-44894000D01*
X67930887Y-44894000D01*
X68040120Y-45443151D01*
X68351189Y-45908698D01*
X68733275Y-46164000D01*
X68351189Y-46419302D01*
X68040120Y-46884849D01*
X67930887Y-47434000D01*
X68040120Y-47983151D01*
X68351189Y-48448698D01*
X68733275Y-48704000D01*
X68351189Y-48959302D01*
X68040120Y-49424849D01*
X67930887Y-49974000D01*
X68040120Y-50523151D01*
X68351189Y-50988698D01*
X68755703Y-51258986D01*
X68538866Y-51361611D01*
X68162959Y-51776577D01*
X68002096Y-52164961D01*
X68124085Y-52387000D01*
X69267000Y-52387000D01*
X69267000Y-52367000D01*
X69521000Y-52367000D01*
X69521000Y-52387000D01*
X70663915Y-52387000D01*
X70785904Y-52164961D01*
X70625041Y-51776577D01*
X70249134Y-51361611D01*
X70032297Y-51258986D01*
X70436811Y-50988698D01*
X70747880Y-50523151D01*
X70857113Y-49974000D01*
X70747880Y-49424849D01*
X70436811Y-48959302D01*
X70054725Y-48704000D01*
X70436811Y-48448698D01*
X70747880Y-47983151D01*
X70857113Y-47434000D01*
X70747880Y-46884849D01*
X70436811Y-46419302D01*
X70054725Y-46164000D01*
X70436811Y-45908698D01*
X70747880Y-45443151D01*
X70857113Y-44894000D01*
X75550887Y-44894000D01*
X75660120Y-45443151D01*
X75971189Y-45908698D01*
X76353275Y-46164000D01*
X75971189Y-46419302D01*
X75660120Y-46884849D01*
X75550887Y-47434000D01*
X75660120Y-47983151D01*
X75971189Y-48448698D01*
X76353275Y-48704000D01*
X75971189Y-48959302D01*
X75660120Y-49424849D01*
X75550887Y-49974000D01*
X75660120Y-50523151D01*
X75971189Y-50988698D01*
X76353275Y-51244000D01*
X75971189Y-51499302D01*
X75660120Y-51964849D01*
X75550887Y-52514000D01*
X75660120Y-53063151D01*
X75971189Y-53528698D01*
X76436736Y-53839767D01*
X76985887Y-53949000D01*
X77042113Y-53949000D01*
X77591264Y-53839767D01*
X78056811Y-53528698D01*
X78367880Y-53063151D01*
X78477113Y-52514000D01*
X78367880Y-51964849D01*
X78056811Y-51499302D01*
X77674725Y-51244000D01*
X78056811Y-50988698D01*
X78367880Y-50523151D01*
X78477113Y-49974000D01*
X78367880Y-49424849D01*
X78056811Y-48959302D01*
X77674725Y-48704000D01*
X78056811Y-48448698D01*
X78367880Y-47983151D01*
X78477113Y-47434000D01*
X78367880Y-46884849D01*
X78056811Y-46419302D01*
X77674725Y-46164000D01*
X78056811Y-45908698D01*
X78367880Y-45443151D01*
X78477113Y-44894000D01*
X78367880Y-44344849D01*
X78056811Y-43879302D01*
X77591264Y-43568233D01*
X77042113Y-43459000D01*
X76985887Y-43459000D01*
X76436736Y-43568233D01*
X75971189Y-43879302D01*
X75660120Y-44344849D01*
X75550887Y-44894000D01*
X70857113Y-44894000D01*
X70747880Y-44344849D01*
X70436811Y-43879302D01*
X69971264Y-43568233D01*
X69422113Y-43459000D01*
X69365887Y-43459000D01*
X68816736Y-43568233D01*
X68351189Y-43879302D01*
X68040120Y-44344849D01*
X67930887Y-44894000D01*
X60710000Y-44894000D01*
X60710000Y-38494089D01*
X71514743Y-38494089D01*
X71740344Y-39040086D01*
X72157717Y-39458188D01*
X72703319Y-39684742D01*
X73294089Y-39685257D01*
X73840086Y-39459656D01*
X74258188Y-39042283D01*
X74484742Y-38496681D01*
X74485257Y-37905911D01*
X74259656Y-37359914D01*
X73842283Y-36941812D01*
X73296681Y-36715258D01*
X72705911Y-36714743D01*
X72159914Y-36940344D01*
X71741812Y-37357717D01*
X71515258Y-37903319D01*
X71514743Y-38494089D01*
X60710000Y-38494089D01*
X60710000Y-35329674D01*
X61706217Y-35329674D01*
X61720573Y-35401875D01*
X61980276Y-35879740D01*
X62403081Y-36221846D01*
X62924620Y-36376110D01*
X63679000Y-36376110D01*
X63679000Y-35115000D01*
X63933000Y-35115000D01*
X63933000Y-36376110D01*
X64687380Y-36376110D01*
X65208919Y-36221846D01*
X65631724Y-35879740D01*
X65891427Y-35401875D01*
X65905783Y-35329674D01*
X65885457Y-35294089D01*
X71514743Y-35294089D01*
X71740344Y-35840086D01*
X72157717Y-36258188D01*
X72703319Y-36484742D01*
X73294089Y-36485257D01*
X73840086Y-36259656D01*
X74258188Y-35842283D01*
X74484742Y-35296681D01*
X74485257Y-34705911D01*
X74259656Y-34159914D01*
X73842283Y-33741812D01*
X73296681Y-33515258D01*
X72705911Y-33514743D01*
X72159914Y-33740344D01*
X71741812Y-34157717D01*
X71515258Y-34703319D01*
X71514743Y-35294089D01*
X65885457Y-35294089D01*
X65783162Y-35115000D01*
X63933000Y-35115000D01*
X63679000Y-35115000D01*
X61828838Y-35115000D01*
X61706217Y-35329674D01*
X60710000Y-35329674D01*
X60710000Y-32448000D01*
X61621536Y-32448000D01*
X61727200Y-32979207D01*
X62028104Y-33429542D01*
X62478439Y-33730446D01*
X62481306Y-33731016D01*
X62403081Y-33754154D01*
X61980276Y-34096260D01*
X61720573Y-34574125D01*
X61706217Y-34646326D01*
X61828838Y-34861000D01*
X63679000Y-34861000D01*
X63679000Y-34841000D01*
X63933000Y-34841000D01*
X63933000Y-34861000D01*
X65783162Y-34861000D01*
X65905783Y-34646326D01*
X65891427Y-34574125D01*
X65631724Y-34096260D01*
X65208919Y-33754154D01*
X65130694Y-33731016D01*
X65133561Y-33730446D01*
X65583896Y-33429542D01*
X65884800Y-32979207D01*
X65990464Y-32448000D01*
X65920067Y-32094089D01*
X71514743Y-32094089D01*
X71740344Y-32640086D01*
X72157717Y-33058188D01*
X72703319Y-33284742D01*
X73294089Y-33285257D01*
X73840086Y-33059656D01*
X74258188Y-32642283D01*
X74484742Y-32096681D01*
X74485257Y-31505911D01*
X74259656Y-30959914D01*
X73842283Y-30541812D01*
X73296681Y-30315258D01*
X72705911Y-30314743D01*
X72159914Y-30540344D01*
X71741812Y-30957717D01*
X71515258Y-31503319D01*
X71514743Y-32094089D01*
X65920067Y-32094089D01*
X65884800Y-31916793D01*
X65583896Y-31466458D01*
X65133561Y-31165554D01*
X64602354Y-31059890D01*
X63009646Y-31059890D01*
X62478439Y-31165554D01*
X62028104Y-31466458D01*
X61727200Y-31916793D01*
X61621536Y-32448000D01*
X60710000Y-32448000D01*
X60710000Y-29077167D01*
X65918838Y-29077167D01*
X66060883Y-29420943D01*
X66323673Y-29684192D01*
X66667201Y-29826838D01*
X67039167Y-29827162D01*
X67382943Y-29685117D01*
X67646192Y-29422327D01*
X67788838Y-29078799D01*
X67788879Y-29031923D01*
X68661401Y-28159401D01*
X68826148Y-27912840D01*
X68884000Y-27622000D01*
X68884000Y-25227547D01*
X69160943Y-25113117D01*
X69424192Y-24850327D01*
X69566838Y-24506799D01*
X69567162Y-24134833D01*
X69425117Y-23791057D01*
X69162327Y-23527808D01*
X68818799Y-23385162D01*
X68446833Y-23384838D01*
X68103057Y-23526883D01*
X67839808Y-23789673D01*
X67697162Y-24133201D01*
X67697121Y-24180077D01*
X67586599Y-24290599D01*
X67421852Y-24537161D01*
X67364000Y-24828000D01*
X67364000Y-27307198D01*
X66714320Y-27956878D01*
X66668833Y-27956838D01*
X66325057Y-28098883D01*
X66061808Y-28361673D01*
X65919162Y-28705201D01*
X65918838Y-29077167D01*
X60710000Y-29077167D01*
X60710000Y-16783916D01*
X62981900Y-16783916D01*
X62981900Y-17389164D01*
X63068297Y-17823510D01*
X63314334Y-18191730D01*
X63356900Y-18220172D01*
X63356900Y-18786540D01*
X63414752Y-19077379D01*
X63579499Y-19323941D01*
X63867037Y-19611479D01*
X63832215Y-19786540D01*
X63916709Y-20211319D01*
X64157326Y-20571429D01*
X64517436Y-20812046D01*
X64942215Y-20896540D01*
X65291585Y-20896540D01*
X65716364Y-20812046D01*
X66076474Y-20571429D01*
X66093104Y-20546540D01*
X69140696Y-20546540D01*
X69157326Y-20571429D01*
X69517436Y-20812046D01*
X69942215Y-20896540D01*
X70291585Y-20896540D01*
X70716364Y-20812046D01*
X71076474Y-20571429D01*
X71317091Y-20211319D01*
X71401585Y-19786540D01*
X71366763Y-19611479D01*
X71654301Y-19323941D01*
X71819048Y-19077379D01*
X71876900Y-18786540D01*
X71876900Y-18220172D01*
X71919466Y-18191730D01*
X72000803Y-18070000D01*
X75415536Y-18070000D01*
X75521200Y-18601207D01*
X75822104Y-19051542D01*
X76272439Y-19352446D01*
X76803646Y-19458110D01*
X78396354Y-19458110D01*
X78927561Y-19352446D01*
X79377896Y-19051542D01*
X79678800Y-18601207D01*
X79784464Y-18070000D01*
X79678800Y-17538793D01*
X79377896Y-17088458D01*
X78927561Y-16787554D01*
X78924694Y-16786984D01*
X79002919Y-16763846D01*
X79425724Y-16421740D01*
X79685427Y-15943875D01*
X79699783Y-15871674D01*
X79577162Y-15657000D01*
X77727000Y-15657000D01*
X77727000Y-15677000D01*
X77473000Y-15677000D01*
X77473000Y-15657000D01*
X75622838Y-15657000D01*
X75500217Y-15871674D01*
X75514573Y-15943875D01*
X75774276Y-16421740D01*
X76197081Y-16763846D01*
X76275306Y-16786984D01*
X76272439Y-16787554D01*
X75822104Y-17088458D01*
X75521200Y-17538793D01*
X75415536Y-18070000D01*
X72000803Y-18070000D01*
X72165503Y-17823510D01*
X72251900Y-17389164D01*
X72251900Y-16783916D01*
X72165503Y-16349570D01*
X71919466Y-15981350D01*
X71551246Y-15735313D01*
X71116900Y-15648916D01*
X70682554Y-15735313D01*
X70314334Y-15981350D01*
X70068297Y-16349570D01*
X69981900Y-16783916D01*
X69981900Y-17389164D01*
X70068297Y-17823510D01*
X70314334Y-18191730D01*
X70356900Y-18220172D01*
X70356900Y-18471738D01*
X70152098Y-18676540D01*
X69942215Y-18676540D01*
X69517436Y-18761034D01*
X69157326Y-19001651D01*
X69140696Y-19026540D01*
X66093104Y-19026540D01*
X66076474Y-19001651D01*
X65716364Y-18761034D01*
X65291585Y-18676540D01*
X65081702Y-18676540D01*
X64876900Y-18471738D01*
X64876900Y-18220172D01*
X64919466Y-18191730D01*
X65165503Y-17823510D01*
X65251900Y-17389164D01*
X65251900Y-16783916D01*
X65165503Y-16349570D01*
X64919466Y-15981350D01*
X64551246Y-15735313D01*
X64116900Y-15648916D01*
X63682554Y-15735313D01*
X63314334Y-15981350D01*
X63068297Y-16349570D01*
X62981900Y-16783916D01*
X60710000Y-16783916D01*
X60710000Y-14710000D01*
X75735288Y-14710000D01*
X75514573Y-15116125D01*
X75514573Y-15116125D01*
G37*
X75514573Y-15116125D02*
X75500217Y-15188326D01*
X75622838Y-15403000D01*
X77473000Y-15403000D01*
X77473000Y-15383000D01*
X77727000Y-15383000D01*
X77727000Y-15403000D01*
X79577162Y-15403000D01*
X79699783Y-15188326D01*
X79685427Y-15116125D01*
X79464712Y-14710000D01*
X80290000Y-14710000D01*
X80290000Y-59434518D01*
X67585746Y-62550656D01*
X67583277Y-62551288D01*
X60710000Y-64384162D01*
X60710000Y-52863039D01*
X68002096Y-52863039D01*
X68162959Y-53251423D01*
X68538866Y-53666389D01*
X69044959Y-53905914D01*
X69267000Y-53784629D01*
X69267000Y-52641000D01*
X69521000Y-52641000D01*
X69521000Y-53784629D01*
X69743041Y-53905914D01*
X70249134Y-53666389D01*
X70625041Y-53251423D01*
X70785904Y-52863039D01*
X70663915Y-52641000D01*
X69521000Y-52641000D01*
X69267000Y-52641000D01*
X68124085Y-52641000D01*
X68002096Y-52863039D01*
X60710000Y-52863039D01*
X60710000Y-44894000D01*
X67930887Y-44894000D01*
X68040120Y-45443151D01*
X68351189Y-45908698D01*
X68733275Y-46164000D01*
X68351189Y-46419302D01*
X68040120Y-46884849D01*
X67930887Y-47434000D01*
X68040120Y-47983151D01*
X68351189Y-48448698D01*
X68733275Y-48704000D01*
X68351189Y-48959302D01*
X68040120Y-49424849D01*
X67930887Y-49974000D01*
X68040120Y-50523151D01*
X68351189Y-50988698D01*
X68755703Y-51258986D01*
X68538866Y-51361611D01*
X68162959Y-51776577D01*
X68002096Y-52164961D01*
X68124085Y-52387000D01*
X69267000Y-52387000D01*
X69267000Y-52367000D01*
X69521000Y-52367000D01*
X69521000Y-52387000D01*
X70663915Y-52387000D01*
X70785904Y-52164961D01*
X70625041Y-51776577D01*
X70249134Y-51361611D01*
X70032297Y-51258986D01*
X70436811Y-50988698D01*
X70747880Y-50523151D01*
X70857113Y-49974000D01*
X70747880Y-49424849D01*
X70436811Y-48959302D01*
X70054725Y-48704000D01*
X70436811Y-48448698D01*
X70747880Y-47983151D01*
X70857113Y-47434000D01*
X70747880Y-46884849D01*
X70436811Y-46419302D01*
X70054725Y-46164000D01*
X70436811Y-45908698D01*
X70747880Y-45443151D01*
X70857113Y-44894000D01*
X75550887Y-44894000D01*
X75660120Y-45443151D01*
X75971189Y-45908698D01*
X76353275Y-46164000D01*
X75971189Y-46419302D01*
X75660120Y-46884849D01*
X75550887Y-47434000D01*
X75660120Y-47983151D01*
X75971189Y-48448698D01*
X76353275Y-48704000D01*
X75971189Y-48959302D01*
X75660120Y-49424849D01*
X75550887Y-49974000D01*
X75660120Y-50523151D01*
X75971189Y-50988698D01*
X76353275Y-51244000D01*
X75971189Y-51499302D01*
X75660120Y-51964849D01*
X75550887Y-52514000D01*
X75660120Y-53063151D01*
X75971189Y-53528698D01*
X76436736Y-53839767D01*
X76985887Y-53949000D01*
X77042113Y-53949000D01*
X77591264Y-53839767D01*
X78056811Y-53528698D01*
X78367880Y-53063151D01*
X78477113Y-52514000D01*
X78367880Y-51964849D01*
X78056811Y-51499302D01*
X77674725Y-51244000D01*
X78056811Y-50988698D01*
X78367880Y-50523151D01*
X78477113Y-49974000D01*
X78367880Y-49424849D01*
X78056811Y-48959302D01*
X77674725Y-48704000D01*
X78056811Y-48448698D01*
X78367880Y-47983151D01*
X78477113Y-47434000D01*
X78367880Y-46884849D01*
X78056811Y-46419302D01*
X77674725Y-46164000D01*
X78056811Y-45908698D01*
X78367880Y-45443151D01*
X78477113Y-44894000D01*
X78367880Y-44344849D01*
X78056811Y-43879302D01*
X77591264Y-43568233D01*
X77042113Y-43459000D01*
X76985887Y-43459000D01*
X76436736Y-43568233D01*
X75971189Y-43879302D01*
X75660120Y-44344849D01*
X75550887Y-44894000D01*
X70857113Y-44894000D01*
X70747880Y-44344849D01*
X70436811Y-43879302D01*
X69971264Y-43568233D01*
X69422113Y-43459000D01*
X69365887Y-43459000D01*
X68816736Y-43568233D01*
X68351189Y-43879302D01*
X68040120Y-44344849D01*
X67930887Y-44894000D01*
X60710000Y-44894000D01*
X60710000Y-38494089D01*
X71514743Y-38494089D01*
X71740344Y-39040086D01*
X72157717Y-39458188D01*
X72703319Y-39684742D01*
X73294089Y-39685257D01*
X73840086Y-39459656D01*
X74258188Y-39042283D01*
X74484742Y-38496681D01*
X74485257Y-37905911D01*
X74259656Y-37359914D01*
X73842283Y-36941812D01*
X73296681Y-36715258D01*
X72705911Y-36714743D01*
X72159914Y-36940344D01*
X71741812Y-37357717D01*
X71515258Y-37903319D01*
X71514743Y-38494089D01*
X60710000Y-38494089D01*
X60710000Y-35329674D01*
X61706217Y-35329674D01*
X61720573Y-35401875D01*
X61980276Y-35879740D01*
X62403081Y-36221846D01*
X62924620Y-36376110D01*
X63679000Y-36376110D01*
X63679000Y-35115000D01*
X63933000Y-35115000D01*
X63933000Y-36376110D01*
X64687380Y-36376110D01*
X65208919Y-36221846D01*
X65631724Y-35879740D01*
X65891427Y-35401875D01*
X65905783Y-35329674D01*
X65885457Y-35294089D01*
X71514743Y-35294089D01*
X71740344Y-35840086D01*
X72157717Y-36258188D01*
X72703319Y-36484742D01*
X73294089Y-36485257D01*
X73840086Y-36259656D01*
X74258188Y-35842283D01*
X74484742Y-35296681D01*
X74485257Y-34705911D01*
X74259656Y-34159914D01*
X73842283Y-33741812D01*
X73296681Y-33515258D01*
X72705911Y-33514743D01*
X72159914Y-33740344D01*
X71741812Y-34157717D01*
X71515258Y-34703319D01*
X71514743Y-35294089D01*
X65885457Y-35294089D01*
X65783162Y-35115000D01*
X63933000Y-35115000D01*
X63679000Y-35115000D01*
X61828838Y-35115000D01*
X61706217Y-35329674D01*
X60710000Y-35329674D01*
X60710000Y-32448000D01*
X61621536Y-32448000D01*
X61727200Y-32979207D01*
X62028104Y-33429542D01*
X62478439Y-33730446D01*
X62481306Y-33731016D01*
X62403081Y-33754154D01*
X61980276Y-34096260D01*
X61720573Y-34574125D01*
X61706217Y-34646326D01*
X61828838Y-34861000D01*
X63679000Y-34861000D01*
X63679000Y-34841000D01*
X63933000Y-34841000D01*
X63933000Y-34861000D01*
X65783162Y-34861000D01*
X65905783Y-34646326D01*
X65891427Y-34574125D01*
X65631724Y-34096260D01*
X65208919Y-33754154D01*
X65130694Y-33731016D01*
X65133561Y-33730446D01*
X65583896Y-33429542D01*
X65884800Y-32979207D01*
X65990464Y-32448000D01*
X65920067Y-32094089D01*
X71514743Y-32094089D01*
X71740344Y-32640086D01*
X72157717Y-33058188D01*
X72703319Y-33284742D01*
X73294089Y-33285257D01*
X73840086Y-33059656D01*
X74258188Y-32642283D01*
X74484742Y-32096681D01*
X74485257Y-31505911D01*
X74259656Y-30959914D01*
X73842283Y-30541812D01*
X73296681Y-30315258D01*
X72705911Y-30314743D01*
X72159914Y-30540344D01*
X71741812Y-30957717D01*
X71515258Y-31503319D01*
X71514743Y-32094089D01*
X65920067Y-32094089D01*
X65884800Y-31916793D01*
X65583896Y-31466458D01*
X65133561Y-31165554D01*
X64602354Y-31059890D01*
X63009646Y-31059890D01*
X62478439Y-31165554D01*
X62028104Y-31466458D01*
X61727200Y-31916793D01*
X61621536Y-32448000D01*
X60710000Y-32448000D01*
X60710000Y-29077167D01*
X65918838Y-29077167D01*
X66060883Y-29420943D01*
X66323673Y-29684192D01*
X66667201Y-29826838D01*
X67039167Y-29827162D01*
X67382943Y-29685117D01*
X67646192Y-29422327D01*
X67788838Y-29078799D01*
X67788879Y-29031923D01*
X68661401Y-28159401D01*
X68826148Y-27912840D01*
X68884000Y-27622000D01*
X68884000Y-25227547D01*
X69160943Y-25113117D01*
X69424192Y-24850327D01*
X69566838Y-24506799D01*
X69567162Y-24134833D01*
X69425117Y-23791057D01*
X69162327Y-23527808D01*
X68818799Y-23385162D01*
X68446833Y-23384838D01*
X68103057Y-23526883D01*
X67839808Y-23789673D01*
X67697162Y-24133201D01*
X67697121Y-24180077D01*
X67586599Y-24290599D01*
X67421852Y-24537161D01*
X67364000Y-24828000D01*
X67364000Y-27307198D01*
X66714320Y-27956878D01*
X66668833Y-27956838D01*
X66325057Y-28098883D01*
X66061808Y-28361673D01*
X65919162Y-28705201D01*
X65918838Y-29077167D01*
X60710000Y-29077167D01*
X60710000Y-16783916D01*
X62981900Y-16783916D01*
X62981900Y-17389164D01*
X63068297Y-17823510D01*
X63314334Y-18191730D01*
X63356900Y-18220172D01*
X63356900Y-18786540D01*
X63414752Y-19077379D01*
X63579499Y-19323941D01*
X63867037Y-19611479D01*
X63832215Y-19786540D01*
X63916709Y-20211319D01*
X64157326Y-20571429D01*
X64517436Y-20812046D01*
X64942215Y-20896540D01*
X65291585Y-20896540D01*
X65716364Y-20812046D01*
X66076474Y-20571429D01*
X66093104Y-20546540D01*
X69140696Y-20546540D01*
X69157326Y-20571429D01*
X69517436Y-20812046D01*
X69942215Y-20896540D01*
X70291585Y-20896540D01*
X70716364Y-20812046D01*
X71076474Y-20571429D01*
X71317091Y-20211319D01*
X71401585Y-19786540D01*
X71366763Y-19611479D01*
X71654301Y-19323941D01*
X71819048Y-19077379D01*
X71876900Y-18786540D01*
X71876900Y-18220172D01*
X71919466Y-18191730D01*
X72000803Y-18070000D01*
X75415536Y-18070000D01*
X75521200Y-18601207D01*
X75822104Y-19051542D01*
X76272439Y-19352446D01*
X76803646Y-19458110D01*
X78396354Y-19458110D01*
X78927561Y-19352446D01*
X79377896Y-19051542D01*
X79678800Y-18601207D01*
X79784464Y-18070000D01*
X79678800Y-17538793D01*
X79377896Y-17088458D01*
X78927561Y-16787554D01*
X78924694Y-16786984D01*
X79002919Y-16763846D01*
X79425724Y-16421740D01*
X79685427Y-15943875D01*
X79699783Y-15871674D01*
X79577162Y-15657000D01*
X77727000Y-15657000D01*
X77727000Y-15677000D01*
X77473000Y-15677000D01*
X77473000Y-15657000D01*
X75622838Y-15657000D01*
X75500217Y-15871674D01*
X75514573Y-15943875D01*
X75774276Y-16421740D01*
X76197081Y-16763846D01*
X76275306Y-16786984D01*
X76272439Y-16787554D01*
X75822104Y-17088458D01*
X75521200Y-17538793D01*
X75415536Y-18070000D01*
X72000803Y-18070000D01*
X72165503Y-17823510D01*
X72251900Y-17389164D01*
X72251900Y-16783916D01*
X72165503Y-16349570D01*
X71919466Y-15981350D01*
X71551246Y-15735313D01*
X71116900Y-15648916D01*
X70682554Y-15735313D01*
X70314334Y-15981350D01*
X70068297Y-16349570D01*
X69981900Y-16783916D01*
X69981900Y-17389164D01*
X70068297Y-17823510D01*
X70314334Y-18191730D01*
X70356900Y-18220172D01*
X70356900Y-18471738D01*
X70152098Y-18676540D01*
X69942215Y-18676540D01*
X69517436Y-18761034D01*
X69157326Y-19001651D01*
X69140696Y-19026540D01*
X66093104Y-19026540D01*
X66076474Y-19001651D01*
X65716364Y-18761034D01*
X65291585Y-18676540D01*
X65081702Y-18676540D01*
X64876900Y-18471738D01*
X64876900Y-18220172D01*
X64919466Y-18191730D01*
X65165503Y-17823510D01*
X65251900Y-17389164D01*
X65251900Y-16783916D01*
X65165503Y-16349570D01*
X64919466Y-15981350D01*
X64551246Y-15735313D01*
X64116900Y-15648916D01*
X63682554Y-15735313D01*
X63314334Y-15981350D01*
X63068297Y-16349570D01*
X62981900Y-16783916D01*
X60710000Y-16783916D01*
X60710000Y-14710000D01*
X75735288Y-14710000D01*
X75514573Y-15116125D01*
G36*
X80290000Y-88290000D02*
X60710000Y-88290000D01*
X60710000Y-74494089D01*
X71514743Y-74494089D01*
X71740344Y-75040086D01*
X72157717Y-75458188D01*
X72703319Y-75684742D01*
X73294089Y-75685257D01*
X73840086Y-75459656D01*
X74258188Y-75042283D01*
X74484742Y-74496681D01*
X74485257Y-73905911D01*
X74259656Y-73359914D01*
X73842283Y-72941812D01*
X73296681Y-72715258D01*
X72705911Y-72714743D01*
X72159914Y-72940344D01*
X71741812Y-73357717D01*
X71515258Y-73903319D01*
X71514743Y-74494089D01*
X60710000Y-74494089D01*
X60710000Y-73381674D01*
X61400217Y-73381674D01*
X61414573Y-73453875D01*
X61674276Y-73931740D01*
X62097081Y-74273846D01*
X62618620Y-74428110D01*
X63373000Y-74428110D01*
X63373000Y-73167000D01*
X63627000Y-73167000D01*
X63627000Y-74428110D01*
X64381380Y-74428110D01*
X64902919Y-74273846D01*
X65325724Y-73931740D01*
X65585427Y-73453875D01*
X65599783Y-73381674D01*
X65477162Y-73167000D01*
X63627000Y-73167000D01*
X63373000Y-73167000D01*
X61522838Y-73167000D01*
X61400217Y-73381674D01*
X60710000Y-73381674D01*
X60710000Y-67960000D01*
X61315536Y-67960000D01*
X61421200Y-68491207D01*
X61722104Y-68941542D01*
X62153812Y-69230000D01*
X61722104Y-69518458D01*
X61421200Y-69968793D01*
X61315536Y-70500000D01*
X61421200Y-71031207D01*
X61722104Y-71481542D01*
X62172439Y-71782446D01*
X62175306Y-71783016D01*
X62097081Y-71806154D01*
X61674276Y-72148260D01*
X61414573Y-72626125D01*
X61400217Y-72698326D01*
X61522838Y-72913000D01*
X63373000Y-72913000D01*
X63373000Y-72893000D01*
X63627000Y-72893000D01*
X63627000Y-72913000D01*
X65477162Y-72913000D01*
X65599783Y-72698326D01*
X65585427Y-72626125D01*
X65325724Y-72148260D01*
X64902919Y-71806154D01*
X64824694Y-71783016D01*
X64827561Y-71782446D01*
X65277896Y-71481542D01*
X65403147Y-71294089D01*
X71514743Y-71294089D01*
X71740344Y-71840086D01*
X72157717Y-72258188D01*
X72703319Y-72484742D01*
X73294089Y-72485257D01*
X73840086Y-72259656D01*
X74258188Y-71842283D01*
X74484742Y-71296681D01*
X74485257Y-70705911D01*
X74259656Y-70159914D01*
X73842283Y-69741812D01*
X73296681Y-69515258D01*
X72705911Y-69514743D01*
X72159914Y-69740344D01*
X71741812Y-70157717D01*
X71515258Y-70703319D01*
X71514743Y-71294089D01*
X65403147Y-71294089D01*
X65578800Y-71031207D01*
X65684464Y-70500000D01*
X65578800Y-69968793D01*
X65277896Y-69518458D01*
X64846188Y-69230000D01*
X65277896Y-68941542D01*
X65343099Y-68843958D01*
X72135647Y-68843958D01*
X72215920Y-69095259D01*
X72771279Y-69296718D01*
X73361458Y-69270315D01*
X73784080Y-69095259D01*
X73864353Y-68843958D01*
X73000000Y-67979605D01*
X72135647Y-68843958D01*
X65343099Y-68843958D01*
X65578800Y-68491207D01*
X65684464Y-67960000D01*
X65607143Y-67571279D01*
X71503282Y-67571279D01*
X71529685Y-68161458D01*
X71704741Y-68584080D01*
X71956042Y-68664353D01*
X72820395Y-67800000D01*
X73179605Y-67800000D01*
X74043958Y-68664353D01*
X74295259Y-68584080D01*
X74496718Y-68028721D01*
X74470315Y-67438542D01*
X74295259Y-67015920D01*
X74043958Y-66935647D01*
X73179605Y-67800000D01*
X72820395Y-67800000D01*
X71956042Y-66935647D01*
X71704741Y-67015920D01*
X71503282Y-67571279D01*
X65607143Y-67571279D01*
X65578800Y-67428793D01*
X65277896Y-66978458D01*
X64945027Y-66756042D01*
X72135647Y-66756042D01*
X73000000Y-67620395D01*
X73864353Y-66756042D01*
X73784080Y-66504741D01*
X73228721Y-66303282D01*
X72638542Y-66329685D01*
X72215920Y-66504741D01*
X72135647Y-66756042D01*
X64945027Y-66756042D01*
X64827561Y-66677554D01*
X64296354Y-66571890D01*
X62703646Y-66571890D01*
X62172439Y-66677554D01*
X61722104Y-66978458D01*
X61421200Y-67428793D01*
X61315536Y-67960000D01*
X60710000Y-67960000D01*
X60710000Y-66180351D01*
X80290000Y-61226375D01*
X80290000Y-88290000D01*
X80290000Y-88290000D01*
G37*
X80290000Y-88290000D02*
X60710000Y-88290000D01*
X60710000Y-74494089D01*
X71514743Y-74494089D01*
X71740344Y-75040086D01*
X72157717Y-75458188D01*
X72703319Y-75684742D01*
X73294089Y-75685257D01*
X73840086Y-75459656D01*
X74258188Y-75042283D01*
X74484742Y-74496681D01*
X74485257Y-73905911D01*
X74259656Y-73359914D01*
X73842283Y-72941812D01*
X73296681Y-72715258D01*
X72705911Y-72714743D01*
X72159914Y-72940344D01*
X71741812Y-73357717D01*
X71515258Y-73903319D01*
X71514743Y-74494089D01*
X60710000Y-74494089D01*
X60710000Y-73381674D01*
X61400217Y-73381674D01*
X61414573Y-73453875D01*
X61674276Y-73931740D01*
X62097081Y-74273846D01*
X62618620Y-74428110D01*
X63373000Y-74428110D01*
X63373000Y-73167000D01*
X63627000Y-73167000D01*
X63627000Y-74428110D01*
X64381380Y-74428110D01*
X64902919Y-74273846D01*
X65325724Y-73931740D01*
X65585427Y-73453875D01*
X65599783Y-73381674D01*
X65477162Y-73167000D01*
X63627000Y-73167000D01*
X63373000Y-73167000D01*
X61522838Y-73167000D01*
X61400217Y-73381674D01*
X60710000Y-73381674D01*
X60710000Y-67960000D01*
X61315536Y-67960000D01*
X61421200Y-68491207D01*
X61722104Y-68941542D01*
X62153812Y-69230000D01*
X61722104Y-69518458D01*
X61421200Y-69968793D01*
X61315536Y-70500000D01*
X61421200Y-71031207D01*
X61722104Y-71481542D01*
X62172439Y-71782446D01*
X62175306Y-71783016D01*
X62097081Y-71806154D01*
X61674276Y-72148260D01*
X61414573Y-72626125D01*
X61400217Y-72698326D01*
X61522838Y-72913000D01*
X63373000Y-72913000D01*
X63373000Y-72893000D01*
X63627000Y-72893000D01*
X63627000Y-72913000D01*
X65477162Y-72913000D01*
X65599783Y-72698326D01*
X65585427Y-72626125D01*
X65325724Y-72148260D01*
X64902919Y-71806154D01*
X64824694Y-71783016D01*
X64827561Y-71782446D01*
X65277896Y-71481542D01*
X65403147Y-71294089D01*
X71514743Y-71294089D01*
X71740344Y-71840086D01*
X72157717Y-72258188D01*
X72703319Y-72484742D01*
X73294089Y-72485257D01*
X73840086Y-72259656D01*
X74258188Y-71842283D01*
X74484742Y-71296681D01*
X74485257Y-70705911D01*
X74259656Y-70159914D01*
X73842283Y-69741812D01*
X73296681Y-69515258D01*
X72705911Y-69514743D01*
X72159914Y-69740344D01*
X71741812Y-70157717D01*
X71515258Y-70703319D01*
X71514743Y-71294089D01*
X65403147Y-71294089D01*
X65578800Y-71031207D01*
X65684464Y-70500000D01*
X65578800Y-69968793D01*
X65277896Y-69518458D01*
X64846188Y-69230000D01*
X65277896Y-68941542D01*
X65343099Y-68843958D01*
X72135647Y-68843958D01*
X72215920Y-69095259D01*
X72771279Y-69296718D01*
X73361458Y-69270315D01*
X73784080Y-69095259D01*
X73864353Y-68843958D01*
X73000000Y-67979605D01*
X72135647Y-68843958D01*
X65343099Y-68843958D01*
X65578800Y-68491207D01*
X65684464Y-67960000D01*
X65607143Y-67571279D01*
X71503282Y-67571279D01*
X71529685Y-68161458D01*
X71704741Y-68584080D01*
X71956042Y-68664353D01*
X72820395Y-67800000D01*
X73179605Y-67800000D01*
X74043958Y-68664353D01*
X74295259Y-68584080D01*
X74496718Y-68028721D01*
X74470315Y-67438542D01*
X74295259Y-67015920D01*
X74043958Y-66935647D01*
X73179605Y-67800000D01*
X72820395Y-67800000D01*
X71956042Y-66935647D01*
X71704741Y-67015920D01*
X71503282Y-67571279D01*
X65607143Y-67571279D01*
X65578800Y-67428793D01*
X65277896Y-66978458D01*
X64945027Y-66756042D01*
X72135647Y-66756042D01*
X73000000Y-67620395D01*
X73864353Y-66756042D01*
X73784080Y-66504741D01*
X73228721Y-66303282D01*
X72638542Y-66329685D01*
X72215920Y-66504741D01*
X72135647Y-66756042D01*
X64945027Y-66756042D01*
X64827561Y-66677554D01*
X64296354Y-66571890D01*
X62703646Y-66571890D01*
X62172439Y-66677554D01*
X61722104Y-66978458D01*
X61421200Y-67428793D01*
X61315536Y-67960000D01*
X60710000Y-67960000D01*
X60710000Y-66180351D01*
X80290000Y-61226375D01*
X80290000Y-88290000D01*
M02*
