G04 #@! TF.FileFunction,Legend,Top*
%FSLAX46Y46*%
G04 Gerber Fmt 4.6, Leading zero omitted, Abs format (unit mm)*
G04 Created by KiCad (PCBNEW 4.0.1-stable) date Onsdag 20 Januari 2016 21:11:00*
%MOMM*%
G01*
G04 APERTURE LIST*
%ADD10C,0.100000*%
%ADD11C,0.150000*%
G04 APERTURE END LIST*
D10*
X67809524Y-72500000D02*
X67714286Y-72452381D01*
X67571429Y-72452381D01*
X67428571Y-72500000D01*
X67333333Y-72595238D01*
X67285714Y-72690476D01*
X67238095Y-72880952D01*
X67238095Y-73023810D01*
X67285714Y-73214286D01*
X67333333Y-73309524D01*
X67428571Y-73404762D01*
X67571429Y-73452381D01*
X67666667Y-73452381D01*
X67809524Y-73404762D01*
X67857143Y-73357143D01*
X67857143Y-73023810D01*
X67666667Y-73023810D01*
X68285714Y-73452381D02*
X68285714Y-72452381D01*
X68857143Y-73452381D01*
X68857143Y-72452381D01*
X69333333Y-73452381D02*
X69333333Y-72452381D01*
X69571428Y-72452381D01*
X69714286Y-72500000D01*
X69809524Y-72595238D01*
X69857143Y-72690476D01*
X69904762Y-72880952D01*
X69904762Y-73023810D01*
X69857143Y-73214286D01*
X69809524Y-73309524D01*
X69714286Y-73404762D01*
X69571428Y-73452381D01*
X69333333Y-73452381D01*
X70285714Y-73166667D02*
X70761905Y-73166667D01*
X70190476Y-73452381D02*
X70523809Y-72452381D01*
X70857143Y-73452381D01*
X67044667Y-70000381D02*
X67378000Y-71000381D01*
X67711334Y-70000381D01*
X68616096Y-70905143D02*
X68568477Y-70952762D01*
X68425620Y-71000381D01*
X68330382Y-71000381D01*
X68187524Y-70952762D01*
X68092286Y-70857524D01*
X68044667Y-70762286D01*
X67997048Y-70571810D01*
X67997048Y-70428952D01*
X68044667Y-70238476D01*
X68092286Y-70143238D01*
X68187524Y-70048000D01*
X68330382Y-70000381D01*
X68425620Y-70000381D01*
X68568477Y-70048000D01*
X68616096Y-70095619D01*
X69616096Y-70905143D02*
X69568477Y-70952762D01*
X69425620Y-71000381D01*
X69330382Y-71000381D01*
X69187524Y-70952762D01*
X69092286Y-70857524D01*
X69044667Y-70762286D01*
X68997048Y-70571810D01*
X68997048Y-70428952D01*
X69044667Y-70238476D01*
X69092286Y-70143238D01*
X69187524Y-70048000D01*
X69330382Y-70000381D01*
X69425620Y-70000381D01*
X69568477Y-70048000D01*
X69616096Y-70095619D01*
X67068571Y-67825429D02*
X67830476Y-67825429D01*
X67449524Y-68206381D02*
X67449524Y-67444476D01*
X68640000Y-67682571D02*
X68782857Y-67730190D01*
X68830476Y-67777810D01*
X68878095Y-67873048D01*
X68878095Y-68015905D01*
X68830476Y-68111143D01*
X68782857Y-68158762D01*
X68687619Y-68206381D01*
X68306666Y-68206381D01*
X68306666Y-67206381D01*
X68640000Y-67206381D01*
X68735238Y-67254000D01*
X68782857Y-67301619D01*
X68830476Y-67396857D01*
X68830476Y-67492095D01*
X68782857Y-67587333D01*
X68735238Y-67634952D01*
X68640000Y-67682571D01*
X68306666Y-67682571D01*
X69259047Y-67920667D02*
X69735238Y-67920667D01*
X69163809Y-68206381D02*
X69497142Y-67206381D01*
X69830476Y-68206381D01*
X70020952Y-67206381D02*
X70592381Y-67206381D01*
X70306666Y-68206381D02*
X70306666Y-67206381D01*
X70782857Y-67206381D02*
X71354286Y-67206381D01*
X71068571Y-68206381D02*
X71068571Y-67206381D01*
D11*
X65576000Y-23470000D02*
X64576000Y-23470000D01*
X64576000Y-25170000D02*
X65576000Y-25170000D01*
X76244000Y-23978000D02*
X75244000Y-23978000D01*
X75244000Y-25678000D02*
X76244000Y-25678000D01*
X76244000Y-26518000D02*
X75244000Y-26518000D01*
X75244000Y-28218000D02*
X76244000Y-28218000D01*
X62799000Y-82470000D02*
X62799000Y-80470000D01*
X60749000Y-80470000D02*
X60749000Y-82470000D01*
X66108000Y-88337000D02*
X68108000Y-88337000D01*
X68108000Y-86287000D02*
X66108000Y-86287000D01*
X73038000Y-84764000D02*
X73038000Y-83764000D01*
X71338000Y-83764000D02*
X71338000Y-84764000D01*
X63078000Y-56696000D02*
X63078000Y-53096000D01*
X60978000Y-56696000D02*
X60978000Y-53096000D01*
X61728000Y-54646000D02*
X62328000Y-54646000D01*
X62328000Y-54646000D02*
X62028000Y-54946000D01*
X62028000Y-54946000D02*
X61828000Y-54746000D01*
X61828000Y-54746000D02*
X62078000Y-54746000D01*
X62078000Y-54746000D02*
X62028000Y-54796000D01*
X61528000Y-55046000D02*
X62528000Y-55046000D01*
X62028000Y-54546000D02*
X62028000Y-54046000D01*
X62028000Y-55046000D02*
X61528000Y-54546000D01*
X61528000Y-54546000D02*
X62528000Y-54546000D01*
X62528000Y-54546000D02*
X62028000Y-55046000D01*
X66126000Y-56696000D02*
X66126000Y-53096000D01*
X64026000Y-56696000D02*
X64026000Y-53096000D01*
X64776000Y-54646000D02*
X65376000Y-54646000D01*
X65376000Y-54646000D02*
X65076000Y-54946000D01*
X65076000Y-54946000D02*
X64876000Y-54746000D01*
X64876000Y-54746000D02*
X65126000Y-54746000D01*
X65126000Y-54746000D02*
X65076000Y-54796000D01*
X64576000Y-55046000D02*
X65576000Y-55046000D01*
X65076000Y-54546000D02*
X65076000Y-54046000D01*
X65076000Y-55046000D02*
X64576000Y-54546000D01*
X64576000Y-54546000D02*
X65576000Y-54546000D01*
X65576000Y-54546000D02*
X65076000Y-55046000D01*
X69529000Y-42599000D02*
X69529000Y-43869000D01*
X76879000Y-42599000D02*
X76879000Y-43869000D01*
X76879000Y-54809000D02*
X76879000Y-53539000D01*
X69529000Y-54809000D02*
X69529000Y-53539000D01*
X69529000Y-42599000D02*
X76879000Y-42599000D01*
X69529000Y-54809000D02*
X76879000Y-54809000D01*
X69529000Y-43869000D02*
X68594000Y-43869000D01*
X71966900Y-14406540D02*
X63266900Y-14406540D01*
X71966900Y-20811540D02*
X63266900Y-20811540D01*
X63266900Y-20811540D02*
X63266900Y-14406540D01*
X63266900Y-15636540D02*
X71966900Y-15636540D01*
X71966900Y-14406540D02*
X71966900Y-20811540D01*
X80540000Y-16230000D02*
X75460000Y-16230000D01*
X80540000Y-20675000D02*
X75460000Y-20675000D01*
X75460000Y-14325000D02*
X80540000Y-14325000D01*
X75460000Y-14325000D02*
X75460000Y-20675000D01*
X80540000Y-14325000D02*
X80540000Y-20675000D01*
X62536000Y-31178000D02*
X62536000Y-36258000D01*
X66981000Y-31178000D02*
X66981000Y-36258000D01*
X60631000Y-36258000D02*
X60631000Y-31178000D01*
X60631000Y-36258000D02*
X66981000Y-36258000D01*
X60631000Y-31178000D02*
X66981000Y-31178000D01*
X70013760Y-62644840D02*
X70013760Y-62693100D01*
X70714800Y-65443820D02*
X70013760Y-65443820D01*
X70013760Y-65443820D02*
X70013760Y-65194900D01*
X70013760Y-62644840D02*
X70013760Y-62444180D01*
X70013760Y-62444180D02*
X70714800Y-62444180D01*
X61153000Y-61242000D02*
X61153000Y-60042000D01*
X62903000Y-60042000D02*
X62903000Y-61242000D01*
X64201000Y-61242000D02*
X64201000Y-60042000D01*
X65951000Y-60042000D02*
X65951000Y-61242000D01*
X73063000Y-58518000D02*
X73063000Y-59718000D01*
X71313000Y-59718000D02*
X71313000Y-58518000D01*
X70523000Y-58518000D02*
X70523000Y-59718000D01*
X68773000Y-59718000D02*
X68773000Y-58518000D01*
X64400000Y-26125000D02*
X65600000Y-26125000D01*
X65600000Y-27875000D02*
X64400000Y-27875000D01*
X74100000Y-80875000D02*
X72900000Y-80875000D01*
X72900000Y-79125000D02*
X74100000Y-79125000D01*
X80500000Y-40500000D02*
X80500000Y-29500000D01*
X80500000Y-29500000D02*
X79500000Y-29500000D01*
X79500000Y-29500000D02*
X80500000Y-29500000D01*
X79500000Y-40500000D02*
X80500000Y-40500000D01*
X80500000Y-40500000D02*
X79500000Y-40500000D01*
X74500000Y-29500000D02*
X79500000Y-29500000D01*
X79500000Y-29500000D02*
X74500000Y-29500000D01*
X74500000Y-29500000D02*
X79500000Y-29500000D01*
X74500000Y-40500000D02*
X79500000Y-40500000D01*
X79500000Y-40500000D02*
X74500000Y-40500000D01*
X74500000Y-40500000D02*
X79500000Y-40500000D01*
X74500000Y-35000000D02*
X74500000Y-40500000D01*
X74500000Y-40500000D02*
X74500000Y-35000000D01*
X74500000Y-35000000D02*
X74500000Y-29500000D01*
X74500000Y-29500000D02*
X74500000Y-35000000D01*
X80500000Y-76500000D02*
X80500000Y-65500000D01*
X80500000Y-65500000D02*
X79500000Y-65500000D01*
X79500000Y-65500000D02*
X80500000Y-65500000D01*
X79500000Y-76500000D02*
X80500000Y-76500000D01*
X80500000Y-76500000D02*
X79500000Y-76500000D01*
X74500000Y-65500000D02*
X79500000Y-65500000D01*
X79500000Y-65500000D02*
X74500000Y-65500000D01*
X74500000Y-65500000D02*
X79500000Y-65500000D01*
X74500000Y-76500000D02*
X79500000Y-76500000D01*
X79500000Y-76500000D02*
X74500000Y-76500000D01*
X74500000Y-76500000D02*
X79500000Y-76500000D01*
X74500000Y-71000000D02*
X74500000Y-76500000D01*
X74500000Y-76500000D02*
X74500000Y-71000000D01*
X74500000Y-71000000D02*
X74500000Y-65500000D01*
X74500000Y-65500000D02*
X74500000Y-71000000D01*
X70205952Y-24915000D02*
G75*
G03X70205952Y-24915000I-100000J0D01*
G01*
X70655952Y-25165000D02*
X70155952Y-25165000D01*
X70655952Y-28065000D02*
X70655952Y-25165000D01*
X70155952Y-28065000D02*
X70655952Y-28065000D01*
X70155952Y-25165000D02*
X70155952Y-28065000D01*
X65325000Y-80825000D02*
X65325000Y-81075000D01*
X68675000Y-80825000D02*
X68675000Y-81075000D01*
X68675000Y-84175000D02*
X68675000Y-83925000D01*
X65325000Y-84175000D02*
X65325000Y-83925000D01*
X65325000Y-80825000D02*
X68675000Y-80825000D01*
X65325000Y-84175000D02*
X68675000Y-84175000D01*
X65325000Y-81075000D02*
X64075000Y-81075000D01*
X66675000Y-66690000D02*
X60325000Y-66690000D01*
X66675000Y-74310000D02*
X60325000Y-74310000D01*
X64770000Y-74310000D02*
X64770000Y-66690000D01*
X66675000Y-66690000D02*
X66675000Y-74310000D01*
X60325000Y-74310000D02*
X60325000Y-66690000D01*
X65556714Y-42608000D02*
G75*
G03X65556714Y-42608000I-1750714J0D01*
G01*
X60581000Y-39383000D02*
X60706000Y-39383000D01*
X67031000Y-39383000D02*
X66906000Y-39383000D01*
X67031000Y-45833000D02*
X66906000Y-45833000D01*
X60706000Y-45833000D02*
X60581000Y-45833000D01*
X62406000Y-39383000D02*
X65206000Y-39383000D01*
X60581000Y-45833000D02*
X60581000Y-39383000D01*
X62406000Y-45833000D02*
X65206000Y-45833000D01*
X67031000Y-45833000D02*
X67031000Y-39383000D01*
X61353334Y-24677143D02*
X61305715Y-24724762D01*
X61162858Y-24772381D01*
X61067620Y-24772381D01*
X60924762Y-24724762D01*
X60829524Y-24629524D01*
X60781905Y-24534286D01*
X60734286Y-24343810D01*
X60734286Y-24200952D01*
X60781905Y-24010476D01*
X60829524Y-23915238D01*
X60924762Y-23820000D01*
X61067620Y-23772381D01*
X61162858Y-23772381D01*
X61305715Y-23820000D01*
X61353334Y-23867619D01*
X62305715Y-24772381D02*
X61734286Y-24772381D01*
X62020000Y-24772381D02*
X62020000Y-23772381D01*
X61924762Y-23915238D01*
X61829524Y-24010476D01*
X61734286Y-24058095D01*
X79077334Y-25185143D02*
X79029715Y-25232762D01*
X78886858Y-25280381D01*
X78791620Y-25280381D01*
X78648762Y-25232762D01*
X78553524Y-25137524D01*
X78505905Y-25042286D01*
X78458286Y-24851810D01*
X78458286Y-24708952D01*
X78505905Y-24518476D01*
X78553524Y-24423238D01*
X78648762Y-24328000D01*
X78791620Y-24280381D01*
X78886858Y-24280381D01*
X79029715Y-24328000D01*
X79077334Y-24375619D01*
X79458286Y-24375619D02*
X79505905Y-24328000D01*
X79601143Y-24280381D01*
X79839239Y-24280381D01*
X79934477Y-24328000D01*
X79982096Y-24375619D01*
X80029715Y-24470857D01*
X80029715Y-24566095D01*
X79982096Y-24708952D01*
X79410667Y-25280381D01*
X80029715Y-25280381D01*
X79077334Y-27725143D02*
X79029715Y-27772762D01*
X78886858Y-27820381D01*
X78791620Y-27820381D01*
X78648762Y-27772762D01*
X78553524Y-27677524D01*
X78505905Y-27582286D01*
X78458286Y-27391810D01*
X78458286Y-27248952D01*
X78505905Y-27058476D01*
X78553524Y-26963238D01*
X78648762Y-26868000D01*
X78791620Y-26820381D01*
X78886858Y-26820381D01*
X79029715Y-26868000D01*
X79077334Y-26915619D01*
X79410667Y-26820381D02*
X80029715Y-26820381D01*
X79696381Y-27201333D01*
X79839239Y-27201333D01*
X79934477Y-27248952D01*
X79982096Y-27296571D01*
X80029715Y-27391810D01*
X80029715Y-27629905D01*
X79982096Y-27725143D01*
X79934477Y-27772762D01*
X79839239Y-27820381D01*
X79553524Y-27820381D01*
X79458286Y-27772762D01*
X79410667Y-27725143D01*
X64131143Y-79136666D02*
X64178762Y-79184285D01*
X64226381Y-79327142D01*
X64226381Y-79422380D01*
X64178762Y-79565238D01*
X64083524Y-79660476D01*
X63988286Y-79708095D01*
X63797810Y-79755714D01*
X63654952Y-79755714D01*
X63464476Y-79708095D01*
X63369238Y-79660476D01*
X63274000Y-79565238D01*
X63226381Y-79422380D01*
X63226381Y-79327142D01*
X63274000Y-79184285D01*
X63321619Y-79136666D01*
X63559714Y-78279523D02*
X64226381Y-78279523D01*
X63178762Y-78517619D02*
X63893048Y-78755714D01*
X63893048Y-78136666D01*
X62441334Y-87669143D02*
X62393715Y-87716762D01*
X62250858Y-87764381D01*
X62155620Y-87764381D01*
X62012762Y-87716762D01*
X61917524Y-87621524D01*
X61869905Y-87526286D01*
X61822286Y-87335810D01*
X61822286Y-87192952D01*
X61869905Y-87002476D01*
X61917524Y-86907238D01*
X62012762Y-86812000D01*
X62155620Y-86764381D01*
X62250858Y-86764381D01*
X62393715Y-86812000D01*
X62441334Y-86859619D01*
X63346096Y-86764381D02*
X62869905Y-86764381D01*
X62822286Y-87240571D01*
X62869905Y-87192952D01*
X62965143Y-87145333D01*
X63203239Y-87145333D01*
X63298477Y-87192952D01*
X63346096Y-87240571D01*
X63393715Y-87335810D01*
X63393715Y-87573905D01*
X63346096Y-87669143D01*
X63298477Y-87716762D01*
X63203239Y-87764381D01*
X62965143Y-87764381D01*
X62869905Y-87716762D01*
X62822286Y-87669143D01*
X72545143Y-87930666D02*
X72592762Y-87978285D01*
X72640381Y-88121142D01*
X72640381Y-88216380D01*
X72592762Y-88359238D01*
X72497524Y-88454476D01*
X72402286Y-88502095D01*
X72211810Y-88549714D01*
X72068952Y-88549714D01*
X71878476Y-88502095D01*
X71783238Y-88454476D01*
X71688000Y-88359238D01*
X71640381Y-88216380D01*
X71640381Y-88121142D01*
X71688000Y-87978285D01*
X71735619Y-87930666D01*
X71640381Y-87073523D02*
X71640381Y-87264000D01*
X71688000Y-87359238D01*
X71735619Y-87406857D01*
X71878476Y-87502095D01*
X72068952Y-87549714D01*
X72449905Y-87549714D01*
X72545143Y-87502095D01*
X72592762Y-87454476D01*
X72640381Y-87359238D01*
X72640381Y-87168761D01*
X72592762Y-87073523D01*
X72545143Y-87025904D01*
X72449905Y-86978285D01*
X72211810Y-86978285D01*
X72116571Y-87025904D01*
X72068952Y-87073523D01*
X72021333Y-87168761D01*
X72021333Y-87359238D01*
X72068952Y-87454476D01*
X72116571Y-87502095D01*
X72211810Y-87549714D01*
X61289905Y-51998381D02*
X61289905Y-50998381D01*
X61528000Y-50998381D01*
X61670858Y-51046000D01*
X61766096Y-51141238D01*
X61813715Y-51236476D01*
X61861334Y-51426952D01*
X61861334Y-51569810D01*
X61813715Y-51760286D01*
X61766096Y-51855524D01*
X61670858Y-51950762D01*
X61528000Y-51998381D01*
X61289905Y-51998381D01*
X62813715Y-51998381D02*
X62242286Y-51998381D01*
X62528000Y-51998381D02*
X62528000Y-50998381D01*
X62432762Y-51141238D01*
X62337524Y-51236476D01*
X62242286Y-51284095D01*
X64337905Y-51998381D02*
X64337905Y-50998381D01*
X64576000Y-50998381D01*
X64718858Y-51046000D01*
X64814096Y-51141238D01*
X64861715Y-51236476D01*
X64909334Y-51426952D01*
X64909334Y-51569810D01*
X64861715Y-51760286D01*
X64814096Y-51855524D01*
X64718858Y-51950762D01*
X64576000Y-51998381D01*
X64337905Y-51998381D01*
X65290286Y-51093619D02*
X65337905Y-51046000D01*
X65433143Y-50998381D01*
X65671239Y-50998381D01*
X65766477Y-51046000D01*
X65814096Y-51093619D01*
X65861715Y-51188857D01*
X65861715Y-51284095D01*
X65814096Y-51426952D01*
X65242667Y-51998381D01*
X65861715Y-51998381D01*
X72550429Y-54561381D02*
X72550429Y-53561381D01*
X73598048Y-54466143D02*
X73550429Y-54513762D01*
X73407572Y-54561381D01*
X73312334Y-54561381D01*
X73169476Y-54513762D01*
X73074238Y-54418524D01*
X73026619Y-54323286D01*
X72979000Y-54132810D01*
X72979000Y-53989952D01*
X73026619Y-53799476D01*
X73074238Y-53704238D01*
X73169476Y-53609000D01*
X73312334Y-53561381D01*
X73407572Y-53561381D01*
X73550429Y-53609000D01*
X73598048Y-53656619D01*
X74550429Y-54561381D02*
X73979000Y-54561381D01*
X74264714Y-54561381D02*
X74264714Y-53561381D01*
X74169476Y-53704238D01*
X74074238Y-53799476D01*
X73979000Y-53847095D01*
X66877905Y-17176381D02*
X66877905Y-16176381D01*
X67258858Y-16176381D01*
X67354096Y-16224000D01*
X67401715Y-16271619D01*
X67449334Y-16366857D01*
X67449334Y-16509714D01*
X67401715Y-16604952D01*
X67354096Y-16652571D01*
X67258858Y-16700190D01*
X66877905Y-16700190D01*
X68401715Y-17176381D02*
X67830286Y-17176381D01*
X68116000Y-17176381D02*
X68116000Y-16176381D01*
X68020762Y-16319238D01*
X67925524Y-16414476D01*
X67830286Y-16462095D01*
X77291905Y-20454381D02*
X77291905Y-19454381D01*
X77672858Y-19454381D01*
X77768096Y-19502000D01*
X77815715Y-19549619D01*
X77863334Y-19644857D01*
X77863334Y-19787714D01*
X77815715Y-19882952D01*
X77768096Y-19930571D01*
X77672858Y-19978190D01*
X77291905Y-19978190D01*
X78244286Y-19549619D02*
X78291905Y-19502000D01*
X78387143Y-19454381D01*
X78625239Y-19454381D01*
X78720477Y-19502000D01*
X78768096Y-19549619D01*
X78815715Y-19644857D01*
X78815715Y-19740095D01*
X78768096Y-19882952D01*
X78196667Y-20454381D01*
X78815715Y-20454381D01*
X61758381Y-34456095D02*
X60758381Y-34456095D01*
X60758381Y-34075142D01*
X60806000Y-33979904D01*
X60853619Y-33932285D01*
X60948857Y-33884666D01*
X61091714Y-33884666D01*
X61186952Y-33932285D01*
X61234571Y-33979904D01*
X61282190Y-34075142D01*
X61282190Y-34456095D01*
X61091714Y-33027523D02*
X61758381Y-33027523D01*
X60710762Y-33265619D02*
X61425048Y-33503714D01*
X61425048Y-32884666D01*
X68961619Y-64039238D02*
X68914000Y-64134476D01*
X68818762Y-64229714D01*
X68675905Y-64372571D01*
X68628286Y-64467810D01*
X68628286Y-64563048D01*
X68866381Y-64515429D02*
X68818762Y-64610667D01*
X68723524Y-64705905D01*
X68533048Y-64753524D01*
X68199714Y-64753524D01*
X68009238Y-64705905D01*
X67914000Y-64610667D01*
X67866381Y-64515429D01*
X67866381Y-64324952D01*
X67914000Y-64229714D01*
X68009238Y-64134476D01*
X68199714Y-64086857D01*
X68533048Y-64086857D01*
X68723524Y-64134476D01*
X68818762Y-64229714D01*
X68866381Y-64324952D01*
X68866381Y-64515429D01*
X68866381Y-63134476D02*
X68866381Y-63705905D01*
X68866381Y-63420191D02*
X67866381Y-63420191D01*
X68009238Y-63515429D01*
X68104476Y-63610667D01*
X68152095Y-63705905D01*
X62480381Y-64308666D02*
X62004190Y-64642000D01*
X62480381Y-64880095D02*
X61480381Y-64880095D01*
X61480381Y-64499142D01*
X61528000Y-64403904D01*
X61575619Y-64356285D01*
X61670857Y-64308666D01*
X61813714Y-64308666D01*
X61908952Y-64356285D01*
X61956571Y-64403904D01*
X62004190Y-64499142D01*
X62004190Y-64880095D01*
X62480381Y-63356285D02*
X62480381Y-63927714D01*
X62480381Y-63642000D02*
X61480381Y-63642000D01*
X61623238Y-63737238D01*
X61718476Y-63832476D01*
X61766095Y-63927714D01*
X65528381Y-64308666D02*
X65052190Y-64642000D01*
X65528381Y-64880095D02*
X64528381Y-64880095D01*
X64528381Y-64499142D01*
X64576000Y-64403904D01*
X64623619Y-64356285D01*
X64718857Y-64308666D01*
X64861714Y-64308666D01*
X64956952Y-64356285D01*
X65004571Y-64403904D01*
X65052190Y-64499142D01*
X65052190Y-64880095D01*
X64623619Y-63927714D02*
X64576000Y-63880095D01*
X64528381Y-63784857D01*
X64528381Y-63546761D01*
X64576000Y-63451523D01*
X64623619Y-63403904D01*
X64718857Y-63356285D01*
X64814095Y-63356285D01*
X64956952Y-63403904D01*
X65528381Y-63975333D01*
X65528381Y-63356285D01*
X74640381Y-57784666D02*
X74164190Y-58118000D01*
X74640381Y-58356095D02*
X73640381Y-58356095D01*
X73640381Y-57975142D01*
X73688000Y-57879904D01*
X73735619Y-57832285D01*
X73830857Y-57784666D01*
X73973714Y-57784666D01*
X74068952Y-57832285D01*
X74116571Y-57879904D01*
X74164190Y-57975142D01*
X74164190Y-58356095D01*
X73640381Y-57451333D02*
X73640381Y-56832285D01*
X74021333Y-57165619D01*
X74021333Y-57022761D01*
X74068952Y-56927523D01*
X74116571Y-56879904D01*
X74211810Y-56832285D01*
X74449905Y-56832285D01*
X74545143Y-56879904D01*
X74592762Y-56927523D01*
X74640381Y-57022761D01*
X74640381Y-57308476D01*
X74592762Y-57403714D01*
X74545143Y-57451333D01*
X68322381Y-60808666D02*
X67846190Y-61142000D01*
X68322381Y-61380095D02*
X67322381Y-61380095D01*
X67322381Y-60999142D01*
X67370000Y-60903904D01*
X67417619Y-60856285D01*
X67512857Y-60808666D01*
X67655714Y-60808666D01*
X67750952Y-60856285D01*
X67798571Y-60903904D01*
X67846190Y-60999142D01*
X67846190Y-61380095D01*
X67655714Y-59951523D02*
X68322381Y-59951523D01*
X67274762Y-60189619D02*
X67989048Y-60427714D01*
X67989048Y-59808666D01*
X61333334Y-27452381D02*
X61000000Y-26976190D01*
X60761905Y-27452381D02*
X60761905Y-26452381D01*
X61142858Y-26452381D01*
X61238096Y-26500000D01*
X61285715Y-26547619D01*
X61333334Y-26642857D01*
X61333334Y-26785714D01*
X61285715Y-26880952D01*
X61238096Y-26928571D01*
X61142858Y-26976190D01*
X60761905Y-26976190D01*
X62238096Y-26452381D02*
X61761905Y-26452381D01*
X61714286Y-26928571D01*
X61761905Y-26880952D01*
X61857143Y-26833333D01*
X62095239Y-26833333D01*
X62190477Y-26880952D01*
X62238096Y-26928571D01*
X62285715Y-27023810D01*
X62285715Y-27261905D01*
X62238096Y-27357143D01*
X62190477Y-27404762D01*
X62095239Y-27452381D01*
X61857143Y-27452381D01*
X61761905Y-27404762D01*
X61714286Y-27357143D01*
X77333334Y-80452381D02*
X77000000Y-79976190D01*
X76761905Y-80452381D02*
X76761905Y-79452381D01*
X77142858Y-79452381D01*
X77238096Y-79500000D01*
X77285715Y-79547619D01*
X77333334Y-79642857D01*
X77333334Y-79785714D01*
X77285715Y-79880952D01*
X77238096Y-79928571D01*
X77142858Y-79976190D01*
X76761905Y-79976190D01*
X78190477Y-79452381D02*
X78000000Y-79452381D01*
X77904762Y-79500000D01*
X77857143Y-79547619D01*
X77761905Y-79690476D01*
X77714286Y-79880952D01*
X77714286Y-80261905D01*
X77761905Y-80357143D01*
X77809524Y-80404762D01*
X77904762Y-80452381D01*
X78095239Y-80452381D01*
X78190477Y-80404762D01*
X78238096Y-80357143D01*
X78285715Y-80261905D01*
X78285715Y-80023810D01*
X78238096Y-79928571D01*
X78190477Y-79880952D01*
X78095239Y-79833333D01*
X77904762Y-79833333D01*
X77809524Y-79880952D01*
X77761905Y-79928571D01*
X77714286Y-80023810D01*
X76666667Y-39904762D02*
X76809524Y-39952381D01*
X77047620Y-39952381D01*
X77142858Y-39904762D01*
X77190477Y-39857143D01*
X77238096Y-39761905D01*
X77238096Y-39666667D01*
X77190477Y-39571429D01*
X77142858Y-39523810D01*
X77047620Y-39476190D01*
X76857143Y-39428571D01*
X76761905Y-39380952D01*
X76714286Y-39333333D01*
X76666667Y-39238095D01*
X76666667Y-39142857D01*
X76714286Y-39047619D01*
X76761905Y-39000000D01*
X76857143Y-38952381D01*
X77095239Y-38952381D01*
X77238096Y-39000000D01*
X77571429Y-38952381D02*
X77809524Y-39952381D01*
X78000001Y-39238095D01*
X78190477Y-39952381D01*
X78428572Y-38952381D01*
X78761905Y-39047619D02*
X78809524Y-39000000D01*
X78904762Y-38952381D01*
X79142858Y-38952381D01*
X79238096Y-39000000D01*
X79285715Y-39047619D01*
X79333334Y-39142857D01*
X79333334Y-39238095D01*
X79285715Y-39380952D01*
X78714286Y-39952381D01*
X79333334Y-39952381D01*
X79428571Y-36785714D02*
X79428571Y-37119048D01*
X79952381Y-37119048D02*
X78952381Y-37119048D01*
X78952381Y-36642857D01*
X79952381Y-35690476D02*
X79476190Y-36023810D01*
X79952381Y-36261905D02*
X78952381Y-36261905D01*
X78952381Y-35880952D01*
X79000000Y-35785714D01*
X79047619Y-35738095D01*
X79142857Y-35690476D01*
X79285714Y-35690476D01*
X79380952Y-35738095D01*
X79428571Y-35785714D01*
X79476190Y-35880952D01*
X79476190Y-36261905D01*
X78952381Y-35071429D02*
X78952381Y-34880952D01*
X79000000Y-34785714D01*
X79095238Y-34690476D01*
X79285714Y-34642857D01*
X79619048Y-34642857D01*
X79809524Y-34690476D01*
X79904762Y-34785714D01*
X79952381Y-34880952D01*
X79952381Y-35071429D01*
X79904762Y-35166667D01*
X79809524Y-35261905D01*
X79619048Y-35309524D01*
X79285714Y-35309524D01*
X79095238Y-35261905D01*
X79000000Y-35166667D01*
X78952381Y-35071429D01*
X79952381Y-34214286D02*
X78952381Y-34214286D01*
X79952381Y-33642857D01*
X78952381Y-33642857D01*
X78952381Y-33309524D02*
X78952381Y-32738095D01*
X79952381Y-33023810D02*
X78952381Y-33023810D01*
X75052381Y-32133333D02*
X75052381Y-31514285D01*
X75433333Y-31847619D01*
X75433333Y-31704761D01*
X75480952Y-31609523D01*
X75528571Y-31561904D01*
X75623810Y-31514285D01*
X75861905Y-31514285D01*
X75957143Y-31561904D01*
X76004762Y-31609523D01*
X76052381Y-31704761D01*
X76052381Y-31990476D01*
X76004762Y-32085714D01*
X75957143Y-32133333D01*
X75147619Y-35285714D02*
X75100000Y-35238095D01*
X75052381Y-35142857D01*
X75052381Y-34904761D01*
X75100000Y-34809523D01*
X75147619Y-34761904D01*
X75242857Y-34714285D01*
X75338095Y-34714285D01*
X75480952Y-34761904D01*
X76052381Y-35333333D01*
X76052381Y-34714285D01*
X76052381Y-37914285D02*
X76052381Y-38485714D01*
X76052381Y-38200000D02*
X75052381Y-38200000D01*
X75195238Y-38295238D01*
X75290476Y-38390476D01*
X75338095Y-38485714D01*
X76188667Y-76032762D02*
X76331524Y-76080381D01*
X76569620Y-76080381D01*
X76664858Y-76032762D01*
X76712477Y-75985143D01*
X76760096Y-75889905D01*
X76760096Y-75794667D01*
X76712477Y-75699429D01*
X76664858Y-75651810D01*
X76569620Y-75604190D01*
X76379143Y-75556571D01*
X76283905Y-75508952D01*
X76236286Y-75461333D01*
X76188667Y-75366095D01*
X76188667Y-75270857D01*
X76236286Y-75175619D01*
X76283905Y-75128000D01*
X76379143Y-75080381D01*
X76617239Y-75080381D01*
X76760096Y-75128000D01*
X77093429Y-75080381D02*
X77331524Y-76080381D01*
X77522001Y-75366095D01*
X77712477Y-76080381D01*
X77950572Y-75080381D01*
X78236286Y-75080381D02*
X78855334Y-75080381D01*
X78522000Y-75461333D01*
X78664858Y-75461333D01*
X78760096Y-75508952D01*
X78807715Y-75556571D01*
X78855334Y-75651810D01*
X78855334Y-75889905D01*
X78807715Y-75985143D01*
X78760096Y-76032762D01*
X78664858Y-76080381D01*
X78379143Y-76080381D01*
X78283905Y-76032762D01*
X78236286Y-75985143D01*
X79428571Y-72785714D02*
X79428571Y-73119048D01*
X79952381Y-73119048D02*
X78952381Y-73119048D01*
X78952381Y-72642857D01*
X79952381Y-71690476D02*
X79476190Y-72023810D01*
X79952381Y-72261905D02*
X78952381Y-72261905D01*
X78952381Y-71880952D01*
X79000000Y-71785714D01*
X79047619Y-71738095D01*
X79142857Y-71690476D01*
X79285714Y-71690476D01*
X79380952Y-71738095D01*
X79428571Y-71785714D01*
X79476190Y-71880952D01*
X79476190Y-72261905D01*
X78952381Y-71071429D02*
X78952381Y-70880952D01*
X79000000Y-70785714D01*
X79095238Y-70690476D01*
X79285714Y-70642857D01*
X79619048Y-70642857D01*
X79809524Y-70690476D01*
X79904762Y-70785714D01*
X79952381Y-70880952D01*
X79952381Y-71071429D01*
X79904762Y-71166667D01*
X79809524Y-71261905D01*
X79619048Y-71309524D01*
X79285714Y-71309524D01*
X79095238Y-71261905D01*
X79000000Y-71166667D01*
X78952381Y-71071429D01*
X79952381Y-70214286D02*
X78952381Y-70214286D01*
X79952381Y-69642857D01*
X78952381Y-69642857D01*
X78952381Y-69309524D02*
X78952381Y-68738095D01*
X79952381Y-69023810D02*
X78952381Y-69023810D01*
X75052381Y-68133333D02*
X75052381Y-67514285D01*
X75433333Y-67847619D01*
X75433333Y-67704761D01*
X75480952Y-67609523D01*
X75528571Y-67561904D01*
X75623810Y-67514285D01*
X75861905Y-67514285D01*
X75957143Y-67561904D01*
X76004762Y-67609523D01*
X76052381Y-67704761D01*
X76052381Y-67990476D01*
X76004762Y-68085714D01*
X75957143Y-68133333D01*
X75147619Y-71285714D02*
X75100000Y-71238095D01*
X75052381Y-71142857D01*
X75052381Y-70904761D01*
X75100000Y-70809523D01*
X75147619Y-70761904D01*
X75242857Y-70714285D01*
X75338095Y-70714285D01*
X75480952Y-70761904D01*
X76052381Y-71333333D01*
X76052381Y-70714285D01*
X76052381Y-73914285D02*
X76052381Y-74485714D01*
X76052381Y-74200000D02*
X75052381Y-74200000D01*
X75195238Y-74295238D01*
X75290476Y-74390476D01*
X75338095Y-74485714D01*
X69594047Y-23517381D02*
X69594047Y-24326905D01*
X69641666Y-24422143D01*
X69689285Y-24469762D01*
X69784523Y-24517381D01*
X69975000Y-24517381D01*
X70070238Y-24469762D01*
X70117857Y-24422143D01*
X70165476Y-24326905D01*
X70165476Y-23517381D01*
X71165476Y-24517381D02*
X70594047Y-24517381D01*
X70879761Y-24517381D02*
X70879761Y-23517381D01*
X70784523Y-23660238D01*
X70689285Y-23755476D01*
X70594047Y-23803095D01*
X66238095Y-79352381D02*
X66238095Y-80161905D01*
X66285714Y-80257143D01*
X66333333Y-80304762D01*
X66428571Y-80352381D01*
X66619048Y-80352381D01*
X66714286Y-80304762D01*
X66761905Y-80257143D01*
X66809524Y-80161905D01*
X66809524Y-79352381D01*
X67238095Y-79447619D02*
X67285714Y-79400000D01*
X67380952Y-79352381D01*
X67619048Y-79352381D01*
X67714286Y-79400000D01*
X67761905Y-79447619D01*
X67809524Y-79542857D01*
X67809524Y-79638095D01*
X67761905Y-79780952D01*
X67190476Y-80352381D01*
X67809524Y-80352381D01*
X61552381Y-69838095D02*
X60552381Y-69838095D01*
X60552381Y-69457142D01*
X60600000Y-69361904D01*
X60647619Y-69314285D01*
X60742857Y-69266666D01*
X60885714Y-69266666D01*
X60980952Y-69314285D01*
X61028571Y-69361904D01*
X61076190Y-69457142D01*
X61076190Y-69838095D01*
X60552381Y-68933333D02*
X60552381Y-68314285D01*
X60933333Y-68647619D01*
X60933333Y-68504761D01*
X60980952Y-68409523D01*
X61028571Y-68361904D01*
X61123810Y-68314285D01*
X61361905Y-68314285D01*
X61457143Y-68361904D01*
X61504762Y-68409523D01*
X61552381Y-68504761D01*
X61552381Y-68790476D01*
X61504762Y-68885714D01*
X61457143Y-68933333D01*
X63410762Y-43941333D02*
X63458381Y-43798476D01*
X63458381Y-43560380D01*
X63410762Y-43465142D01*
X63363143Y-43417523D01*
X63267905Y-43369904D01*
X63172667Y-43369904D01*
X63077429Y-43417523D01*
X63029810Y-43465142D01*
X62982190Y-43560380D01*
X62934571Y-43750857D01*
X62886952Y-43846095D01*
X62839333Y-43893714D01*
X62744095Y-43941333D01*
X62648857Y-43941333D01*
X62553619Y-43893714D01*
X62506000Y-43846095D01*
X62458381Y-43750857D01*
X62458381Y-43512761D01*
X62506000Y-43369904D01*
X62458381Y-43036571D02*
X63458381Y-42798476D01*
X62744095Y-42607999D01*
X63458381Y-42417523D01*
X62458381Y-42179428D01*
X63458381Y-41274666D02*
X63458381Y-41846095D01*
X63458381Y-41560381D02*
X62458381Y-41560381D01*
X62601238Y-41655619D01*
X62696476Y-41750857D01*
X62744095Y-41846095D01*
M02*
