G04 #@! TF.FileFunction,Legend,Top*
%FSLAX46Y46*%
G04 Gerber Fmt 4.6, Leading zero omitted, Abs format (unit mm)*
G04 Created by KiCad (PCBNEW 4.0.1-stable) date Torsdag 21 Januari 2016 22:06:45*
%MOMM*%
G01*
G04 APERTURE LIST*
%ADD10C,0.100000*%
%ADD11C,0.300000*%
%ADD12C,0.150000*%
%ADD13R,1.652400X1.402400*%
%ADD14R,1.752400X2.152400*%
%ADD15R,2.152400X1.752400*%
%ADD16R,1.402400X1.652400*%
%ADD17R,1.953260X1.750060*%
%ADD18O,1.752400X1.752400*%
%ADD19R,0.552400X1.502400*%
%ADD20O,1.402400X1.102400*%
%ADD21O,1.152400X1.702400*%
%ADD22O,3.167380X1.658620*%
%ADD23R,0.952500X0.952500*%
%ADD24R,1.452400X1.652400*%
%ADD25R,1.652400X1.452400*%
%ADD26C,1.852400*%
%ADD27R,1.212400X0.802400*%
%ADD28R,1.602400X0.602400*%
%ADD29C,1.676400*%
%ADD30R,1.452400X1.702400*%
G04 APERTURE END LIST*
D10*
X73471429Y-18180952D02*
X73471429Y-17419047D01*
X73852381Y-17799999D02*
X73090476Y-17799999D01*
X73471429Y-15880952D02*
X73471429Y-15119047D01*
X67938096Y-34500000D02*
X67842858Y-34452381D01*
X67700001Y-34452381D01*
X67557143Y-34500000D01*
X67461905Y-34595238D01*
X67414286Y-34690476D01*
X67366667Y-34880952D01*
X67366667Y-35023810D01*
X67414286Y-35214286D01*
X67461905Y-35309524D01*
X67557143Y-35404762D01*
X67700001Y-35452381D01*
X67795239Y-35452381D01*
X67938096Y-35404762D01*
X67985715Y-35357143D01*
X67985715Y-35023810D01*
X67795239Y-35023810D01*
X68414286Y-35452381D02*
X68414286Y-34452381D01*
X68985715Y-35452381D01*
X68985715Y-34452381D01*
X69461905Y-35452381D02*
X69461905Y-34452381D01*
X69700000Y-34452381D01*
X69842858Y-34500000D01*
X69938096Y-34595238D01*
X69985715Y-34690476D01*
X70033334Y-34880952D01*
X70033334Y-35023810D01*
X69985715Y-35214286D01*
X69938096Y-35309524D01*
X69842858Y-35404762D01*
X69700000Y-35452381D01*
X69461905Y-35452381D01*
X67228571Y-32571429D02*
X67990476Y-32571429D01*
X67609524Y-32952381D02*
X67609524Y-32190476D01*
X68800000Y-32428571D02*
X68942857Y-32476190D01*
X68990476Y-32523810D01*
X69038095Y-32619048D01*
X69038095Y-32761905D01*
X68990476Y-32857143D01*
X68942857Y-32904762D01*
X68847619Y-32952381D01*
X68466666Y-32952381D01*
X68466666Y-31952381D01*
X68800000Y-31952381D01*
X68895238Y-32000000D01*
X68942857Y-32047619D01*
X68990476Y-32142857D01*
X68990476Y-32238095D01*
X68942857Y-32333333D01*
X68895238Y-32380952D01*
X68800000Y-32428571D01*
X68466666Y-32428571D01*
X69419047Y-32666667D02*
X69895238Y-32666667D01*
X69323809Y-32952381D02*
X69657142Y-31952381D01*
X69990476Y-32952381D01*
X70180952Y-31952381D02*
X70752381Y-31952381D01*
X70466666Y-32952381D02*
X70466666Y-31952381D01*
X70942857Y-31952381D02*
X71514286Y-31952381D01*
X71228571Y-32952381D02*
X71228571Y-31952381D01*
D11*
X80375429Y-41433429D02*
X80375429Y-41719143D01*
X80304000Y-41862001D01*
X80161143Y-42004858D01*
X79875429Y-42076286D01*
X79375429Y-42076286D01*
X79089714Y-42004858D01*
X78946857Y-41862001D01*
X78875429Y-41719143D01*
X78875429Y-41433429D01*
X78946857Y-41290572D01*
X79089714Y-41147715D01*
X79375429Y-41076286D01*
X79875429Y-41076286D01*
X80161143Y-41147715D01*
X80304000Y-41290572D01*
X80375429Y-41433429D01*
X79661143Y-43219144D02*
X79661143Y-42719144D01*
X78875429Y-42719144D02*
X80375429Y-42719144D01*
X80375429Y-43433430D01*
X79661143Y-44504858D02*
X79661143Y-44004858D01*
X78875429Y-44004858D02*
X80375429Y-44004858D01*
X80375429Y-44719144D01*
X80375429Y-26693428D02*
X80375429Y-26979142D01*
X80304000Y-27122000D01*
X80161143Y-27264857D01*
X79875429Y-27336285D01*
X79375429Y-27336285D01*
X79089714Y-27264857D01*
X78946857Y-27122000D01*
X78875429Y-26979142D01*
X78875429Y-26693428D01*
X78946857Y-26550571D01*
X79089714Y-26407714D01*
X79375429Y-26336285D01*
X79875429Y-26336285D01*
X80161143Y-26407714D01*
X80304000Y-26550571D01*
X80375429Y-26693428D01*
X78875429Y-27979143D02*
X80375429Y-27979143D01*
X78875429Y-28836286D01*
X80375429Y-28836286D01*
X80375429Y-77223715D02*
X80375429Y-78152286D01*
X79804000Y-77652286D01*
X79804000Y-77866572D01*
X79732571Y-78009429D01*
X79661143Y-78080858D01*
X79518286Y-78152286D01*
X79161143Y-78152286D01*
X79018286Y-78080858D01*
X78946857Y-78009429D01*
X78875429Y-77866572D01*
X78875429Y-77438000D01*
X78946857Y-77295143D01*
X79018286Y-77223715D01*
X79018286Y-78795143D02*
X78946857Y-78866571D01*
X78875429Y-78795143D01*
X78946857Y-78723714D01*
X79018286Y-78795143D01*
X78875429Y-78795143D01*
X80375429Y-79366572D02*
X80375429Y-80295143D01*
X79804000Y-79795143D01*
X79804000Y-80009429D01*
X79732571Y-80152286D01*
X79661143Y-80223715D01*
X79518286Y-80295143D01*
X79161143Y-80295143D01*
X79018286Y-80223715D01*
X78946857Y-80152286D01*
X78875429Y-80009429D01*
X78875429Y-79580857D01*
X78946857Y-79438000D01*
X79018286Y-79366572D01*
X80375429Y-80723714D02*
X78875429Y-81223714D01*
X80375429Y-81723714D01*
X80375429Y-63404287D02*
X80375429Y-62690001D01*
X79661143Y-62618572D01*
X79732571Y-62690001D01*
X79804000Y-62832858D01*
X79804000Y-63190001D01*
X79732571Y-63332858D01*
X79661143Y-63404287D01*
X79518286Y-63475715D01*
X79161143Y-63475715D01*
X79018286Y-63404287D01*
X78946857Y-63332858D01*
X78875429Y-63190001D01*
X78875429Y-62832858D01*
X78946857Y-62690001D01*
X79018286Y-62618572D01*
X80375429Y-63904286D02*
X78875429Y-64404286D01*
X80375429Y-64904286D01*
D10*
X67695524Y-72588000D02*
X67600286Y-72540381D01*
X67457429Y-72540381D01*
X67314571Y-72588000D01*
X67219333Y-72683238D01*
X67171714Y-72778476D01*
X67124095Y-72968952D01*
X67124095Y-73111810D01*
X67171714Y-73302286D01*
X67219333Y-73397524D01*
X67314571Y-73492762D01*
X67457429Y-73540381D01*
X67552667Y-73540381D01*
X67695524Y-73492762D01*
X67743143Y-73445143D01*
X67743143Y-73111810D01*
X67552667Y-73111810D01*
X68171714Y-73540381D02*
X68171714Y-72540381D01*
X68743143Y-73540381D01*
X68743143Y-72540381D01*
X69219333Y-73540381D02*
X69219333Y-72540381D01*
X69457428Y-72540381D01*
X69600286Y-72588000D01*
X69695524Y-72683238D01*
X69743143Y-72778476D01*
X69790762Y-72968952D01*
X69790762Y-73111810D01*
X69743143Y-73302286D01*
X69695524Y-73397524D01*
X69600286Y-73492762D01*
X69457428Y-73540381D01*
X69219333Y-73540381D01*
X70171714Y-73254667D02*
X70647905Y-73254667D01*
X70076476Y-73540381D02*
X70409809Y-72540381D01*
X70743143Y-73540381D01*
X67044667Y-70000381D02*
X67378000Y-71000381D01*
X67711334Y-70000381D01*
X68616096Y-70905143D02*
X68568477Y-70952762D01*
X68425620Y-71000381D01*
X68330382Y-71000381D01*
X68187524Y-70952762D01*
X68092286Y-70857524D01*
X68044667Y-70762286D01*
X67997048Y-70571810D01*
X67997048Y-70428952D01*
X68044667Y-70238476D01*
X68092286Y-70143238D01*
X68187524Y-70048000D01*
X68330382Y-70000381D01*
X68425620Y-70000381D01*
X68568477Y-70048000D01*
X68616096Y-70095619D01*
X69616096Y-70905143D02*
X69568477Y-70952762D01*
X69425620Y-71000381D01*
X69330382Y-71000381D01*
X69187524Y-70952762D01*
X69092286Y-70857524D01*
X69044667Y-70762286D01*
X68997048Y-70571810D01*
X68997048Y-70428952D01*
X69044667Y-70238476D01*
X69092286Y-70143238D01*
X69187524Y-70048000D01*
X69330382Y-70000381D01*
X69425620Y-70000381D01*
X69568477Y-70048000D01*
X69616096Y-70095619D01*
X67068571Y-67825429D02*
X67830476Y-67825429D01*
X67449524Y-68206381D02*
X67449524Y-67444476D01*
X68640000Y-67682571D02*
X68782857Y-67730190D01*
X68830476Y-67777810D01*
X68878095Y-67873048D01*
X68878095Y-68015905D01*
X68830476Y-68111143D01*
X68782857Y-68158762D01*
X68687619Y-68206381D01*
X68306666Y-68206381D01*
X68306666Y-67206381D01*
X68640000Y-67206381D01*
X68735238Y-67254000D01*
X68782857Y-67301619D01*
X68830476Y-67396857D01*
X68830476Y-67492095D01*
X68782857Y-67587333D01*
X68735238Y-67634952D01*
X68640000Y-67682571D01*
X68306666Y-67682571D01*
X69259047Y-67920667D02*
X69735238Y-67920667D01*
X69163809Y-68206381D02*
X69497142Y-67206381D01*
X69830476Y-68206381D01*
X70020952Y-67206381D02*
X70592381Y-67206381D01*
X70306666Y-68206381D02*
X70306666Y-67206381D01*
X70782857Y-67206381D02*
X71354286Y-67206381D01*
X71068571Y-68206381D02*
X71068571Y-67206381D01*
D12*
X65576000Y-23470000D02*
X64576000Y-23470000D01*
X64576000Y-25170000D02*
X65576000Y-25170000D01*
X76244000Y-23978000D02*
X75244000Y-23978000D01*
X75244000Y-25678000D02*
X76244000Y-25678000D01*
X76244000Y-26518000D02*
X75244000Y-26518000D01*
X75244000Y-28218000D02*
X76244000Y-28218000D01*
X62799000Y-82470000D02*
X62799000Y-80470000D01*
X60749000Y-80470000D02*
X60749000Y-82470000D01*
X66108000Y-88337000D02*
X68108000Y-88337000D01*
X68108000Y-86287000D02*
X66108000Y-86287000D01*
X73038000Y-84764000D02*
X73038000Y-83764000D01*
X71338000Y-83764000D02*
X71338000Y-84764000D01*
X63078000Y-56696000D02*
X63078000Y-53096000D01*
X60978000Y-56696000D02*
X60978000Y-53096000D01*
X61728000Y-54646000D02*
X62328000Y-54646000D01*
X62328000Y-54646000D02*
X62028000Y-54946000D01*
X62028000Y-54946000D02*
X61828000Y-54746000D01*
X61828000Y-54746000D02*
X62078000Y-54746000D01*
X62078000Y-54746000D02*
X62028000Y-54796000D01*
X61528000Y-55046000D02*
X62528000Y-55046000D01*
X62028000Y-54546000D02*
X62028000Y-54046000D01*
X62028000Y-55046000D02*
X61528000Y-54546000D01*
X61528000Y-54546000D02*
X62528000Y-54546000D01*
X62528000Y-54546000D02*
X62028000Y-55046000D01*
X66126000Y-56696000D02*
X66126000Y-53096000D01*
X64026000Y-56696000D02*
X64026000Y-53096000D01*
X64776000Y-54646000D02*
X65376000Y-54646000D01*
X65376000Y-54646000D02*
X65076000Y-54946000D01*
X65076000Y-54946000D02*
X64876000Y-54746000D01*
X64876000Y-54746000D02*
X65126000Y-54746000D01*
X65126000Y-54746000D02*
X65076000Y-54796000D01*
X64576000Y-55046000D02*
X65576000Y-55046000D01*
X65076000Y-54546000D02*
X65076000Y-54046000D01*
X65076000Y-55046000D02*
X64576000Y-54546000D01*
X64576000Y-54546000D02*
X65576000Y-54546000D01*
X65576000Y-54546000D02*
X65076000Y-55046000D01*
X69529000Y-42599000D02*
X69529000Y-43869000D01*
X76879000Y-42599000D02*
X76879000Y-43869000D01*
X76879000Y-54809000D02*
X76879000Y-53539000D01*
X69529000Y-54809000D02*
X69529000Y-53539000D01*
X69529000Y-42599000D02*
X76879000Y-42599000D01*
X69529000Y-54809000D02*
X76879000Y-54809000D01*
X69529000Y-43869000D02*
X68594000Y-43869000D01*
X71966900Y-14406540D02*
X63266900Y-14406540D01*
X71966900Y-20811540D02*
X63266900Y-20811540D01*
X63266900Y-20811540D02*
X63266900Y-14406540D01*
X63266900Y-15636540D02*
X71966900Y-15636540D01*
X71966900Y-14406540D02*
X71966900Y-20811540D01*
X78870000Y-19340000D02*
X78870000Y-14260000D01*
X74425000Y-19340000D02*
X74425000Y-14260000D01*
X80775000Y-14260000D02*
X80775000Y-19340000D01*
X80775000Y-14260000D02*
X74425000Y-14260000D01*
X80775000Y-19340000D02*
X74425000Y-19340000D01*
X65076000Y-36258000D02*
X65076000Y-31178000D01*
X60631000Y-36258000D02*
X60631000Y-31178000D01*
X66981000Y-31178000D02*
X66981000Y-36258000D01*
X66981000Y-31178000D02*
X60631000Y-31178000D01*
X66981000Y-36258000D02*
X60631000Y-36258000D01*
X68602840Y-65102240D02*
X68651100Y-65102240D01*
X71401820Y-64401200D02*
X71401820Y-65102240D01*
X71401820Y-65102240D02*
X71152900Y-65102240D01*
X68602840Y-65102240D02*
X68402180Y-65102240D01*
X68402180Y-65102240D02*
X68402180Y-64401200D01*
X61153000Y-61242000D02*
X61153000Y-60042000D01*
X62903000Y-60042000D02*
X62903000Y-61242000D01*
X64201000Y-61242000D02*
X64201000Y-60042000D01*
X65951000Y-60042000D02*
X65951000Y-61242000D01*
X73063000Y-58518000D02*
X73063000Y-59718000D01*
X71313000Y-59718000D02*
X71313000Y-58518000D01*
X70523000Y-58518000D02*
X70523000Y-59718000D01*
X68773000Y-59718000D02*
X68773000Y-58518000D01*
X64400000Y-26125000D02*
X65600000Y-26125000D01*
X65600000Y-27875000D02*
X64400000Y-27875000D01*
X74100000Y-80875000D02*
X72900000Y-80875000D01*
X72900000Y-79125000D02*
X74100000Y-79125000D01*
X80500000Y-40500000D02*
X80500000Y-29500000D01*
X80500000Y-29500000D02*
X79500000Y-29500000D01*
X79500000Y-29500000D02*
X80500000Y-29500000D01*
X79500000Y-40500000D02*
X80500000Y-40500000D01*
X80500000Y-40500000D02*
X79500000Y-40500000D01*
X74500000Y-29500000D02*
X79500000Y-29500000D01*
X79500000Y-29500000D02*
X74500000Y-29500000D01*
X74500000Y-29500000D02*
X79500000Y-29500000D01*
X74500000Y-40500000D02*
X79500000Y-40500000D01*
X79500000Y-40500000D02*
X74500000Y-40500000D01*
X74500000Y-40500000D02*
X79500000Y-40500000D01*
X74500000Y-35000000D02*
X74500000Y-40500000D01*
X74500000Y-40500000D02*
X74500000Y-35000000D01*
X74500000Y-35000000D02*
X74500000Y-29500000D01*
X74500000Y-29500000D02*
X74500000Y-35000000D01*
X80500000Y-76500000D02*
X80500000Y-65500000D01*
X80500000Y-65500000D02*
X79500000Y-65500000D01*
X79500000Y-65500000D02*
X80500000Y-65500000D01*
X79500000Y-76500000D02*
X80500000Y-76500000D01*
X80500000Y-76500000D02*
X79500000Y-76500000D01*
X74500000Y-65500000D02*
X79500000Y-65500000D01*
X79500000Y-65500000D02*
X74500000Y-65500000D01*
X74500000Y-65500000D02*
X79500000Y-65500000D01*
X74500000Y-76500000D02*
X79500000Y-76500000D01*
X79500000Y-76500000D02*
X74500000Y-76500000D01*
X74500000Y-76500000D02*
X79500000Y-76500000D01*
X74500000Y-71000000D02*
X74500000Y-76500000D01*
X74500000Y-76500000D02*
X74500000Y-71000000D01*
X74500000Y-71000000D02*
X74500000Y-65500000D01*
X74500000Y-65500000D02*
X74500000Y-71000000D01*
X70205952Y-24915000D02*
G75*
G03X70205952Y-24915000I-100000J0D01*
G01*
X70655952Y-25165000D02*
X70155952Y-25165000D01*
X70655952Y-28065000D02*
X70655952Y-25165000D01*
X70155952Y-28065000D02*
X70655952Y-28065000D01*
X70155952Y-25165000D02*
X70155952Y-28065000D01*
X65325000Y-80825000D02*
X65325000Y-81075000D01*
X68675000Y-80825000D02*
X68675000Y-81075000D01*
X68675000Y-84175000D02*
X68675000Y-83925000D01*
X65325000Y-84175000D02*
X65325000Y-83925000D01*
X65325000Y-80825000D02*
X68675000Y-80825000D01*
X65325000Y-84175000D02*
X68675000Y-84175000D01*
X65325000Y-81075000D02*
X64075000Y-81075000D01*
X66675000Y-66690000D02*
X60325000Y-66690000D01*
X66675000Y-74310000D02*
X60325000Y-74310000D01*
X64770000Y-74310000D02*
X64770000Y-66690000D01*
X66675000Y-66690000D02*
X66675000Y-74310000D01*
X60325000Y-74310000D02*
X60325000Y-66690000D01*
X65556714Y-42608000D02*
G75*
G03X65556714Y-42608000I-1750714J0D01*
G01*
X60581000Y-39383000D02*
X60706000Y-39383000D01*
X67031000Y-39383000D02*
X66906000Y-39383000D01*
X67031000Y-45833000D02*
X66906000Y-45833000D01*
X60706000Y-45833000D02*
X60581000Y-45833000D01*
X62406000Y-39383000D02*
X65206000Y-39383000D01*
X60581000Y-45833000D02*
X60581000Y-39383000D01*
X62406000Y-45833000D02*
X65206000Y-45833000D01*
X67031000Y-45833000D02*
X67031000Y-39383000D01*
X61353334Y-24677143D02*
X61305715Y-24724762D01*
X61162858Y-24772381D01*
X61067620Y-24772381D01*
X60924762Y-24724762D01*
X60829524Y-24629524D01*
X60781905Y-24534286D01*
X60734286Y-24343810D01*
X60734286Y-24200952D01*
X60781905Y-24010476D01*
X60829524Y-23915238D01*
X60924762Y-23820000D01*
X61067620Y-23772381D01*
X61162858Y-23772381D01*
X61305715Y-23820000D01*
X61353334Y-23867619D01*
X62305715Y-24772381D02*
X61734286Y-24772381D01*
X62020000Y-24772381D02*
X62020000Y-23772381D01*
X61924762Y-23915238D01*
X61829524Y-24010476D01*
X61734286Y-24058095D01*
X79133334Y-23661143D02*
X79085715Y-23708762D01*
X78942858Y-23756381D01*
X78847620Y-23756381D01*
X78704762Y-23708762D01*
X78609524Y-23613524D01*
X78561905Y-23518286D01*
X78514286Y-23327810D01*
X78514286Y-23184952D01*
X78561905Y-22994476D01*
X78609524Y-22899238D01*
X78704762Y-22804000D01*
X78847620Y-22756381D01*
X78942858Y-22756381D01*
X79085715Y-22804000D01*
X79133334Y-22851619D01*
X79514286Y-22851619D02*
X79561905Y-22804000D01*
X79657143Y-22756381D01*
X79895239Y-22756381D01*
X79990477Y-22804000D01*
X80038096Y-22851619D01*
X80085715Y-22946857D01*
X80085715Y-23042095D01*
X80038096Y-23184952D01*
X79466667Y-23756381D01*
X80085715Y-23756381D01*
X79133334Y-25185143D02*
X79085715Y-25232762D01*
X78942858Y-25280381D01*
X78847620Y-25280381D01*
X78704762Y-25232762D01*
X78609524Y-25137524D01*
X78561905Y-25042286D01*
X78514286Y-24851810D01*
X78514286Y-24708952D01*
X78561905Y-24518476D01*
X78609524Y-24423238D01*
X78704762Y-24328000D01*
X78847620Y-24280381D01*
X78942858Y-24280381D01*
X79085715Y-24328000D01*
X79133334Y-24375619D01*
X79466667Y-24280381D02*
X80085715Y-24280381D01*
X79752381Y-24661333D01*
X79895239Y-24661333D01*
X79990477Y-24708952D01*
X80038096Y-24756571D01*
X80085715Y-24851810D01*
X80085715Y-25089905D01*
X80038096Y-25185143D01*
X79990477Y-25232762D01*
X79895239Y-25280381D01*
X79609524Y-25280381D01*
X79514286Y-25232762D01*
X79466667Y-25185143D01*
X64131143Y-79136666D02*
X64178762Y-79184285D01*
X64226381Y-79327142D01*
X64226381Y-79422380D01*
X64178762Y-79565238D01*
X64083524Y-79660476D01*
X63988286Y-79708095D01*
X63797810Y-79755714D01*
X63654952Y-79755714D01*
X63464476Y-79708095D01*
X63369238Y-79660476D01*
X63274000Y-79565238D01*
X63226381Y-79422380D01*
X63226381Y-79327142D01*
X63274000Y-79184285D01*
X63321619Y-79136666D01*
X63559714Y-78279523D02*
X64226381Y-78279523D01*
X63178762Y-78517619D02*
X63893048Y-78755714D01*
X63893048Y-78136666D01*
X62441334Y-87669143D02*
X62393715Y-87716762D01*
X62250858Y-87764381D01*
X62155620Y-87764381D01*
X62012762Y-87716762D01*
X61917524Y-87621524D01*
X61869905Y-87526286D01*
X61822286Y-87335810D01*
X61822286Y-87192952D01*
X61869905Y-87002476D01*
X61917524Y-86907238D01*
X62012762Y-86812000D01*
X62155620Y-86764381D01*
X62250858Y-86764381D01*
X62393715Y-86812000D01*
X62441334Y-86859619D01*
X63346096Y-86764381D02*
X62869905Y-86764381D01*
X62822286Y-87240571D01*
X62869905Y-87192952D01*
X62965143Y-87145333D01*
X63203239Y-87145333D01*
X63298477Y-87192952D01*
X63346096Y-87240571D01*
X63393715Y-87335810D01*
X63393715Y-87573905D01*
X63346096Y-87669143D01*
X63298477Y-87716762D01*
X63203239Y-87764381D01*
X62965143Y-87764381D01*
X62869905Y-87716762D01*
X62822286Y-87669143D01*
X72545143Y-87930666D02*
X72592762Y-87978285D01*
X72640381Y-88121142D01*
X72640381Y-88216380D01*
X72592762Y-88359238D01*
X72497524Y-88454476D01*
X72402286Y-88502095D01*
X72211810Y-88549714D01*
X72068952Y-88549714D01*
X71878476Y-88502095D01*
X71783238Y-88454476D01*
X71688000Y-88359238D01*
X71640381Y-88216380D01*
X71640381Y-88121142D01*
X71688000Y-87978285D01*
X71735619Y-87930666D01*
X71640381Y-87073523D02*
X71640381Y-87264000D01*
X71688000Y-87359238D01*
X71735619Y-87406857D01*
X71878476Y-87502095D01*
X72068952Y-87549714D01*
X72449905Y-87549714D01*
X72545143Y-87502095D01*
X72592762Y-87454476D01*
X72640381Y-87359238D01*
X72640381Y-87168761D01*
X72592762Y-87073523D01*
X72545143Y-87025904D01*
X72449905Y-86978285D01*
X72211810Y-86978285D01*
X72116571Y-87025904D01*
X72068952Y-87073523D01*
X72021333Y-87168761D01*
X72021333Y-87359238D01*
X72068952Y-87454476D01*
X72116571Y-87502095D01*
X72211810Y-87549714D01*
X61289905Y-51998381D02*
X61289905Y-50998381D01*
X61528000Y-50998381D01*
X61670858Y-51046000D01*
X61766096Y-51141238D01*
X61813715Y-51236476D01*
X61861334Y-51426952D01*
X61861334Y-51569810D01*
X61813715Y-51760286D01*
X61766096Y-51855524D01*
X61670858Y-51950762D01*
X61528000Y-51998381D01*
X61289905Y-51998381D01*
X62813715Y-51998381D02*
X62242286Y-51998381D01*
X62528000Y-51998381D02*
X62528000Y-50998381D01*
X62432762Y-51141238D01*
X62337524Y-51236476D01*
X62242286Y-51284095D01*
X64337905Y-51998381D02*
X64337905Y-50998381D01*
X64576000Y-50998381D01*
X64718858Y-51046000D01*
X64814096Y-51141238D01*
X64861715Y-51236476D01*
X64909334Y-51426952D01*
X64909334Y-51569810D01*
X64861715Y-51760286D01*
X64814096Y-51855524D01*
X64718858Y-51950762D01*
X64576000Y-51998381D01*
X64337905Y-51998381D01*
X65290286Y-51093619D02*
X65337905Y-51046000D01*
X65433143Y-50998381D01*
X65671239Y-50998381D01*
X65766477Y-51046000D01*
X65814096Y-51093619D01*
X65861715Y-51188857D01*
X65861715Y-51284095D01*
X65814096Y-51426952D01*
X65242667Y-51998381D01*
X65861715Y-51998381D01*
X72550429Y-54561381D02*
X72550429Y-53561381D01*
X73598048Y-54466143D02*
X73550429Y-54513762D01*
X73407572Y-54561381D01*
X73312334Y-54561381D01*
X73169476Y-54513762D01*
X73074238Y-54418524D01*
X73026619Y-54323286D01*
X72979000Y-54132810D01*
X72979000Y-53989952D01*
X73026619Y-53799476D01*
X73074238Y-53704238D01*
X73169476Y-53609000D01*
X73312334Y-53561381D01*
X73407572Y-53561381D01*
X73550429Y-53609000D01*
X73598048Y-53656619D01*
X74550429Y-54561381D02*
X73979000Y-54561381D01*
X74264714Y-54561381D02*
X74264714Y-53561381D01*
X74169476Y-53704238D01*
X74074238Y-53799476D01*
X73979000Y-53847095D01*
X66877905Y-17176381D02*
X66877905Y-16176381D01*
X67258858Y-16176381D01*
X67354096Y-16224000D01*
X67401715Y-16271619D01*
X67449334Y-16366857D01*
X67449334Y-16509714D01*
X67401715Y-16604952D01*
X67354096Y-16652571D01*
X67258858Y-16700190D01*
X66877905Y-16700190D01*
X68401715Y-17176381D02*
X67830286Y-17176381D01*
X68116000Y-17176381D02*
X68116000Y-16176381D01*
X68020762Y-16319238D01*
X67925524Y-16414476D01*
X67830286Y-16462095D01*
X66354095Y-21232381D02*
X66354095Y-22041905D01*
X66401714Y-22137143D01*
X66449333Y-22184762D01*
X66544571Y-22232381D01*
X66735048Y-22232381D01*
X66830286Y-22184762D01*
X66877905Y-22137143D01*
X66925524Y-22041905D01*
X66925524Y-21232381D01*
X67354095Y-22184762D02*
X67496952Y-22232381D01*
X67735048Y-22232381D01*
X67830286Y-22184762D01*
X67877905Y-22137143D01*
X67925524Y-22041905D01*
X67925524Y-21946667D01*
X67877905Y-21851429D01*
X67830286Y-21803810D01*
X67735048Y-21756190D01*
X67544571Y-21708571D01*
X67449333Y-21660952D01*
X67401714Y-21613333D01*
X67354095Y-21518095D01*
X67354095Y-21422857D01*
X67401714Y-21327619D01*
X67449333Y-21280000D01*
X67544571Y-21232381D01*
X67782667Y-21232381D01*
X67925524Y-21280000D01*
X68687429Y-21708571D02*
X68830286Y-21756190D01*
X68877905Y-21803810D01*
X68925524Y-21899048D01*
X68925524Y-22041905D01*
X68877905Y-22137143D01*
X68830286Y-22184762D01*
X68735048Y-22232381D01*
X68354095Y-22232381D01*
X68354095Y-21232381D01*
X68687429Y-21232381D01*
X68782667Y-21280000D01*
X68830286Y-21327619D01*
X68877905Y-21422857D01*
X68877905Y-21518095D01*
X68830286Y-21613333D01*
X68782667Y-21660952D01*
X68687429Y-21708571D01*
X68354095Y-21708571D01*
X75550381Y-17568095D02*
X74550381Y-17568095D01*
X74550381Y-17187142D01*
X74598000Y-17091904D01*
X74645619Y-17044285D01*
X74740857Y-16996666D01*
X74883714Y-16996666D01*
X74978952Y-17044285D01*
X75026571Y-17091904D01*
X75074190Y-17187142D01*
X75074190Y-17568095D01*
X74645619Y-16615714D02*
X74598000Y-16568095D01*
X74550381Y-16472857D01*
X74550381Y-16234761D01*
X74598000Y-16139523D01*
X74645619Y-16091904D01*
X74740857Y-16044285D01*
X74836095Y-16044285D01*
X74978952Y-16091904D01*
X75550381Y-16663333D01*
X75550381Y-16044285D01*
X76014285Y-20228571D02*
X76347619Y-20228571D01*
X76490476Y-20752381D02*
X76014285Y-20752381D01*
X76014285Y-19752381D01*
X76490476Y-19752381D01*
X76823809Y-20752381D02*
X77347619Y-20085714D01*
X76823809Y-20085714D02*
X77347619Y-20752381D01*
X77585714Y-20085714D02*
X77966666Y-20085714D01*
X77728571Y-19752381D02*
X77728571Y-20609524D01*
X77776190Y-20704762D01*
X77871428Y-20752381D01*
X77966666Y-20752381D01*
X79061905Y-20752381D02*
X79061905Y-19752381D01*
X79300000Y-19752381D01*
X79442858Y-19800000D01*
X79538096Y-19895238D01*
X79585715Y-19990476D01*
X79633334Y-20180952D01*
X79633334Y-20323810D01*
X79585715Y-20514286D01*
X79538096Y-20609524D01*
X79442858Y-20704762D01*
X79300000Y-20752381D01*
X79061905Y-20752381D01*
X80633334Y-20657143D02*
X80585715Y-20704762D01*
X80442858Y-20752381D01*
X80347620Y-20752381D01*
X80204762Y-20704762D01*
X80109524Y-20609524D01*
X80061905Y-20514286D01*
X80014286Y-20323810D01*
X80014286Y-20180952D01*
X80061905Y-19990476D01*
X80109524Y-19895238D01*
X80204762Y-19800000D01*
X80347620Y-19752381D01*
X80442858Y-19752381D01*
X80585715Y-19800000D01*
X80633334Y-19847619D01*
X66758381Y-34456095D02*
X65758381Y-34456095D01*
X65758381Y-34075142D01*
X65806000Y-33979904D01*
X65853619Y-33932285D01*
X65948857Y-33884666D01*
X66091714Y-33884666D01*
X66186952Y-33932285D01*
X66234571Y-33979904D01*
X66282190Y-34075142D01*
X66282190Y-34456095D01*
X66091714Y-33027523D02*
X66758381Y-33027523D01*
X65710762Y-33265619D02*
X66425048Y-33503714D01*
X66425048Y-32884666D01*
X61718571Y-29948571D02*
X61861428Y-29996190D01*
X61909047Y-30043810D01*
X61956666Y-30139048D01*
X61956666Y-30281905D01*
X61909047Y-30377143D01*
X61861428Y-30424762D01*
X61766190Y-30472381D01*
X61385237Y-30472381D01*
X61385237Y-29472381D01*
X61718571Y-29472381D01*
X61813809Y-29520000D01*
X61861428Y-29567619D01*
X61909047Y-29662857D01*
X61909047Y-29758095D01*
X61861428Y-29853333D01*
X61813809Y-29900952D01*
X61718571Y-29948571D01*
X61385237Y-29948571D01*
X62813809Y-30472381D02*
X62813809Y-29948571D01*
X62766190Y-29853333D01*
X62670952Y-29805714D01*
X62480475Y-29805714D01*
X62385237Y-29853333D01*
X62813809Y-30424762D02*
X62718571Y-30472381D01*
X62480475Y-30472381D01*
X62385237Y-30424762D01*
X62337618Y-30329524D01*
X62337618Y-30234286D01*
X62385237Y-30139048D01*
X62480475Y-30091429D01*
X62718571Y-30091429D01*
X62813809Y-30043810D01*
X63147142Y-29805714D02*
X63528094Y-29805714D01*
X63289999Y-29472381D02*
X63289999Y-30329524D01*
X63337618Y-30424762D01*
X63432856Y-30472381D01*
X63528094Y-30472381D01*
X63718571Y-29805714D02*
X64099523Y-29805714D01*
X63861428Y-29472381D02*
X63861428Y-30329524D01*
X63909047Y-30424762D01*
X64004285Y-30472381D01*
X64099523Y-30472381D01*
X64813810Y-30424762D02*
X64718572Y-30472381D01*
X64528095Y-30472381D01*
X64432857Y-30424762D01*
X64385238Y-30329524D01*
X64385238Y-29948571D01*
X64432857Y-29853333D01*
X64528095Y-29805714D01*
X64718572Y-29805714D01*
X64813810Y-29853333D01*
X64861429Y-29948571D01*
X64861429Y-30043810D01*
X64385238Y-30139048D01*
X65290000Y-30472381D02*
X65290000Y-29805714D01*
X65290000Y-29996190D02*
X65337619Y-29900952D01*
X65385238Y-29853333D01*
X65480476Y-29805714D01*
X65575715Y-29805714D01*
X65813810Y-29805714D02*
X66051905Y-30472381D01*
X66290001Y-29805714D02*
X66051905Y-30472381D01*
X65956667Y-30710476D01*
X65909048Y-30758095D01*
X65813810Y-30805714D01*
X72600762Y-64999619D02*
X72505524Y-64952000D01*
X72410286Y-64856762D01*
X72267429Y-64713905D01*
X72172190Y-64666286D01*
X72076952Y-64666286D01*
X72124571Y-64904381D02*
X72029333Y-64856762D01*
X71934095Y-64761524D01*
X71886476Y-64571048D01*
X71886476Y-64237714D01*
X71934095Y-64047238D01*
X72029333Y-63952000D01*
X72124571Y-63904381D01*
X72315048Y-63904381D01*
X72410286Y-63952000D01*
X72505524Y-64047238D01*
X72553143Y-64237714D01*
X72553143Y-64571048D01*
X72505524Y-64761524D01*
X72410286Y-64856762D01*
X72315048Y-64904381D01*
X72124571Y-64904381D01*
X73505524Y-64904381D02*
X72934095Y-64904381D01*
X73219809Y-64904381D02*
X73219809Y-63904381D01*
X73124571Y-64047238D01*
X73029333Y-64142476D01*
X72934095Y-64190095D01*
X62480381Y-64308666D02*
X62004190Y-64642000D01*
X62480381Y-64880095D02*
X61480381Y-64880095D01*
X61480381Y-64499142D01*
X61528000Y-64403904D01*
X61575619Y-64356285D01*
X61670857Y-64308666D01*
X61813714Y-64308666D01*
X61908952Y-64356285D01*
X61956571Y-64403904D01*
X62004190Y-64499142D01*
X62004190Y-64880095D01*
X62480381Y-63356285D02*
X62480381Y-63927714D01*
X62480381Y-63642000D02*
X61480381Y-63642000D01*
X61623238Y-63737238D01*
X61718476Y-63832476D01*
X61766095Y-63927714D01*
X65528381Y-64308666D02*
X65052190Y-64642000D01*
X65528381Y-64880095D02*
X64528381Y-64880095D01*
X64528381Y-64499142D01*
X64576000Y-64403904D01*
X64623619Y-64356285D01*
X64718857Y-64308666D01*
X64861714Y-64308666D01*
X64956952Y-64356285D01*
X65004571Y-64403904D01*
X65052190Y-64499142D01*
X65052190Y-64880095D01*
X64623619Y-63927714D02*
X64576000Y-63880095D01*
X64528381Y-63784857D01*
X64528381Y-63546761D01*
X64576000Y-63451523D01*
X64623619Y-63403904D01*
X64718857Y-63356285D01*
X64814095Y-63356285D01*
X64956952Y-63403904D01*
X65528381Y-63975333D01*
X65528381Y-63356285D01*
X74640381Y-57784666D02*
X74164190Y-58118000D01*
X74640381Y-58356095D02*
X73640381Y-58356095D01*
X73640381Y-57975142D01*
X73688000Y-57879904D01*
X73735619Y-57832285D01*
X73830857Y-57784666D01*
X73973714Y-57784666D01*
X74068952Y-57832285D01*
X74116571Y-57879904D01*
X74164190Y-57975142D01*
X74164190Y-58356095D01*
X73640381Y-57451333D02*
X73640381Y-56832285D01*
X74021333Y-57165619D01*
X74021333Y-57022761D01*
X74068952Y-56927523D01*
X74116571Y-56879904D01*
X74211810Y-56832285D01*
X74449905Y-56832285D01*
X74545143Y-56879904D01*
X74592762Y-56927523D01*
X74640381Y-57022761D01*
X74640381Y-57308476D01*
X74592762Y-57403714D01*
X74545143Y-57451333D01*
X68322381Y-60808666D02*
X67846190Y-61142000D01*
X68322381Y-61380095D02*
X67322381Y-61380095D01*
X67322381Y-60999142D01*
X67370000Y-60903904D01*
X67417619Y-60856285D01*
X67512857Y-60808666D01*
X67655714Y-60808666D01*
X67750952Y-60856285D01*
X67798571Y-60903904D01*
X67846190Y-60999142D01*
X67846190Y-61380095D01*
X67655714Y-59951523D02*
X68322381Y-59951523D01*
X67274762Y-60189619D02*
X67989048Y-60427714D01*
X67989048Y-59808666D01*
X61333334Y-27452381D02*
X61000000Y-26976190D01*
X60761905Y-27452381D02*
X60761905Y-26452381D01*
X61142858Y-26452381D01*
X61238096Y-26500000D01*
X61285715Y-26547619D01*
X61333334Y-26642857D01*
X61333334Y-26785714D01*
X61285715Y-26880952D01*
X61238096Y-26928571D01*
X61142858Y-26976190D01*
X60761905Y-26976190D01*
X62238096Y-26452381D02*
X61761905Y-26452381D01*
X61714286Y-26928571D01*
X61761905Y-26880952D01*
X61857143Y-26833333D01*
X62095239Y-26833333D01*
X62190477Y-26880952D01*
X62238096Y-26928571D01*
X62285715Y-27023810D01*
X62285715Y-27261905D01*
X62238096Y-27357143D01*
X62190477Y-27404762D01*
X62095239Y-27452381D01*
X61857143Y-27452381D01*
X61761905Y-27404762D01*
X61714286Y-27357143D01*
X71767334Y-78620381D02*
X71434000Y-78144190D01*
X71195905Y-78620381D02*
X71195905Y-77620381D01*
X71576858Y-77620381D01*
X71672096Y-77668000D01*
X71719715Y-77715619D01*
X71767334Y-77810857D01*
X71767334Y-77953714D01*
X71719715Y-78048952D01*
X71672096Y-78096571D01*
X71576858Y-78144190D01*
X71195905Y-78144190D01*
X72624477Y-77620381D02*
X72434000Y-77620381D01*
X72338762Y-77668000D01*
X72291143Y-77715619D01*
X72195905Y-77858476D01*
X72148286Y-78048952D01*
X72148286Y-78429905D01*
X72195905Y-78525143D01*
X72243524Y-78572762D01*
X72338762Y-78620381D01*
X72529239Y-78620381D01*
X72624477Y-78572762D01*
X72672096Y-78525143D01*
X72719715Y-78429905D01*
X72719715Y-78191810D01*
X72672096Y-78096571D01*
X72624477Y-78048952D01*
X72529239Y-78001333D01*
X72338762Y-78001333D01*
X72243524Y-78048952D01*
X72195905Y-78096571D01*
X72148286Y-78191810D01*
X76666667Y-39904762D02*
X76809524Y-39952381D01*
X77047620Y-39952381D01*
X77142858Y-39904762D01*
X77190477Y-39857143D01*
X77238096Y-39761905D01*
X77238096Y-39666667D01*
X77190477Y-39571429D01*
X77142858Y-39523810D01*
X77047620Y-39476190D01*
X76857143Y-39428571D01*
X76761905Y-39380952D01*
X76714286Y-39333333D01*
X76666667Y-39238095D01*
X76666667Y-39142857D01*
X76714286Y-39047619D01*
X76761905Y-39000000D01*
X76857143Y-38952381D01*
X77095239Y-38952381D01*
X77238096Y-39000000D01*
X77571429Y-38952381D02*
X77809524Y-39952381D01*
X78000001Y-39238095D01*
X78190477Y-39952381D01*
X78428572Y-38952381D01*
X78761905Y-39047619D02*
X78809524Y-39000000D01*
X78904762Y-38952381D01*
X79142858Y-38952381D01*
X79238096Y-39000000D01*
X79285715Y-39047619D01*
X79333334Y-39142857D01*
X79333334Y-39238095D01*
X79285715Y-39380952D01*
X78714286Y-39952381D01*
X79333334Y-39952381D01*
X77482381Y-37154667D02*
X77482381Y-36964190D01*
X77530000Y-36868952D01*
X77625238Y-36773714D01*
X77815714Y-36726095D01*
X78149048Y-36726095D01*
X78339524Y-36773714D01*
X78434762Y-36868952D01*
X78482381Y-36964190D01*
X78482381Y-37154667D01*
X78434762Y-37249905D01*
X78339524Y-37345143D01*
X78149048Y-37392762D01*
X77815714Y-37392762D01*
X77625238Y-37345143D01*
X77530000Y-37249905D01*
X77482381Y-37154667D01*
X77815714Y-36297524D02*
X78482381Y-36297524D01*
X77910952Y-36297524D02*
X77863333Y-36249905D01*
X77815714Y-36154667D01*
X77815714Y-36011809D01*
X77863333Y-35916571D01*
X77958571Y-35868952D01*
X78482381Y-35868952D01*
X77434762Y-34678476D02*
X78720476Y-35535619D01*
X77482381Y-34154667D02*
X77482381Y-33964190D01*
X77530000Y-33868952D01*
X77625238Y-33773714D01*
X77815714Y-33726095D01*
X78149048Y-33726095D01*
X78339524Y-33773714D01*
X78434762Y-33868952D01*
X78482381Y-33964190D01*
X78482381Y-34154667D01*
X78434762Y-34249905D01*
X78339524Y-34345143D01*
X78149048Y-34392762D01*
X77815714Y-34392762D01*
X77625238Y-34345143D01*
X77530000Y-34249905D01*
X77482381Y-34154667D01*
X77815714Y-33440381D02*
X77815714Y-33059429D01*
X78482381Y-33297524D02*
X77625238Y-33297524D01*
X77530000Y-33249905D01*
X77482381Y-33154667D01*
X77482381Y-33059429D01*
X77815714Y-32868952D02*
X77815714Y-32488000D01*
X78482381Y-32726095D02*
X77625238Y-32726095D01*
X77530000Y-32678476D01*
X77482381Y-32583238D01*
X77482381Y-32488000D01*
X79428571Y-36785714D02*
X79428571Y-37119048D01*
X79952381Y-37119048D02*
X78952381Y-37119048D01*
X78952381Y-36642857D01*
X79952381Y-35690476D02*
X79476190Y-36023810D01*
X79952381Y-36261905D02*
X78952381Y-36261905D01*
X78952381Y-35880952D01*
X79000000Y-35785714D01*
X79047619Y-35738095D01*
X79142857Y-35690476D01*
X79285714Y-35690476D01*
X79380952Y-35738095D01*
X79428571Y-35785714D01*
X79476190Y-35880952D01*
X79476190Y-36261905D01*
X78952381Y-35071429D02*
X78952381Y-34880952D01*
X79000000Y-34785714D01*
X79095238Y-34690476D01*
X79285714Y-34642857D01*
X79619048Y-34642857D01*
X79809524Y-34690476D01*
X79904762Y-34785714D01*
X79952381Y-34880952D01*
X79952381Y-35071429D01*
X79904762Y-35166667D01*
X79809524Y-35261905D01*
X79619048Y-35309524D01*
X79285714Y-35309524D01*
X79095238Y-35261905D01*
X79000000Y-35166667D01*
X78952381Y-35071429D01*
X79952381Y-34214286D02*
X78952381Y-34214286D01*
X79952381Y-33642857D01*
X78952381Y-33642857D01*
X78952381Y-33309524D02*
X78952381Y-32738095D01*
X79952381Y-33023810D02*
X78952381Y-33023810D01*
X75052381Y-32133333D02*
X75052381Y-31514285D01*
X75433333Y-31847619D01*
X75433333Y-31704761D01*
X75480952Y-31609523D01*
X75528571Y-31561904D01*
X75623810Y-31514285D01*
X75861905Y-31514285D01*
X75957143Y-31561904D01*
X76004762Y-31609523D01*
X76052381Y-31704761D01*
X76052381Y-31990476D01*
X76004762Y-32085714D01*
X75957143Y-32133333D01*
X75147619Y-35285714D02*
X75100000Y-35238095D01*
X75052381Y-35142857D01*
X75052381Y-34904761D01*
X75100000Y-34809523D01*
X75147619Y-34761904D01*
X75242857Y-34714285D01*
X75338095Y-34714285D01*
X75480952Y-34761904D01*
X76052381Y-35333333D01*
X76052381Y-34714285D01*
X76052381Y-37914285D02*
X76052381Y-38485714D01*
X76052381Y-38200000D02*
X75052381Y-38200000D01*
X75195238Y-38295238D01*
X75290476Y-38390476D01*
X75338095Y-38485714D01*
X76188667Y-76032762D02*
X76331524Y-76080381D01*
X76569620Y-76080381D01*
X76664858Y-76032762D01*
X76712477Y-75985143D01*
X76760096Y-75889905D01*
X76760096Y-75794667D01*
X76712477Y-75699429D01*
X76664858Y-75651810D01*
X76569620Y-75604190D01*
X76379143Y-75556571D01*
X76283905Y-75508952D01*
X76236286Y-75461333D01*
X76188667Y-75366095D01*
X76188667Y-75270857D01*
X76236286Y-75175619D01*
X76283905Y-75128000D01*
X76379143Y-75080381D01*
X76617239Y-75080381D01*
X76760096Y-75128000D01*
X77093429Y-75080381D02*
X77331524Y-76080381D01*
X77522001Y-75366095D01*
X77712477Y-76080381D01*
X77950572Y-75080381D01*
X78236286Y-75080381D02*
X78855334Y-75080381D01*
X78522000Y-75461333D01*
X78664858Y-75461333D01*
X78760096Y-75508952D01*
X78807715Y-75556571D01*
X78855334Y-75651810D01*
X78855334Y-75889905D01*
X78807715Y-75985143D01*
X78760096Y-76032762D01*
X78664858Y-76080381D01*
X78379143Y-76080381D01*
X78283905Y-76032762D01*
X78236286Y-75985143D01*
X77228381Y-73722667D02*
X78228381Y-73389334D01*
X77228381Y-73056000D01*
X78228381Y-72579810D02*
X78180762Y-72675048D01*
X78133143Y-72722667D01*
X78037905Y-72770286D01*
X77752190Y-72770286D01*
X77656952Y-72722667D01*
X77609333Y-72675048D01*
X77561714Y-72579810D01*
X77561714Y-72436952D01*
X77609333Y-72341714D01*
X77656952Y-72294095D01*
X77752190Y-72246476D01*
X78037905Y-72246476D01*
X78133143Y-72294095D01*
X78180762Y-72341714D01*
X78228381Y-72436952D01*
X78228381Y-72579810D01*
X78228381Y-71675048D02*
X78180762Y-71770286D01*
X78085524Y-71817905D01*
X77228381Y-71817905D01*
X77561714Y-71436952D02*
X77561714Y-71056000D01*
X77228381Y-71294095D02*
X78085524Y-71294095D01*
X78180762Y-71246476D01*
X78228381Y-71151238D01*
X78228381Y-71056000D01*
X78228381Y-70294094D02*
X77704571Y-70294094D01*
X77609333Y-70341713D01*
X77561714Y-70436951D01*
X77561714Y-70627428D01*
X77609333Y-70722666D01*
X78180762Y-70294094D02*
X78228381Y-70389332D01*
X78228381Y-70627428D01*
X78180762Y-70722666D01*
X78085524Y-70770285D01*
X77990286Y-70770285D01*
X77895048Y-70722666D01*
X77847429Y-70627428D01*
X77847429Y-70389332D01*
X77799810Y-70294094D01*
X77561714Y-69389332D02*
X78371238Y-69389332D01*
X78466476Y-69436951D01*
X78514095Y-69484570D01*
X78561714Y-69579809D01*
X78561714Y-69722666D01*
X78514095Y-69817904D01*
X78180762Y-69389332D02*
X78228381Y-69484570D01*
X78228381Y-69675047D01*
X78180762Y-69770285D01*
X78133143Y-69817904D01*
X78037905Y-69865523D01*
X77752190Y-69865523D01*
X77656952Y-69817904D01*
X77609333Y-69770285D01*
X77561714Y-69675047D01*
X77561714Y-69484570D01*
X77609333Y-69389332D01*
X78180762Y-68532189D02*
X78228381Y-68627427D01*
X78228381Y-68817904D01*
X78180762Y-68913142D01*
X78085524Y-68960761D01*
X77704571Y-68960761D01*
X77609333Y-68913142D01*
X77561714Y-68817904D01*
X77561714Y-68627427D01*
X77609333Y-68532189D01*
X77704571Y-68484570D01*
X77799810Y-68484570D01*
X77895048Y-68960761D01*
X79428571Y-72785714D02*
X79428571Y-73119048D01*
X79952381Y-73119048D02*
X78952381Y-73119048D01*
X78952381Y-72642857D01*
X79952381Y-71690476D02*
X79476190Y-72023810D01*
X79952381Y-72261905D02*
X78952381Y-72261905D01*
X78952381Y-71880952D01*
X79000000Y-71785714D01*
X79047619Y-71738095D01*
X79142857Y-71690476D01*
X79285714Y-71690476D01*
X79380952Y-71738095D01*
X79428571Y-71785714D01*
X79476190Y-71880952D01*
X79476190Y-72261905D01*
X78952381Y-71071429D02*
X78952381Y-70880952D01*
X79000000Y-70785714D01*
X79095238Y-70690476D01*
X79285714Y-70642857D01*
X79619048Y-70642857D01*
X79809524Y-70690476D01*
X79904762Y-70785714D01*
X79952381Y-70880952D01*
X79952381Y-71071429D01*
X79904762Y-71166667D01*
X79809524Y-71261905D01*
X79619048Y-71309524D01*
X79285714Y-71309524D01*
X79095238Y-71261905D01*
X79000000Y-71166667D01*
X78952381Y-71071429D01*
X79952381Y-70214286D02*
X78952381Y-70214286D01*
X79952381Y-69642857D01*
X78952381Y-69642857D01*
X78952381Y-69309524D02*
X78952381Y-68738095D01*
X79952381Y-69023810D02*
X78952381Y-69023810D01*
X75052381Y-68133333D02*
X75052381Y-67514285D01*
X75433333Y-67847619D01*
X75433333Y-67704761D01*
X75480952Y-67609523D01*
X75528571Y-67561904D01*
X75623810Y-67514285D01*
X75861905Y-67514285D01*
X75957143Y-67561904D01*
X76004762Y-67609523D01*
X76052381Y-67704761D01*
X76052381Y-67990476D01*
X76004762Y-68085714D01*
X75957143Y-68133333D01*
X75147619Y-71285714D02*
X75100000Y-71238095D01*
X75052381Y-71142857D01*
X75052381Y-70904761D01*
X75100000Y-70809523D01*
X75147619Y-70761904D01*
X75242857Y-70714285D01*
X75338095Y-70714285D01*
X75480952Y-70761904D01*
X76052381Y-71333333D01*
X76052381Y-70714285D01*
X76052381Y-73914285D02*
X76052381Y-74485714D01*
X76052381Y-74200000D02*
X75052381Y-74200000D01*
X75195238Y-74295238D01*
X75290476Y-74390476D01*
X75338095Y-74485714D01*
X69594047Y-23517381D02*
X69594047Y-24326905D01*
X69641666Y-24422143D01*
X69689285Y-24469762D01*
X69784523Y-24517381D01*
X69975000Y-24517381D01*
X70070238Y-24469762D01*
X70117857Y-24422143D01*
X70165476Y-24326905D01*
X70165476Y-23517381D01*
X71165476Y-24517381D02*
X70594047Y-24517381D01*
X70879761Y-24517381D02*
X70879761Y-23517381D01*
X70784523Y-23660238D01*
X70689285Y-23755476D01*
X70594047Y-23803095D01*
X66238095Y-79352381D02*
X66238095Y-80161905D01*
X66285714Y-80257143D01*
X66333333Y-80304762D01*
X66428571Y-80352381D01*
X66619048Y-80352381D01*
X66714286Y-80304762D01*
X66761905Y-80257143D01*
X66809524Y-80161905D01*
X66809524Y-79352381D01*
X67238095Y-79447619D02*
X67285714Y-79400000D01*
X67380952Y-79352381D01*
X67619048Y-79352381D01*
X67714286Y-79400000D01*
X67761905Y-79447619D01*
X67809524Y-79542857D01*
X67809524Y-79638095D01*
X67761905Y-79780952D01*
X67190476Y-80352381D01*
X67809524Y-80352381D01*
X77720381Y-59848095D02*
X76720381Y-59848095D01*
X76720381Y-59467142D01*
X76768000Y-59371904D01*
X76815619Y-59324285D01*
X76910857Y-59276666D01*
X77053714Y-59276666D01*
X77148952Y-59324285D01*
X77196571Y-59371904D01*
X77244190Y-59467142D01*
X77244190Y-59848095D01*
X77196571Y-58514761D02*
X77244190Y-58371904D01*
X77291810Y-58324285D01*
X77387048Y-58276666D01*
X77529905Y-58276666D01*
X77625143Y-58324285D01*
X77672762Y-58371904D01*
X77720381Y-58467142D01*
X77720381Y-58848095D01*
X76720381Y-58848095D01*
X76720381Y-58514761D01*
X76768000Y-58419523D01*
X76815619Y-58371904D01*
X76910857Y-58324285D01*
X77006095Y-58324285D01*
X77101333Y-58371904D01*
X77148952Y-58419523D01*
X77196571Y-58514761D01*
X77196571Y-58848095D01*
X77720381Y-57324285D02*
X77720381Y-57895714D01*
X77720381Y-57610000D02*
X76720381Y-57610000D01*
X76863238Y-57705238D01*
X76958476Y-57800476D01*
X77006095Y-57895714D01*
X66290381Y-71286095D02*
X65290381Y-71286095D01*
X65290381Y-70905142D01*
X65338000Y-70809904D01*
X65385619Y-70762285D01*
X65480857Y-70714666D01*
X65623714Y-70714666D01*
X65718952Y-70762285D01*
X65766571Y-70809904D01*
X65814190Y-70905142D01*
X65814190Y-71286095D01*
X65290381Y-70381333D02*
X65290381Y-69762285D01*
X65671333Y-70095619D01*
X65671333Y-69952761D01*
X65718952Y-69857523D01*
X65766571Y-69809904D01*
X65861810Y-69762285D01*
X66099905Y-69762285D01*
X66195143Y-69809904D01*
X66242762Y-69857523D01*
X66290381Y-69952761D01*
X66290381Y-70238476D01*
X66242762Y-70333714D01*
X66195143Y-70381333D01*
X61274190Y-74826381D02*
X61464667Y-74826381D01*
X61559905Y-74874000D01*
X61655143Y-74969238D01*
X61702762Y-75159714D01*
X61702762Y-75493048D01*
X61655143Y-75683524D01*
X61559905Y-75778762D01*
X61464667Y-75826381D01*
X61274190Y-75826381D01*
X61178952Y-75778762D01*
X61083714Y-75683524D01*
X61036095Y-75493048D01*
X61036095Y-75159714D01*
X61083714Y-74969238D01*
X61178952Y-74874000D01*
X61274190Y-74826381D01*
X62559905Y-75159714D02*
X62559905Y-75826381D01*
X62131333Y-75159714D02*
X62131333Y-75683524D01*
X62178952Y-75778762D01*
X62274190Y-75826381D01*
X62417048Y-75826381D01*
X62512286Y-75778762D01*
X62559905Y-75731143D01*
X62893238Y-75159714D02*
X63274190Y-75159714D01*
X63036095Y-74826381D02*
X63036095Y-75683524D01*
X63083714Y-75778762D01*
X63178952Y-75826381D01*
X63274190Y-75826381D01*
X63607524Y-75159714D02*
X63607524Y-76159714D01*
X63607524Y-75207333D02*
X63702762Y-75159714D01*
X63893239Y-75159714D01*
X63988477Y-75207333D01*
X64036096Y-75254952D01*
X64083715Y-75350190D01*
X64083715Y-75635905D01*
X64036096Y-75731143D01*
X63988477Y-75778762D01*
X63893239Y-75826381D01*
X63702762Y-75826381D01*
X63607524Y-75778762D01*
X64940858Y-75159714D02*
X64940858Y-75826381D01*
X64512286Y-75159714D02*
X64512286Y-75683524D01*
X64559905Y-75778762D01*
X64655143Y-75826381D01*
X64798001Y-75826381D01*
X64893239Y-75778762D01*
X64940858Y-75731143D01*
X65274191Y-75159714D02*
X65655143Y-75159714D01*
X65417048Y-74826381D02*
X65417048Y-75683524D01*
X65464667Y-75778762D01*
X65559905Y-75826381D01*
X65655143Y-75826381D01*
X64104762Y-43933333D02*
X64152381Y-43790476D01*
X64152381Y-43552380D01*
X64104762Y-43457142D01*
X64057143Y-43409523D01*
X63961905Y-43361904D01*
X63866667Y-43361904D01*
X63771429Y-43409523D01*
X63723810Y-43457142D01*
X63676190Y-43552380D01*
X63628571Y-43742857D01*
X63580952Y-43838095D01*
X63533333Y-43885714D01*
X63438095Y-43933333D01*
X63342857Y-43933333D01*
X63247619Y-43885714D01*
X63200000Y-43838095D01*
X63152381Y-43742857D01*
X63152381Y-43504761D01*
X63200000Y-43361904D01*
X63152381Y-43028571D02*
X64152381Y-42790476D01*
X63438095Y-42599999D01*
X64152381Y-42409523D01*
X63152381Y-42171428D01*
X64152381Y-41266666D02*
X64152381Y-41838095D01*
X64152381Y-41552381D02*
X63152381Y-41552381D01*
X63295238Y-41647619D01*
X63390476Y-41742857D01*
X63438095Y-41838095D01*
X62567905Y-49060381D02*
X62234571Y-48584190D01*
X61996476Y-49060381D02*
X61996476Y-48060381D01*
X62377429Y-48060381D01*
X62472667Y-48108000D01*
X62520286Y-48155619D01*
X62567905Y-48250857D01*
X62567905Y-48393714D01*
X62520286Y-48488952D01*
X62472667Y-48536571D01*
X62377429Y-48584190D01*
X61996476Y-48584190D01*
X63377429Y-49012762D02*
X63282191Y-49060381D01*
X63091714Y-49060381D01*
X62996476Y-49012762D01*
X62948857Y-48917524D01*
X62948857Y-48536571D01*
X62996476Y-48441333D01*
X63091714Y-48393714D01*
X63282191Y-48393714D01*
X63377429Y-48441333D01*
X63425048Y-48536571D01*
X63425048Y-48631810D01*
X62948857Y-48727048D01*
X63806000Y-49012762D02*
X63901238Y-49060381D01*
X64091714Y-49060381D01*
X64186953Y-49012762D01*
X64234572Y-48917524D01*
X64234572Y-48869905D01*
X64186953Y-48774667D01*
X64091714Y-48727048D01*
X63948857Y-48727048D01*
X63853619Y-48679429D01*
X63806000Y-48584190D01*
X63806000Y-48536571D01*
X63853619Y-48441333D01*
X63948857Y-48393714D01*
X64091714Y-48393714D01*
X64186953Y-48441333D01*
X65044096Y-49012762D02*
X64948858Y-49060381D01*
X64758381Y-49060381D01*
X64663143Y-49012762D01*
X64615524Y-48917524D01*
X64615524Y-48536571D01*
X64663143Y-48441333D01*
X64758381Y-48393714D01*
X64948858Y-48393714D01*
X65044096Y-48441333D01*
X65091715Y-48536571D01*
X65091715Y-48631810D01*
X64615524Y-48727048D01*
X65377429Y-48393714D02*
X65758381Y-48393714D01*
X65520286Y-48060381D02*
X65520286Y-48917524D01*
X65567905Y-49012762D01*
X65663143Y-49060381D01*
X65758381Y-49060381D01*
%LPC*%
D13*
X63826000Y-24320000D03*
X66326000Y-24320000D03*
X74494000Y-24828000D03*
X76994000Y-24828000D03*
X74494000Y-27368000D03*
X76994000Y-27368000D03*
D14*
X61774000Y-79470000D03*
X61774000Y-83470000D03*
D15*
X69108000Y-87312000D03*
X65108000Y-87312000D03*
D16*
X72188000Y-83014000D03*
X72188000Y-85514000D03*
D17*
X62028000Y-53126140D03*
X62028000Y-55965860D03*
X65076000Y-53126140D03*
X65076000Y-55965860D03*
D18*
X69394000Y-44894000D03*
X69394000Y-47434000D03*
X69394000Y-49974000D03*
X69394000Y-52514000D03*
X77014000Y-52514000D03*
X77014000Y-49974000D03*
X77014000Y-47434000D03*
X77014000Y-44894000D03*
D19*
X68916900Y-19786540D03*
X68266900Y-19786540D03*
X67616900Y-19786540D03*
X66966900Y-19786540D03*
X66316900Y-19786540D03*
D20*
X70116900Y-19786540D03*
X65116900Y-19786540D03*
D21*
X71116900Y-17086540D03*
X64116900Y-17086540D03*
D22*
X77600000Y-15530000D03*
X77600000Y-18070000D03*
X63806000Y-32448000D03*
X63806000Y-34988000D03*
D23*
X70852000Y-63451240D03*
X68952000Y-63451240D03*
X69902000Y-65450220D03*
D24*
X62028000Y-59292000D03*
X62028000Y-61992000D03*
X65076000Y-59292000D03*
X65076000Y-61992000D03*
X72188000Y-60468000D03*
X72188000Y-57768000D03*
X69648000Y-60468000D03*
X69648000Y-57768000D03*
D25*
X66350000Y-27000000D03*
X63650000Y-27000000D03*
X72150000Y-80000000D03*
X74850000Y-80000000D03*
D26*
X73000000Y-38200000D03*
X73000000Y-35000000D03*
X73000000Y-31800000D03*
X73000000Y-74200000D03*
X73000000Y-71000000D03*
X73000000Y-67800000D03*
D27*
X69305952Y-25665000D03*
X69305952Y-26615000D03*
X69305952Y-27565000D03*
X71505952Y-27565000D03*
X71505952Y-25665000D03*
D28*
X64800000Y-81525000D03*
X64800000Y-82175000D03*
X64800000Y-82825000D03*
X64800000Y-83475000D03*
X69200000Y-83475000D03*
X69200000Y-82825000D03*
X69200000Y-82175000D03*
X69200000Y-81525000D03*
D29*
X77268000Y-56324000D03*
D22*
X63500000Y-67960000D03*
X63500000Y-70500000D03*
X63500000Y-73040000D03*
D30*
X66056000Y-46583000D03*
X61556000Y-46583000D03*
X61556000Y-38633000D03*
X66056000Y-38633000D03*
M02*
