G04 #@! TF.FileFunction,Legend,Bot*
%FSLAX46Y46*%
G04 Gerber Fmt 4.6, Leading zero omitted, Abs format (unit mm)*
G04 Created by KiCad (PCBNEW 4.0.1-stable) date Torsdag 21 Januari 2016 22:06:45*
%MOMM*%
G01*
G04 APERTURE LIST*
%ADD10C,0.100000*%
%ADD11C,0.300000*%
%ADD12O,1.752400X1.752400*%
%ADD13O,1.402400X1.102400*%
%ADD14O,1.152400X1.702400*%
%ADD15O,3.167380X1.658620*%
%ADD16C,1.852400*%
G04 APERTURE END LIST*
D10*
D11*
X78342857Y-87788286D02*
X78271429Y-87574000D01*
X78271429Y-87216857D01*
X78342857Y-87074000D01*
X78414286Y-87002571D01*
X78557143Y-86931143D01*
X78700000Y-86931143D01*
X78842857Y-87002571D01*
X78914286Y-87074000D01*
X78985714Y-87216857D01*
X79057143Y-87502571D01*
X79128571Y-87645429D01*
X79200000Y-87716857D01*
X79342857Y-87788286D01*
X79485714Y-87788286D01*
X79628571Y-87716857D01*
X79700000Y-87645429D01*
X79771429Y-87502571D01*
X79771429Y-87145429D01*
X79700000Y-86931143D01*
X78271429Y-86288286D02*
X79271429Y-86288286D01*
X79128571Y-86288286D02*
X79200000Y-86216858D01*
X79271429Y-86074000D01*
X79271429Y-85859715D01*
X79200000Y-85716858D01*
X79057143Y-85645429D01*
X78271429Y-85645429D01*
X79057143Y-85645429D02*
X79200000Y-85574000D01*
X79271429Y-85431143D01*
X79271429Y-85216858D01*
X79200000Y-85074000D01*
X79057143Y-85002572D01*
X78271429Y-85002572D01*
X78271429Y-83645429D02*
X79057143Y-83645429D01*
X79200000Y-83716858D01*
X79271429Y-83859715D01*
X79271429Y-84145429D01*
X79200000Y-84288286D01*
X78342857Y-83645429D02*
X78271429Y-83788286D01*
X78271429Y-84145429D01*
X78342857Y-84288286D01*
X78485714Y-84359715D01*
X78628571Y-84359715D01*
X78771429Y-84288286D01*
X78842857Y-84145429D01*
X78842857Y-83788286D01*
X78914286Y-83645429D01*
X78271429Y-82931143D02*
X79271429Y-82931143D01*
X78985714Y-82931143D02*
X79128571Y-82859715D01*
X79200000Y-82788286D01*
X79271429Y-82645429D01*
X79271429Y-82502572D01*
X79271429Y-82216858D02*
X79271429Y-81645429D01*
X79771429Y-82002572D02*
X78485714Y-82002572D01*
X78342857Y-81931144D01*
X78271429Y-81788286D01*
X78271429Y-81645429D01*
X78271429Y-80002572D02*
X79771429Y-80002572D01*
X79771429Y-79431144D01*
X79700000Y-79288286D01*
X79628571Y-79216858D01*
X79485714Y-79145429D01*
X79271429Y-79145429D01*
X79128571Y-79216858D01*
X79057143Y-79288286D01*
X78985714Y-79431144D01*
X78985714Y-80002572D01*
X78342857Y-78574001D02*
X78271429Y-78359715D01*
X78271429Y-78002572D01*
X78342857Y-77859715D01*
X78414286Y-77788286D01*
X78557143Y-77716858D01*
X78700000Y-77716858D01*
X78842857Y-77788286D01*
X78914286Y-77859715D01*
X78985714Y-78002572D01*
X79057143Y-78288286D01*
X79128571Y-78431144D01*
X79200000Y-78502572D01*
X79342857Y-78574001D01*
X79485714Y-78574001D01*
X79628571Y-78502572D01*
X79700000Y-78431144D01*
X79771429Y-78288286D01*
X79771429Y-77931144D01*
X79700000Y-77716858D01*
X79771429Y-77074001D02*
X78557143Y-77074001D01*
X78414286Y-77002573D01*
X78342857Y-76931144D01*
X78271429Y-76788287D01*
X78271429Y-76502573D01*
X78342857Y-76359715D01*
X78414286Y-76288287D01*
X78557143Y-76216858D01*
X79771429Y-76216858D01*
X79271429Y-74502572D02*
X78271429Y-74145429D01*
X79271429Y-73788287D01*
X79771429Y-72931144D02*
X79771429Y-72788287D01*
X79700000Y-72645430D01*
X79628571Y-72574001D01*
X79485714Y-72502572D01*
X79200000Y-72431144D01*
X78842857Y-72431144D01*
X78557143Y-72502572D01*
X78414286Y-72574001D01*
X78342857Y-72645430D01*
X78271429Y-72788287D01*
X78271429Y-72931144D01*
X78342857Y-73074001D01*
X78414286Y-73145430D01*
X78557143Y-73216858D01*
X78842857Y-73288287D01*
X79200000Y-73288287D01*
X79485714Y-73216858D01*
X79628571Y-73145430D01*
X79700000Y-73074001D01*
X79771429Y-72931144D01*
X78414286Y-71788287D02*
X78342857Y-71716859D01*
X78271429Y-71788287D01*
X78342857Y-71859716D01*
X78414286Y-71788287D01*
X78271429Y-71788287D01*
X78271429Y-70288287D02*
X78271429Y-71145430D01*
X78271429Y-70716858D02*
X79771429Y-70716858D01*
X79557143Y-70859715D01*
X79414286Y-71002573D01*
X79342857Y-71145430D01*
X78271429Y-68502573D02*
X79771429Y-68502573D01*
X79200000Y-68502573D02*
X79271429Y-68359716D01*
X79271429Y-68074002D01*
X79200000Y-67931145D01*
X79128571Y-67859716D01*
X78985714Y-67788287D01*
X78557143Y-67788287D01*
X78414286Y-67859716D01*
X78342857Y-67931145D01*
X78271429Y-68074002D01*
X78271429Y-68359716D01*
X78342857Y-68502573D01*
X79271429Y-67288287D02*
X78271429Y-66931144D01*
X79271429Y-66574002D02*
X78271429Y-66931144D01*
X77914286Y-67074002D01*
X77842857Y-67145430D01*
X77771429Y-67288287D01*
X78985714Y-63931145D02*
X79057143Y-64002573D01*
X79128571Y-64145430D01*
X79128571Y-64288288D01*
X79057143Y-64431145D01*
X78985714Y-64502573D01*
X78842857Y-64574002D01*
X78700000Y-64574002D01*
X78557143Y-64502573D01*
X78485714Y-64431145D01*
X78414286Y-64288288D01*
X78414286Y-64145430D01*
X78485714Y-64002573D01*
X78557143Y-63931145D01*
X79128571Y-63931145D02*
X78557143Y-63931145D01*
X78485714Y-63859716D01*
X78485714Y-63788288D01*
X78557143Y-63645430D01*
X78700000Y-63574002D01*
X79057143Y-63574002D01*
X79271429Y-63716859D01*
X79414286Y-63931145D01*
X79485714Y-64216859D01*
X79414286Y-64502573D01*
X79271429Y-64716859D01*
X79057143Y-64859716D01*
X78771429Y-64931145D01*
X78485714Y-64859716D01*
X78271429Y-64716859D01*
X78128571Y-64502573D01*
X78057143Y-64216859D01*
X78128571Y-63931145D01*
X78271429Y-63716859D01*
X78271429Y-62931145D02*
X79271429Y-62931145D01*
X79128571Y-62931145D02*
X79200000Y-62859717D01*
X79271429Y-62716859D01*
X79271429Y-62502574D01*
X79200000Y-62359717D01*
X79057143Y-62288288D01*
X78271429Y-62288288D01*
X79057143Y-62288288D02*
X79200000Y-62216859D01*
X79271429Y-62074002D01*
X79271429Y-61859717D01*
X79200000Y-61716859D01*
X79057143Y-61645431D01*
X78271429Y-61645431D01*
X78271429Y-60931145D02*
X79271429Y-60931145D01*
X79771429Y-60931145D02*
X79700000Y-61002574D01*
X79628571Y-60931145D01*
X79700000Y-60859717D01*
X79771429Y-60931145D01*
X79628571Y-60931145D01*
X78271429Y-60216859D02*
X79771429Y-60216859D01*
X78842857Y-60074002D02*
X78271429Y-59645431D01*
X79271429Y-59645431D02*
X78700000Y-60216859D01*
X79271429Y-58359716D02*
X78271429Y-58359716D01*
X79842857Y-58716859D02*
X78771429Y-59074002D01*
X78771429Y-58145430D01*
X78342857Y-57002574D02*
X78271429Y-57145431D01*
X78271429Y-57431145D01*
X78342857Y-57574002D01*
X78485714Y-57645431D01*
X79057143Y-57645431D01*
X79200000Y-57574002D01*
X79271429Y-57431145D01*
X79271429Y-57145431D01*
X79200000Y-57002574D01*
X79057143Y-56931145D01*
X78914286Y-56931145D01*
X78771429Y-57645431D01*
X78271429Y-56074002D02*
X78342857Y-56216860D01*
X78485714Y-56288288D01*
X79771429Y-56288288D01*
X79271429Y-54859717D02*
X78271429Y-54859717D01*
X79842857Y-55216860D02*
X78771429Y-55574003D01*
X78771429Y-54645431D01*
X79271429Y-54074003D02*
X78271429Y-54074003D01*
X79128571Y-54074003D02*
X79200000Y-54002575D01*
X79271429Y-53859717D01*
X79271429Y-53645432D01*
X79200000Y-53502575D01*
X79057143Y-53431146D01*
X78271429Y-53431146D01*
X78271429Y-52074003D02*
X79771429Y-52074003D01*
X78342857Y-52074003D02*
X78271429Y-52216860D01*
X78271429Y-52502574D01*
X78342857Y-52645432D01*
X78414286Y-52716860D01*
X78557143Y-52788289D01*
X78985714Y-52788289D01*
X79128571Y-52716860D01*
X79200000Y-52645432D01*
X79271429Y-52502574D01*
X79271429Y-52216860D01*
X79200000Y-52074003D01*
X78342857Y-50788289D02*
X78271429Y-50931146D01*
X78271429Y-51216860D01*
X78342857Y-51359717D01*
X78485714Y-51431146D01*
X79057143Y-51431146D01*
X79200000Y-51359717D01*
X79271429Y-51216860D01*
X79271429Y-50931146D01*
X79200000Y-50788289D01*
X79057143Y-50716860D01*
X78914286Y-50716860D01*
X78771429Y-51431146D01*
X78271429Y-50074003D02*
X79271429Y-50074003D01*
X78985714Y-50074003D02*
X79128571Y-50002575D01*
X79200000Y-49931146D01*
X79271429Y-49788289D01*
X79271429Y-49645432D01*
X78342857Y-49216861D02*
X78271429Y-49074004D01*
X78271429Y-48788289D01*
X78342857Y-48645432D01*
X78485714Y-48574004D01*
X78557143Y-48574004D01*
X78700000Y-48645432D01*
X78771429Y-48788289D01*
X78771429Y-49002575D01*
X78842857Y-49145432D01*
X78985714Y-49216861D01*
X79057143Y-49216861D01*
X79200000Y-49145432D01*
X79271429Y-49002575D01*
X79271429Y-48788289D01*
X79200000Y-48645432D01*
X78342857Y-48002575D02*
X78271429Y-47859718D01*
X78271429Y-47574003D01*
X78342857Y-47431146D01*
X78485714Y-47359718D01*
X78557143Y-47359718D01*
X78700000Y-47431146D01*
X78771429Y-47574003D01*
X78771429Y-47788289D01*
X78842857Y-47931146D01*
X78985714Y-48002575D01*
X79057143Y-48002575D01*
X79200000Y-47931146D01*
X79271429Y-47788289D01*
X79271429Y-47574003D01*
X79200000Y-47431146D01*
X78271429Y-46502574D02*
X78342857Y-46645432D01*
X78414286Y-46716860D01*
X78557143Y-46788289D01*
X78985714Y-46788289D01*
X79128571Y-46716860D01*
X79200000Y-46645432D01*
X79271429Y-46502574D01*
X79271429Y-46288289D01*
X79200000Y-46145432D01*
X79128571Y-46074003D01*
X78985714Y-46002574D01*
X78557143Y-46002574D01*
X78414286Y-46074003D01*
X78342857Y-46145432D01*
X78271429Y-46288289D01*
X78271429Y-46502574D01*
X79271429Y-45359717D02*
X78271429Y-45359717D01*
X79128571Y-45359717D02*
X79200000Y-45288289D01*
X79271429Y-45145431D01*
X79271429Y-44931146D01*
X79200000Y-44788289D01*
X79057143Y-44716860D01*
X78271429Y-44716860D01*
X79628571Y-42931146D02*
X79700000Y-42859717D01*
X79771429Y-42716860D01*
X79771429Y-42359717D01*
X79700000Y-42216860D01*
X79628571Y-42145431D01*
X79485714Y-42074003D01*
X79342857Y-42074003D01*
X79128571Y-42145431D01*
X78271429Y-43002574D01*
X78271429Y-42074003D01*
X79771429Y-41145432D02*
X79771429Y-41002575D01*
X79700000Y-40859718D01*
X79628571Y-40788289D01*
X79485714Y-40716860D01*
X79200000Y-40645432D01*
X78842857Y-40645432D01*
X78557143Y-40716860D01*
X78414286Y-40788289D01*
X78342857Y-40859718D01*
X78271429Y-41002575D01*
X78271429Y-41145432D01*
X78342857Y-41288289D01*
X78414286Y-41359718D01*
X78557143Y-41431146D01*
X78842857Y-41502575D01*
X79200000Y-41502575D01*
X79485714Y-41431146D01*
X79628571Y-41359718D01*
X79700000Y-41288289D01*
X79771429Y-41145432D01*
X78271429Y-39216861D02*
X78271429Y-40074004D01*
X78271429Y-39645432D02*
X79771429Y-39645432D01*
X79557143Y-39788289D01*
X79414286Y-39931147D01*
X79342857Y-40074004D01*
X79771429Y-37931147D02*
X79771429Y-38216861D01*
X79700000Y-38359718D01*
X79628571Y-38431147D01*
X79414286Y-38574004D01*
X79128571Y-38645433D01*
X78557143Y-38645433D01*
X78414286Y-38574004D01*
X78342857Y-38502576D01*
X78271429Y-38359718D01*
X78271429Y-38074004D01*
X78342857Y-37931147D01*
X78414286Y-37859718D01*
X78557143Y-37788290D01*
X78914286Y-37788290D01*
X79057143Y-37859718D01*
X79128571Y-37931147D01*
X79200000Y-38074004D01*
X79200000Y-38359718D01*
X79128571Y-38502576D01*
X79057143Y-38574004D01*
X78914286Y-38645433D01*
X75942857Y-87788286D02*
X75871429Y-87574000D01*
X75871429Y-87216857D01*
X75942857Y-87074000D01*
X76014286Y-87002571D01*
X76157143Y-86931143D01*
X76300000Y-86931143D01*
X76442857Y-87002571D01*
X76514286Y-87074000D01*
X76585714Y-87216857D01*
X76657143Y-87502571D01*
X76728571Y-87645429D01*
X76800000Y-87716857D01*
X76942857Y-87788286D01*
X77085714Y-87788286D01*
X77228571Y-87716857D01*
X77300000Y-87645429D01*
X77371429Y-87502571D01*
X77371429Y-87145429D01*
X77300000Y-86931143D01*
X75942857Y-85716858D02*
X75871429Y-85859715D01*
X75871429Y-86145429D01*
X75942857Y-86288286D01*
X76085714Y-86359715D01*
X76657143Y-86359715D01*
X76800000Y-86288286D01*
X76871429Y-86145429D01*
X76871429Y-85859715D01*
X76800000Y-85716858D01*
X76657143Y-85645429D01*
X76514286Y-85645429D01*
X76371429Y-86359715D01*
X75871429Y-84788286D02*
X75942857Y-84931144D01*
X76085714Y-85002572D01*
X77371429Y-85002572D01*
X75942857Y-83645430D02*
X75871429Y-83788287D01*
X75871429Y-84074001D01*
X75942857Y-84216858D01*
X76085714Y-84288287D01*
X76657143Y-84288287D01*
X76800000Y-84216858D01*
X76871429Y-84074001D01*
X76871429Y-83788287D01*
X76800000Y-83645430D01*
X76657143Y-83574001D01*
X76514286Y-83574001D01*
X76371429Y-84288287D01*
X75942857Y-82288287D02*
X75871429Y-82431144D01*
X75871429Y-82716858D01*
X75942857Y-82859716D01*
X76014286Y-82931144D01*
X76157143Y-83002573D01*
X76585714Y-83002573D01*
X76728571Y-82931144D01*
X76800000Y-82859716D01*
X76871429Y-82716858D01*
X76871429Y-82431144D01*
X76800000Y-82288287D01*
X76871429Y-81859716D02*
X76871429Y-81288287D01*
X77371429Y-81645430D02*
X76085714Y-81645430D01*
X75942857Y-81574002D01*
X75871429Y-81431144D01*
X75871429Y-81288287D01*
X75871429Y-80145430D02*
X76657143Y-80145430D01*
X76800000Y-80216859D01*
X76871429Y-80359716D01*
X76871429Y-80645430D01*
X76800000Y-80788287D01*
X75942857Y-80145430D02*
X75871429Y-80288287D01*
X75871429Y-80645430D01*
X75942857Y-80788287D01*
X76085714Y-80859716D01*
X76228571Y-80859716D01*
X76371429Y-80788287D01*
X76442857Y-80645430D01*
X76442857Y-80288287D01*
X76514286Y-80145430D01*
X75871429Y-79431144D02*
X77371429Y-79431144D01*
X76800000Y-79431144D02*
X76871429Y-79288287D01*
X76871429Y-79002573D01*
X76800000Y-78859716D01*
X76728571Y-78788287D01*
X76585714Y-78716858D01*
X76157143Y-78716858D01*
X76014286Y-78788287D01*
X75942857Y-78859716D01*
X75871429Y-79002573D01*
X75871429Y-79288287D01*
X75942857Y-79431144D01*
X75871429Y-77859715D02*
X75942857Y-78002573D01*
X76085714Y-78074001D01*
X77371429Y-78074001D01*
X75942857Y-76716859D02*
X75871429Y-76859716D01*
X75871429Y-77145430D01*
X75942857Y-77288287D01*
X76085714Y-77359716D01*
X76657143Y-77359716D01*
X76800000Y-77288287D01*
X76871429Y-77145430D01*
X76871429Y-76859716D01*
X76800000Y-76716859D01*
X76657143Y-76645430D01*
X76514286Y-76645430D01*
X76371429Y-77359716D01*
X77371429Y-74145430D02*
X77371429Y-74859716D01*
X76657143Y-74931145D01*
X76728571Y-74859716D01*
X76800000Y-74716859D01*
X76800000Y-74359716D01*
X76728571Y-74216859D01*
X76657143Y-74145430D01*
X76514286Y-74074002D01*
X76157143Y-74074002D01*
X76014286Y-74145430D01*
X75942857Y-74216859D01*
X75871429Y-74359716D01*
X75871429Y-74716859D01*
X75942857Y-74859716D01*
X76014286Y-74931145D01*
X76871429Y-73574002D02*
X75871429Y-73216859D01*
X76871429Y-72859717D01*
X75871429Y-70931145D02*
X75942857Y-71074003D01*
X76014286Y-71145431D01*
X76157143Y-71216860D01*
X76585714Y-71216860D01*
X76728571Y-71145431D01*
X76800000Y-71074003D01*
X76871429Y-70931145D01*
X76871429Y-70716860D01*
X76800000Y-70574003D01*
X76728571Y-70502574D01*
X76585714Y-70431145D01*
X76157143Y-70431145D01*
X76014286Y-70502574D01*
X75942857Y-70574003D01*
X75871429Y-70716860D01*
X75871429Y-70931145D01*
X75871429Y-69788288D02*
X76871429Y-69788288D01*
X76585714Y-69788288D02*
X76728571Y-69716860D01*
X76800000Y-69645431D01*
X76871429Y-69502574D01*
X76871429Y-69359717D01*
X77371429Y-67859717D02*
X77371429Y-66931146D01*
X76800000Y-67431146D01*
X76800000Y-67216860D01*
X76728571Y-67074003D01*
X76657143Y-67002574D01*
X76514286Y-66931146D01*
X76157143Y-66931146D01*
X76014286Y-67002574D01*
X75942857Y-67074003D01*
X75871429Y-67216860D01*
X75871429Y-67645432D01*
X75942857Y-67788289D01*
X76014286Y-67859717D01*
X76014286Y-66288289D02*
X75942857Y-66216861D01*
X75871429Y-66288289D01*
X75942857Y-66359718D01*
X76014286Y-66288289D01*
X75871429Y-66288289D01*
X77371429Y-65716860D02*
X77371429Y-64788289D01*
X76800000Y-65288289D01*
X76800000Y-65074003D01*
X76728571Y-64931146D01*
X76657143Y-64859717D01*
X76514286Y-64788289D01*
X76157143Y-64788289D01*
X76014286Y-64859717D01*
X75942857Y-64931146D01*
X75871429Y-65074003D01*
X75871429Y-65502575D01*
X75942857Y-65645432D01*
X76014286Y-65716860D01*
X76871429Y-64288289D02*
X75871429Y-63931146D01*
X76871429Y-63574004D01*
X75871429Y-61645432D02*
X75942857Y-61788290D01*
X76014286Y-61859718D01*
X76157143Y-61931147D01*
X76585714Y-61931147D01*
X76728571Y-61859718D01*
X76800000Y-61788290D01*
X76871429Y-61645432D01*
X76871429Y-61431147D01*
X76800000Y-61288290D01*
X76728571Y-61216861D01*
X76585714Y-61145432D01*
X76157143Y-61145432D01*
X76014286Y-61216861D01*
X75942857Y-61288290D01*
X75871429Y-61431147D01*
X75871429Y-61645432D01*
X76871429Y-59859718D02*
X75871429Y-59859718D01*
X76871429Y-60502575D02*
X76085714Y-60502575D01*
X75942857Y-60431147D01*
X75871429Y-60288289D01*
X75871429Y-60074004D01*
X75942857Y-59931147D01*
X76014286Y-59859718D01*
X76871429Y-59359718D02*
X76871429Y-58788289D01*
X77371429Y-59145432D02*
X76085714Y-59145432D01*
X75942857Y-59074004D01*
X75871429Y-58931146D01*
X75871429Y-58788289D01*
X76871429Y-58288289D02*
X75371429Y-58288289D01*
X76800000Y-58288289D02*
X76871429Y-58145432D01*
X76871429Y-57859718D01*
X76800000Y-57716861D01*
X76728571Y-57645432D01*
X76585714Y-57574003D01*
X76157143Y-57574003D01*
X76014286Y-57645432D01*
X75942857Y-57716861D01*
X75871429Y-57859718D01*
X75871429Y-58145432D01*
X75942857Y-58288289D01*
X76871429Y-56288289D02*
X75871429Y-56288289D01*
X76871429Y-56931146D02*
X76085714Y-56931146D01*
X75942857Y-56859718D01*
X75871429Y-56716860D01*
X75871429Y-56502575D01*
X75942857Y-56359718D01*
X76014286Y-56288289D01*
X76871429Y-55788289D02*
X76871429Y-55216860D01*
X77371429Y-55574003D02*
X76085714Y-55574003D01*
X75942857Y-55502575D01*
X75871429Y-55359717D01*
X75871429Y-55216860D01*
X74971429Y-87716857D02*
X73757143Y-87716857D01*
X73614286Y-87645429D01*
X73542857Y-87574000D01*
X73471429Y-87431143D01*
X73471429Y-87145429D01*
X73542857Y-87002571D01*
X73614286Y-86931143D01*
X73757143Y-86859714D01*
X74971429Y-86859714D01*
X73542857Y-86216857D02*
X73471429Y-86002571D01*
X73471429Y-85645428D01*
X73542857Y-85502571D01*
X73614286Y-85431142D01*
X73757143Y-85359714D01*
X73900000Y-85359714D01*
X74042857Y-85431142D01*
X74114286Y-85502571D01*
X74185714Y-85645428D01*
X74257143Y-85931142D01*
X74328571Y-86074000D01*
X74400000Y-86145428D01*
X74542857Y-86216857D01*
X74685714Y-86216857D01*
X74828571Y-86145428D01*
X74900000Y-86074000D01*
X74971429Y-85931142D01*
X74971429Y-85574000D01*
X74900000Y-85359714D01*
X74257143Y-84216857D02*
X74185714Y-84002571D01*
X74114286Y-83931143D01*
X73971429Y-83859714D01*
X73757143Y-83859714D01*
X73614286Y-83931143D01*
X73542857Y-84002571D01*
X73471429Y-84145429D01*
X73471429Y-84716857D01*
X74971429Y-84716857D01*
X74971429Y-84216857D01*
X74900000Y-84074000D01*
X74828571Y-84002571D01*
X74685714Y-83931143D01*
X74542857Y-83931143D01*
X74400000Y-84002571D01*
X74328571Y-84074000D01*
X74257143Y-84216857D01*
X74257143Y-84716857D01*
X73471429Y-81431143D02*
X74257143Y-81431143D01*
X74400000Y-81502572D01*
X74471429Y-81645429D01*
X74471429Y-81931143D01*
X74400000Y-82074000D01*
X73542857Y-81431143D02*
X73471429Y-81574000D01*
X73471429Y-81931143D01*
X73542857Y-82074000D01*
X73685714Y-82145429D01*
X73828571Y-82145429D01*
X73971429Y-82074000D01*
X74042857Y-81931143D01*
X74042857Y-81574000D01*
X74114286Y-81431143D01*
X74471429Y-80716857D02*
X73471429Y-80716857D01*
X74328571Y-80716857D02*
X74400000Y-80645429D01*
X74471429Y-80502571D01*
X74471429Y-80288286D01*
X74400000Y-80145429D01*
X74257143Y-80074000D01*
X73471429Y-80074000D01*
X73471429Y-78716857D02*
X74971429Y-78716857D01*
X73542857Y-78716857D02*
X73471429Y-78859714D01*
X73471429Y-79145428D01*
X73542857Y-79288286D01*
X73614286Y-79359714D01*
X73757143Y-79431143D01*
X74185714Y-79431143D01*
X74328571Y-79359714D01*
X74400000Y-79288286D01*
X74471429Y-79145428D01*
X74471429Y-78859714D01*
X74400000Y-78716857D01*
X73542857Y-76288286D02*
X73471429Y-76431143D01*
X73471429Y-76716857D01*
X73542857Y-76859714D01*
X73685714Y-76931143D01*
X74257143Y-76931143D01*
X74400000Y-76859714D01*
X74471429Y-76716857D01*
X74471429Y-76431143D01*
X74400000Y-76288286D01*
X74257143Y-76216857D01*
X74114286Y-76216857D01*
X73971429Y-76931143D01*
X73471429Y-75716857D02*
X74471429Y-74931143D01*
X74471429Y-75716857D02*
X73471429Y-74931143D01*
X74471429Y-74574000D02*
X74471429Y-74002571D01*
X74971429Y-74359714D02*
X73685714Y-74359714D01*
X73542857Y-74288286D01*
X73471429Y-74145428D01*
X73471429Y-74002571D01*
X73542857Y-72931143D02*
X73471429Y-73074000D01*
X73471429Y-73359714D01*
X73542857Y-73502571D01*
X73685714Y-73574000D01*
X74257143Y-73574000D01*
X74400000Y-73502571D01*
X74471429Y-73359714D01*
X74471429Y-73074000D01*
X74400000Y-72931143D01*
X74257143Y-72859714D01*
X74114286Y-72859714D01*
X73971429Y-73574000D01*
X73471429Y-72216857D02*
X74471429Y-72216857D01*
X74185714Y-72216857D02*
X74328571Y-72145429D01*
X74400000Y-72074000D01*
X74471429Y-71931143D01*
X74471429Y-71788286D01*
X74471429Y-71288286D02*
X73471429Y-71288286D01*
X74328571Y-71288286D02*
X74400000Y-71216858D01*
X74471429Y-71074000D01*
X74471429Y-70859715D01*
X74400000Y-70716858D01*
X74257143Y-70645429D01*
X73471429Y-70645429D01*
X73471429Y-69288286D02*
X74257143Y-69288286D01*
X74400000Y-69359715D01*
X74471429Y-69502572D01*
X74471429Y-69788286D01*
X74400000Y-69931143D01*
X73542857Y-69288286D02*
X73471429Y-69431143D01*
X73471429Y-69788286D01*
X73542857Y-69931143D01*
X73685714Y-70002572D01*
X73828571Y-70002572D01*
X73971429Y-69931143D01*
X74042857Y-69788286D01*
X74042857Y-69431143D01*
X74114286Y-69288286D01*
X73471429Y-68359714D02*
X73542857Y-68502572D01*
X73685714Y-68574000D01*
X74971429Y-68574000D01*
X73542857Y-66002572D02*
X73471429Y-66145429D01*
X73471429Y-66431143D01*
X73542857Y-66574001D01*
X73614286Y-66645429D01*
X73757143Y-66716858D01*
X74185714Y-66716858D01*
X74328571Y-66645429D01*
X74400000Y-66574001D01*
X74471429Y-66431143D01*
X74471429Y-66145429D01*
X74400000Y-66002572D01*
X73471429Y-65359715D02*
X74971429Y-65359715D01*
X73471429Y-64716858D02*
X74257143Y-64716858D01*
X74400000Y-64788287D01*
X74471429Y-64931144D01*
X74471429Y-65145429D01*
X74400000Y-65288287D01*
X74328571Y-65359715D01*
X73471429Y-63359715D02*
X74257143Y-63359715D01*
X74400000Y-63431144D01*
X74471429Y-63574001D01*
X74471429Y-63859715D01*
X74400000Y-64002572D01*
X73542857Y-63359715D02*
X73471429Y-63502572D01*
X73471429Y-63859715D01*
X73542857Y-64002572D01*
X73685714Y-64074001D01*
X73828571Y-64074001D01*
X73971429Y-64002572D01*
X74042857Y-63859715D01*
X74042857Y-63502572D01*
X74114286Y-63359715D01*
X73471429Y-62645429D02*
X74471429Y-62645429D01*
X74185714Y-62645429D02*
X74328571Y-62574001D01*
X74400000Y-62502572D01*
X74471429Y-62359715D01*
X74471429Y-62216858D01*
X74471429Y-61074001D02*
X73257143Y-61074001D01*
X73114286Y-61145430D01*
X73042857Y-61216858D01*
X72971429Y-61359715D01*
X72971429Y-61574001D01*
X73042857Y-61716858D01*
X73542857Y-61074001D02*
X73471429Y-61216858D01*
X73471429Y-61502572D01*
X73542857Y-61645430D01*
X73614286Y-61716858D01*
X73757143Y-61788287D01*
X74185714Y-61788287D01*
X74328571Y-61716858D01*
X74400000Y-61645430D01*
X74471429Y-61502572D01*
X74471429Y-61216858D01*
X74400000Y-61074001D01*
X73471429Y-60359715D02*
X74471429Y-60359715D01*
X74971429Y-60359715D02*
X74900000Y-60431144D01*
X74828571Y-60359715D01*
X74900000Y-60288287D01*
X74971429Y-60359715D01*
X74828571Y-60359715D01*
X74471429Y-59645429D02*
X73471429Y-59645429D01*
X74328571Y-59645429D02*
X74400000Y-59574001D01*
X74471429Y-59431143D01*
X74471429Y-59216858D01*
X74400000Y-59074001D01*
X74257143Y-59002572D01*
X73471429Y-59002572D01*
X74471429Y-57645429D02*
X73257143Y-57645429D01*
X73114286Y-57716858D01*
X73042857Y-57788286D01*
X72971429Y-57931143D01*
X72971429Y-58145429D01*
X73042857Y-58288286D01*
X73542857Y-57645429D02*
X73471429Y-57788286D01*
X73471429Y-58074000D01*
X73542857Y-58216858D01*
X73614286Y-58288286D01*
X73757143Y-58359715D01*
X74185714Y-58359715D01*
X74328571Y-58288286D01*
X74400000Y-58216858D01*
X74471429Y-58074000D01*
X74471429Y-57788286D01*
X74400000Y-57645429D01*
X73471429Y-55574000D02*
X73542857Y-55716858D01*
X73614286Y-55788286D01*
X73757143Y-55859715D01*
X74185714Y-55859715D01*
X74328571Y-55788286D01*
X74400000Y-55716858D01*
X74471429Y-55574000D01*
X74471429Y-55359715D01*
X74400000Y-55216858D01*
X74328571Y-55145429D01*
X74185714Y-55074000D01*
X73757143Y-55074000D01*
X73614286Y-55145429D01*
X73542857Y-55216858D01*
X73471429Y-55359715D01*
X73471429Y-55574000D01*
X74471429Y-54645429D02*
X74471429Y-54074000D01*
X73471429Y-54431143D02*
X74757143Y-54431143D01*
X74900000Y-54359715D01*
X74971429Y-54216857D01*
X74971429Y-54074000D01*
X73471429Y-51645429D02*
X73471429Y-52502572D01*
X73471429Y-52074000D02*
X74971429Y-52074000D01*
X74757143Y-52216857D01*
X74614286Y-52359715D01*
X74542857Y-52502572D01*
X73542857Y-51074001D02*
X73471429Y-50859715D01*
X73471429Y-50502572D01*
X73542857Y-50359715D01*
X73614286Y-50288286D01*
X73757143Y-50216858D01*
X73900000Y-50216858D01*
X74042857Y-50288286D01*
X74114286Y-50359715D01*
X74185714Y-50502572D01*
X74257143Y-50788286D01*
X74328571Y-50931144D01*
X74400000Y-51002572D01*
X74542857Y-51074001D01*
X74685714Y-51074001D01*
X74828571Y-51002572D01*
X74900000Y-50931144D01*
X74971429Y-50788286D01*
X74971429Y-50431144D01*
X74900000Y-50216858D01*
X73471429Y-47716858D02*
X73471429Y-48431144D01*
X74971429Y-48431144D01*
X73471429Y-47216858D02*
X74471429Y-47216858D01*
X74971429Y-47216858D02*
X74900000Y-47288287D01*
X74828571Y-47216858D01*
X74900000Y-47145430D01*
X74971429Y-47216858D01*
X74828571Y-47216858D01*
X74042857Y-46502572D02*
X74042857Y-45359715D01*
X73471429Y-44645429D02*
X74471429Y-44645429D01*
X74971429Y-44645429D02*
X74900000Y-44716858D01*
X74828571Y-44645429D01*
X74900000Y-44574001D01*
X74971429Y-44645429D01*
X74828571Y-44645429D01*
X73471429Y-43716857D02*
X73542857Y-43859715D01*
X73614286Y-43931143D01*
X73757143Y-44002572D01*
X74185714Y-44002572D01*
X74328571Y-43931143D01*
X74400000Y-43859715D01*
X74471429Y-43716857D01*
X74471429Y-43502572D01*
X74400000Y-43359715D01*
X74328571Y-43288286D01*
X74185714Y-43216857D01*
X73757143Y-43216857D01*
X73614286Y-43288286D01*
X73542857Y-43359715D01*
X73471429Y-43502572D01*
X73471429Y-43716857D01*
X74471429Y-42574000D02*
X73471429Y-42574000D01*
X74328571Y-42574000D02*
X74400000Y-42502572D01*
X74471429Y-42359714D01*
X74471429Y-42145429D01*
X74400000Y-42002572D01*
X74257143Y-41931143D01*
X73471429Y-41931143D01*
X73471429Y-40074000D02*
X74971429Y-40074000D01*
X74400000Y-40074000D02*
X74471429Y-39931143D01*
X74471429Y-39645429D01*
X74400000Y-39502572D01*
X74328571Y-39431143D01*
X74185714Y-39359714D01*
X73757143Y-39359714D01*
X73614286Y-39431143D01*
X73542857Y-39502572D01*
X73471429Y-39645429D01*
X73471429Y-39931143D01*
X73542857Y-40074000D01*
X73471429Y-38074000D02*
X74257143Y-38074000D01*
X74400000Y-38145429D01*
X74471429Y-38288286D01*
X74471429Y-38574000D01*
X74400000Y-38716857D01*
X73542857Y-38074000D02*
X73471429Y-38216857D01*
X73471429Y-38574000D01*
X73542857Y-38716857D01*
X73685714Y-38788286D01*
X73828571Y-38788286D01*
X73971429Y-38716857D01*
X74042857Y-38574000D01*
X74042857Y-38216857D01*
X74114286Y-38074000D01*
X74471429Y-37574000D02*
X74471429Y-37002571D01*
X74971429Y-37359714D02*
X73685714Y-37359714D01*
X73542857Y-37288286D01*
X73471429Y-37145428D01*
X73471429Y-37002571D01*
X74471429Y-36716857D02*
X74471429Y-36145428D01*
X74971429Y-36502571D02*
X73685714Y-36502571D01*
X73542857Y-36431143D01*
X73471429Y-36288285D01*
X73471429Y-36145428D01*
X73542857Y-35074000D02*
X73471429Y-35216857D01*
X73471429Y-35502571D01*
X73542857Y-35645428D01*
X73685714Y-35716857D01*
X74257143Y-35716857D01*
X74400000Y-35645428D01*
X74471429Y-35502571D01*
X74471429Y-35216857D01*
X74400000Y-35074000D01*
X74257143Y-35002571D01*
X74114286Y-35002571D01*
X73971429Y-35716857D01*
X73471429Y-34359714D02*
X74471429Y-34359714D01*
X74185714Y-34359714D02*
X74328571Y-34288286D01*
X74400000Y-34216857D01*
X74471429Y-34074000D01*
X74471429Y-33931143D01*
X74471429Y-33574000D02*
X73471429Y-33216857D01*
X74471429Y-32859715D02*
X73471429Y-33216857D01*
X73114286Y-33359715D01*
X73042857Y-33431143D01*
X72971429Y-33574000D01*
X71500000Y-87788286D02*
X71500000Y-87074000D01*
X71071429Y-87931143D02*
X72571429Y-87431143D01*
X71071429Y-86931143D01*
X72071429Y-86645429D02*
X72071429Y-86074000D01*
X72571429Y-86431143D02*
X71285714Y-86431143D01*
X71142857Y-86359715D01*
X71071429Y-86216857D01*
X71071429Y-86074000D01*
X72071429Y-85788286D02*
X72071429Y-85216857D01*
X72571429Y-85574000D02*
X71285714Y-85574000D01*
X71142857Y-85502572D01*
X71071429Y-85359714D01*
X71071429Y-85216857D01*
X71071429Y-84716857D02*
X72071429Y-84716857D01*
X72571429Y-84716857D02*
X72500000Y-84788286D01*
X72428571Y-84716857D01*
X72500000Y-84645429D01*
X72571429Y-84716857D01*
X72428571Y-84716857D01*
X72071429Y-84002571D02*
X71071429Y-84002571D01*
X71928571Y-84002571D02*
X72000000Y-83931143D01*
X72071429Y-83788285D01*
X72071429Y-83574000D01*
X72000000Y-83431143D01*
X71857143Y-83359714D01*
X71071429Y-83359714D01*
X72071429Y-82788285D02*
X71071429Y-82431142D01*
X72071429Y-82074000D02*
X71071429Y-82431142D01*
X70714286Y-82574000D01*
X70642857Y-82645428D01*
X70571429Y-82788285D01*
X71928571Y-81288285D02*
X72000000Y-81431143D01*
X72071429Y-81502571D01*
X72214286Y-81574000D01*
X72285714Y-81574000D01*
X72428571Y-81502571D01*
X72500000Y-81431143D01*
X72571429Y-81288285D01*
X72571429Y-81002571D01*
X72500000Y-80859714D01*
X72428571Y-80788285D01*
X72285714Y-80716857D01*
X72214286Y-80716857D01*
X72071429Y-80788285D01*
X72000000Y-80859714D01*
X71928571Y-81002571D01*
X71928571Y-81288285D01*
X71857143Y-81431143D01*
X71785714Y-81502571D01*
X71642857Y-81574000D01*
X71357143Y-81574000D01*
X71214286Y-81502571D01*
X71142857Y-81431143D01*
X71071429Y-81288285D01*
X71071429Y-81002571D01*
X71142857Y-80859714D01*
X71214286Y-80788285D01*
X71357143Y-80716857D01*
X71642857Y-80716857D01*
X71785714Y-80788285D01*
X71857143Y-80859714D01*
X71928571Y-81002571D01*
X72571429Y-79359714D02*
X72571429Y-80074000D01*
X71857143Y-80145429D01*
X71928571Y-80074000D01*
X72000000Y-79931143D01*
X72000000Y-79574000D01*
X71928571Y-79431143D01*
X71857143Y-79359714D01*
X71714286Y-79288286D01*
X71357143Y-79288286D01*
X71214286Y-79359714D01*
X71142857Y-79431143D01*
X71071429Y-79574000D01*
X71071429Y-79931143D01*
X71142857Y-80074000D01*
X71214286Y-80145429D01*
X71142857Y-76931144D02*
X71071429Y-77074001D01*
X71071429Y-77359715D01*
X71142857Y-77502572D01*
X71285714Y-77574001D01*
X71857143Y-77574001D01*
X72000000Y-77502572D01*
X72071429Y-77359715D01*
X72071429Y-77074001D01*
X72000000Y-76931144D01*
X71857143Y-76859715D01*
X71714286Y-76859715D01*
X71571429Y-77574001D01*
X72071429Y-76216858D02*
X71071429Y-76216858D01*
X71928571Y-76216858D02*
X72000000Y-76145430D01*
X72071429Y-76002572D01*
X72071429Y-75788287D01*
X72000000Y-75645430D01*
X71857143Y-75574001D01*
X71071429Y-75574001D01*
X71071429Y-74216858D02*
X71857143Y-74216858D01*
X72000000Y-74288287D01*
X72071429Y-74431144D01*
X72071429Y-74716858D01*
X72000000Y-74859715D01*
X71142857Y-74216858D02*
X71071429Y-74359715D01*
X71071429Y-74716858D01*
X71142857Y-74859715D01*
X71285714Y-74931144D01*
X71428571Y-74931144D01*
X71571429Y-74859715D01*
X71642857Y-74716858D01*
X71642857Y-74359715D01*
X71714286Y-74216858D01*
X71071429Y-73502572D02*
X72571429Y-73502572D01*
X72000000Y-73502572D02*
X72071429Y-73359715D01*
X72071429Y-73074001D01*
X72000000Y-72931144D01*
X71928571Y-72859715D01*
X71785714Y-72788286D01*
X71357143Y-72788286D01*
X71214286Y-72859715D01*
X71142857Y-72931144D01*
X71071429Y-73074001D01*
X71071429Y-73359715D01*
X71142857Y-73502572D01*
X71071429Y-71931143D02*
X71142857Y-72074001D01*
X71285714Y-72145429D01*
X72571429Y-72145429D01*
X71071429Y-71359715D02*
X72071429Y-71359715D01*
X72571429Y-71359715D02*
X72500000Y-71431144D01*
X72428571Y-71359715D01*
X72500000Y-71288287D01*
X72571429Y-71359715D01*
X72428571Y-71359715D01*
X72071429Y-70645429D02*
X71071429Y-70645429D01*
X71928571Y-70645429D02*
X72000000Y-70574001D01*
X72071429Y-70431143D01*
X72071429Y-70216858D01*
X72000000Y-70074001D01*
X71857143Y-70002572D01*
X71071429Y-70002572D01*
X72071429Y-68645429D02*
X70857143Y-68645429D01*
X70714286Y-68716858D01*
X70642857Y-68788286D01*
X70571429Y-68931143D01*
X70571429Y-69145429D01*
X70642857Y-69288286D01*
X71142857Y-68645429D02*
X71071429Y-68788286D01*
X71071429Y-69074000D01*
X71142857Y-69216858D01*
X71214286Y-69288286D01*
X71357143Y-69359715D01*
X71785714Y-69359715D01*
X71928571Y-69288286D01*
X72000000Y-69216858D01*
X72071429Y-69074000D01*
X72071429Y-68788286D01*
X72000000Y-68645429D01*
X71142857Y-66859715D02*
X71071429Y-66716858D01*
X71071429Y-66431143D01*
X71142857Y-66288286D01*
X71285714Y-66216858D01*
X71357143Y-66216858D01*
X71500000Y-66288286D01*
X71571429Y-66431143D01*
X71571429Y-66645429D01*
X71642857Y-66788286D01*
X71785714Y-66859715D01*
X71857143Y-66859715D01*
X72000000Y-66788286D01*
X72071429Y-66645429D01*
X72071429Y-66431143D01*
X72000000Y-66288286D01*
X71071429Y-65574000D02*
X72071429Y-65574000D01*
X71928571Y-65574000D02*
X72000000Y-65502572D01*
X72071429Y-65359714D01*
X72071429Y-65145429D01*
X72000000Y-65002572D01*
X71857143Y-64931143D01*
X71071429Y-64931143D01*
X71857143Y-64931143D02*
X72000000Y-64859714D01*
X72071429Y-64716857D01*
X72071429Y-64502572D01*
X72000000Y-64359714D01*
X71857143Y-64288286D01*
X71071429Y-64288286D01*
X71071429Y-62931143D02*
X71857143Y-62931143D01*
X72000000Y-63002572D01*
X72071429Y-63145429D01*
X72071429Y-63431143D01*
X72000000Y-63574000D01*
X71142857Y-62931143D02*
X71071429Y-63074000D01*
X71071429Y-63431143D01*
X71142857Y-63574000D01*
X71285714Y-63645429D01*
X71428571Y-63645429D01*
X71571429Y-63574000D01*
X71642857Y-63431143D01*
X71642857Y-63074000D01*
X71714286Y-62931143D01*
X71071429Y-62216857D02*
X72071429Y-62216857D01*
X71785714Y-62216857D02*
X71928571Y-62145429D01*
X72000000Y-62074000D01*
X72071429Y-61931143D01*
X72071429Y-61788286D01*
X72071429Y-61502572D02*
X72071429Y-60931143D01*
X72571429Y-61288286D02*
X71285714Y-61288286D01*
X71142857Y-61216858D01*
X71071429Y-61074000D01*
X71071429Y-60931143D01*
X71142857Y-58645429D02*
X71071429Y-58788286D01*
X71071429Y-59074000D01*
X71142857Y-59216858D01*
X71214286Y-59288286D01*
X71357143Y-59359715D01*
X71785714Y-59359715D01*
X71928571Y-59288286D01*
X72000000Y-59216858D01*
X72071429Y-59074000D01*
X72071429Y-58788286D01*
X72000000Y-58645429D01*
X71071429Y-57788286D02*
X71142857Y-57931144D01*
X71214286Y-58002572D01*
X71357143Y-58074001D01*
X71785714Y-58074001D01*
X71928571Y-58002572D01*
X72000000Y-57931144D01*
X72071429Y-57788286D01*
X72071429Y-57574001D01*
X72000000Y-57431144D01*
X71928571Y-57359715D01*
X71785714Y-57288286D01*
X71357143Y-57288286D01*
X71214286Y-57359715D01*
X71142857Y-57431144D01*
X71071429Y-57574001D01*
X71071429Y-57788286D01*
X72071429Y-56645429D02*
X71071429Y-56645429D01*
X71928571Y-56645429D02*
X72000000Y-56574001D01*
X72071429Y-56431143D01*
X72071429Y-56216858D01*
X72000000Y-56074001D01*
X71857143Y-56002572D01*
X71071429Y-56002572D01*
X72071429Y-55502572D02*
X72071429Y-54931143D01*
X72571429Y-55288286D02*
X71285714Y-55288286D01*
X71142857Y-55216858D01*
X71071429Y-55074000D01*
X71071429Y-54931143D01*
X71071429Y-54431143D02*
X72071429Y-54431143D01*
X71785714Y-54431143D02*
X71928571Y-54359715D01*
X72000000Y-54288286D01*
X72071429Y-54145429D01*
X72071429Y-54002572D01*
X71071429Y-53288286D02*
X71142857Y-53431144D01*
X71214286Y-53502572D01*
X71357143Y-53574001D01*
X71785714Y-53574001D01*
X71928571Y-53502572D01*
X72000000Y-53431144D01*
X72071429Y-53288286D01*
X72071429Y-53074001D01*
X72000000Y-52931144D01*
X71928571Y-52859715D01*
X71785714Y-52788286D01*
X71357143Y-52788286D01*
X71214286Y-52859715D01*
X71142857Y-52931144D01*
X71071429Y-53074001D01*
X71071429Y-53288286D01*
X71071429Y-51931143D02*
X71142857Y-52074001D01*
X71285714Y-52145429D01*
X72571429Y-52145429D01*
X67771429Y-87431143D02*
X67771429Y-87145429D01*
X67700000Y-87002571D01*
X67557143Y-86859714D01*
X67271429Y-86788286D01*
X66771429Y-86788286D01*
X66485714Y-86859714D01*
X66342857Y-87002571D01*
X66271429Y-87145429D01*
X66271429Y-87431143D01*
X66342857Y-87574000D01*
X66485714Y-87716857D01*
X66771429Y-87788286D01*
X67271429Y-87788286D01*
X67557143Y-87716857D01*
X67700000Y-87574000D01*
X67771429Y-87431143D01*
X67271429Y-85502571D02*
X66271429Y-85502571D01*
X67271429Y-86145428D02*
X66485714Y-86145428D01*
X66342857Y-86074000D01*
X66271429Y-85931142D01*
X66271429Y-85716857D01*
X66342857Y-85574000D01*
X66414286Y-85502571D01*
X67271429Y-85002571D02*
X67271429Y-84431142D01*
X67771429Y-84788285D02*
X66485714Y-84788285D01*
X66342857Y-84716857D01*
X66271429Y-84573999D01*
X66271429Y-84431142D01*
X67271429Y-83931142D02*
X65771429Y-83931142D01*
X67200000Y-83931142D02*
X67271429Y-83788285D01*
X67271429Y-83502571D01*
X67200000Y-83359714D01*
X67128571Y-83288285D01*
X66985714Y-83216856D01*
X66557143Y-83216856D01*
X66414286Y-83288285D01*
X66342857Y-83359714D01*
X66271429Y-83502571D01*
X66271429Y-83788285D01*
X66342857Y-83931142D01*
X67271429Y-81931142D02*
X66271429Y-81931142D01*
X67271429Y-82573999D02*
X66485714Y-82573999D01*
X66342857Y-82502571D01*
X66271429Y-82359713D01*
X66271429Y-82145428D01*
X66342857Y-82002571D01*
X66414286Y-81931142D01*
X67271429Y-81431142D02*
X67271429Y-80859713D01*
X67771429Y-81216856D02*
X66485714Y-81216856D01*
X66342857Y-81145428D01*
X66271429Y-81002570D01*
X66271429Y-80859713D01*
X66271429Y-79216856D02*
X67271429Y-79216856D01*
X67128571Y-79216856D02*
X67200000Y-79145428D01*
X67271429Y-79002570D01*
X67271429Y-78788285D01*
X67200000Y-78645428D01*
X67057143Y-78573999D01*
X66271429Y-78573999D01*
X67057143Y-78573999D02*
X67200000Y-78502570D01*
X67271429Y-78359713D01*
X67271429Y-78145428D01*
X67200000Y-78002570D01*
X67057143Y-77931142D01*
X66271429Y-77931142D01*
X66271429Y-76573999D02*
X67057143Y-76573999D01*
X67200000Y-76645428D01*
X67271429Y-76788285D01*
X67271429Y-77073999D01*
X67200000Y-77216856D01*
X66342857Y-76573999D02*
X66271429Y-76716856D01*
X66271429Y-77073999D01*
X66342857Y-77216856D01*
X66485714Y-77288285D01*
X66628571Y-77288285D01*
X66771429Y-77216856D01*
X66842857Y-77073999D01*
X66842857Y-76716856D01*
X66914286Y-76573999D01*
X66271429Y-76002570D02*
X67271429Y-75216856D01*
X67271429Y-76002570D02*
X66271429Y-75216856D01*
X66271429Y-72716856D02*
X66271429Y-73573999D01*
X66271429Y-73145427D02*
X67771429Y-73145427D01*
X67557143Y-73288284D01*
X67414286Y-73431142D01*
X67342857Y-73573999D01*
X67771429Y-71788285D02*
X67771429Y-71645428D01*
X67700000Y-71502571D01*
X67628571Y-71431142D01*
X67485714Y-71359713D01*
X67200000Y-71288285D01*
X66842857Y-71288285D01*
X66557143Y-71359713D01*
X66414286Y-71431142D01*
X66342857Y-71502571D01*
X66271429Y-71645428D01*
X66271429Y-71788285D01*
X66342857Y-71931142D01*
X66414286Y-72002571D01*
X66557143Y-72073999D01*
X66842857Y-72145428D01*
X67200000Y-72145428D01*
X67485714Y-72073999D01*
X67628571Y-72002571D01*
X67700000Y-71931142D01*
X67771429Y-71788285D01*
X67771429Y-70359714D02*
X67771429Y-70216857D01*
X67700000Y-70074000D01*
X67628571Y-70002571D01*
X67485714Y-69931142D01*
X67200000Y-69859714D01*
X66842857Y-69859714D01*
X66557143Y-69931142D01*
X66414286Y-70002571D01*
X66342857Y-70074000D01*
X66271429Y-70216857D01*
X66271429Y-70359714D01*
X66342857Y-70502571D01*
X66414286Y-70574000D01*
X66557143Y-70645428D01*
X66842857Y-70716857D01*
X67200000Y-70716857D01*
X67485714Y-70645428D01*
X67628571Y-70574000D01*
X67700000Y-70502571D01*
X67771429Y-70359714D01*
X66271429Y-69216857D02*
X67271429Y-69216857D01*
X67128571Y-69216857D02*
X67200000Y-69145429D01*
X67271429Y-69002571D01*
X67271429Y-68788286D01*
X67200000Y-68645429D01*
X67057143Y-68574000D01*
X66271429Y-68574000D01*
X67057143Y-68574000D02*
X67200000Y-68502571D01*
X67271429Y-68359714D01*
X67271429Y-68145429D01*
X67200000Y-68002571D01*
X67057143Y-67931143D01*
X66271429Y-67931143D01*
X66700000Y-67288286D02*
X66700000Y-66574000D01*
X66271429Y-67431143D02*
X67771429Y-66931143D01*
X66271429Y-66431143D01*
X67771429Y-65002572D02*
X66271429Y-64502572D01*
X67771429Y-64002572D01*
X66414286Y-62645429D02*
X66342857Y-62716858D01*
X66271429Y-62931144D01*
X66271429Y-63074001D01*
X66342857Y-63288286D01*
X66485714Y-63431144D01*
X66628571Y-63502572D01*
X66914286Y-63574001D01*
X67128571Y-63574001D01*
X67414286Y-63502572D01*
X67557143Y-63431144D01*
X67700000Y-63288286D01*
X67771429Y-63074001D01*
X67771429Y-62931144D01*
X67700000Y-62716858D01*
X67628571Y-62645429D01*
X66414286Y-61145429D02*
X66342857Y-61216858D01*
X66271429Y-61431144D01*
X66271429Y-61574001D01*
X66342857Y-61788286D01*
X66485714Y-61931144D01*
X66628571Y-62002572D01*
X66914286Y-62074001D01*
X67128571Y-62074001D01*
X67414286Y-62002572D01*
X67557143Y-61931144D01*
X67700000Y-61788286D01*
X67771429Y-61574001D01*
X67771429Y-61431144D01*
X67700000Y-61216858D01*
X67628571Y-61145429D01*
X66271429Y-58716858D02*
X67057143Y-58716858D01*
X67200000Y-58788287D01*
X67271429Y-58931144D01*
X67271429Y-59216858D01*
X67200000Y-59359715D01*
X66342857Y-58716858D02*
X66271429Y-58859715D01*
X66271429Y-59216858D01*
X66342857Y-59359715D01*
X66485714Y-59431144D01*
X66628571Y-59431144D01*
X66771429Y-59359715D01*
X66842857Y-59216858D01*
X66842857Y-58859715D01*
X66914286Y-58716858D01*
X67271429Y-58002572D02*
X66271429Y-58002572D01*
X67128571Y-58002572D02*
X67200000Y-57931144D01*
X67271429Y-57788286D01*
X67271429Y-57574001D01*
X67200000Y-57431144D01*
X67057143Y-57359715D01*
X66271429Y-57359715D01*
X66271429Y-56002572D02*
X67771429Y-56002572D01*
X66342857Y-56002572D02*
X66271429Y-56145429D01*
X66271429Y-56431143D01*
X66342857Y-56574001D01*
X66414286Y-56645429D01*
X66557143Y-56716858D01*
X66985714Y-56716858D01*
X67128571Y-56645429D01*
X67200000Y-56574001D01*
X67271429Y-56431143D01*
X67271429Y-56145429D01*
X67200000Y-56002572D01*
X66271429Y-54145429D02*
X67271429Y-54145429D01*
X67128571Y-54145429D02*
X67200000Y-54074001D01*
X67271429Y-53931143D01*
X67271429Y-53716858D01*
X67200000Y-53574001D01*
X67057143Y-53502572D01*
X66271429Y-53502572D01*
X67057143Y-53502572D02*
X67200000Y-53431143D01*
X67271429Y-53288286D01*
X67271429Y-53074001D01*
X67200000Y-52931143D01*
X67057143Y-52859715D01*
X66271429Y-52859715D01*
X66271429Y-51502572D02*
X67057143Y-51502572D01*
X67200000Y-51574001D01*
X67271429Y-51716858D01*
X67271429Y-52002572D01*
X67200000Y-52145429D01*
X66342857Y-51502572D02*
X66271429Y-51645429D01*
X66271429Y-52002572D01*
X66342857Y-52145429D01*
X66485714Y-52216858D01*
X66628571Y-52216858D01*
X66771429Y-52145429D01*
X66842857Y-52002572D01*
X66842857Y-51645429D01*
X66914286Y-51502572D01*
X66271429Y-50931143D02*
X67271429Y-50145429D01*
X67271429Y-50931143D02*
X66271429Y-50145429D01*
X66271429Y-47645429D02*
X66271429Y-48502572D01*
X66271429Y-48074000D02*
X67771429Y-48074000D01*
X67557143Y-48216857D01*
X67414286Y-48359715D01*
X67342857Y-48502572D01*
X67771429Y-46716858D02*
X67771429Y-46574001D01*
X67700000Y-46431144D01*
X67628571Y-46359715D01*
X67485714Y-46288286D01*
X67200000Y-46216858D01*
X66842857Y-46216858D01*
X66557143Y-46288286D01*
X66414286Y-46359715D01*
X66342857Y-46431144D01*
X66271429Y-46574001D01*
X66271429Y-46716858D01*
X66342857Y-46859715D01*
X66414286Y-46931144D01*
X66557143Y-47002572D01*
X66842857Y-47074001D01*
X67200000Y-47074001D01*
X67485714Y-47002572D01*
X67628571Y-46931144D01*
X67700000Y-46859715D01*
X67771429Y-46716858D01*
X67771429Y-45288287D02*
X67771429Y-45145430D01*
X67700000Y-45002573D01*
X67628571Y-44931144D01*
X67485714Y-44859715D01*
X67200000Y-44788287D01*
X66842857Y-44788287D01*
X66557143Y-44859715D01*
X66414286Y-44931144D01*
X66342857Y-45002573D01*
X66271429Y-45145430D01*
X66271429Y-45288287D01*
X66342857Y-45431144D01*
X66414286Y-45502573D01*
X66557143Y-45574001D01*
X66842857Y-45645430D01*
X67200000Y-45645430D01*
X67485714Y-45574001D01*
X67628571Y-45502573D01*
X67700000Y-45431144D01*
X67771429Y-45288287D01*
X67771429Y-43859716D02*
X67771429Y-43716859D01*
X67700000Y-43574002D01*
X67628571Y-43502573D01*
X67485714Y-43431144D01*
X67200000Y-43359716D01*
X66842857Y-43359716D01*
X66557143Y-43431144D01*
X66414286Y-43502573D01*
X66342857Y-43574002D01*
X66271429Y-43716859D01*
X66271429Y-43859716D01*
X66342857Y-44002573D01*
X66414286Y-44074002D01*
X66557143Y-44145430D01*
X66842857Y-44216859D01*
X67200000Y-44216859D01*
X67485714Y-44145430D01*
X67628571Y-44074002D01*
X67700000Y-44002573D01*
X67771429Y-43859716D01*
X66271429Y-42716859D02*
X67271429Y-42716859D01*
X67128571Y-42716859D02*
X67200000Y-42645431D01*
X67271429Y-42502573D01*
X67271429Y-42288288D01*
X67200000Y-42145431D01*
X67057143Y-42074002D01*
X66271429Y-42074002D01*
X67057143Y-42074002D02*
X67200000Y-42002573D01*
X67271429Y-41859716D01*
X67271429Y-41645431D01*
X67200000Y-41502573D01*
X67057143Y-41431145D01*
X66271429Y-41431145D01*
X66700000Y-40788288D02*
X66700000Y-40074002D01*
X66271429Y-40931145D02*
X67771429Y-40431145D01*
X66271429Y-39931145D01*
X66842857Y-38288288D02*
X66842857Y-37145431D01*
X66271429Y-37716860D02*
X67414286Y-37716860D01*
X67057143Y-35931145D02*
X66985714Y-35716859D01*
X66914286Y-35645431D01*
X66771429Y-35574002D01*
X66557143Y-35574002D01*
X66414286Y-35645431D01*
X66342857Y-35716859D01*
X66271429Y-35859717D01*
X66271429Y-36431145D01*
X67771429Y-36431145D01*
X67771429Y-35931145D01*
X67700000Y-35788288D01*
X67628571Y-35716859D01*
X67485714Y-35645431D01*
X67342857Y-35645431D01*
X67200000Y-35716859D01*
X67128571Y-35788288D01*
X67057143Y-35931145D01*
X67057143Y-36431145D01*
X66700000Y-35002574D02*
X66700000Y-34288288D01*
X66271429Y-35145431D02*
X67771429Y-34645431D01*
X66271429Y-34145431D01*
X67771429Y-33859717D02*
X67771429Y-33002574D01*
X66271429Y-33431145D02*
X67771429Y-33431145D01*
X67771429Y-32716860D02*
X67771429Y-31859717D01*
X66271429Y-32288288D02*
X67771429Y-32288288D01*
%LPC*%
D12*
X69394000Y-44894000D03*
X69394000Y-47434000D03*
X69394000Y-49974000D03*
X69394000Y-52514000D03*
X77014000Y-52514000D03*
X77014000Y-49974000D03*
X77014000Y-47434000D03*
X77014000Y-44894000D03*
D13*
X70116900Y-19786540D03*
X65116900Y-19786540D03*
D14*
X71116900Y-17086540D03*
X64116900Y-17086540D03*
D15*
X77600000Y-15530000D03*
X77600000Y-18070000D03*
X63806000Y-32448000D03*
X63806000Y-34988000D03*
D16*
X73000000Y-38200000D03*
X73000000Y-35000000D03*
X73000000Y-31800000D03*
X73000000Y-74200000D03*
X73000000Y-71000000D03*
X73000000Y-67800000D03*
D15*
X63500000Y-67960000D03*
X63500000Y-70500000D03*
X63500000Y-73040000D03*
M02*
