M48
;DRILL file {KiCad 4.0.1-stable} date Torsdag 21 Januari 2016 22:06:50
;FORMAT={-:-/ absolute / inch / decimal}
FMAT,2
INCH,TZ
T1C0.016
T2C0.020
T3C0.022
T4C0.031
T5C0.039
T6C0.039
%
G90
G05
M72
T1
X2.472Y-3.3975
X2.5748Y-0.874
X2.632Y-1.1375
X2.6535Y-2.4291
X2.702Y-0.9575
X3.0313Y-1.0276
T4
X2.732Y-1.7675
X2.732Y-1.8675
X2.732Y-1.9675
X2.732Y-2.0675
X3.032Y-1.7675
X3.032Y-1.8675
X3.032Y-1.9675
X3.032Y-2.0675
T5
X2.5Y-2.6756
X2.5Y-2.7756
X2.5Y-2.8756
X2.512Y-1.2775
X2.512Y-1.3775
X3.0551Y-0.6114
X3.0551Y-0.7114
T6
X2.874Y-1.252
X2.874Y-1.378
X2.874Y-1.5039
X2.874Y-2.6693
X2.874Y-2.7953
X2.874Y-2.9213
T2
X2.5243Y-0.6599G85X2.5243Y-0.6855
G05
X2.7999Y-0.6599G85X2.7999Y-0.6855
G05
T3
X2.5696Y-0.779G85X2.5578Y-0.779
G05
X2.7664Y-0.779G85X2.7546Y-0.779
G05
T0
M30
