G04 #@! TF.FileFunction,Soldermask,Top*
%FSLAX46Y46*%
G04 Gerber Fmt 4.6, Leading zero omitted, Abs format (unit mm)*
G04 Created by KiCad (PCBNEW 4.0.1-stable) date Torsdag 21 Januari 2016 22:06:45*
%MOMM*%
G01*
G04 APERTURE LIST*
%ADD10C,0.100000*%
%ADD11R,1.652400X1.402400*%
%ADD12R,1.752400X2.152400*%
%ADD13R,2.152400X1.752400*%
%ADD14R,1.402400X1.652400*%
%ADD15R,1.953260X1.750060*%
%ADD16O,1.752400X1.752400*%
%ADD17R,0.552400X1.502400*%
%ADD18O,1.402400X1.102400*%
%ADD19O,1.152400X1.702400*%
%ADD20O,3.167380X1.658620*%
%ADD21R,0.952500X0.952500*%
%ADD22R,1.452400X1.652400*%
%ADD23R,1.652400X1.452400*%
%ADD24C,1.852400*%
%ADD25R,1.212400X0.802400*%
%ADD26R,1.602400X0.602400*%
%ADD27C,1.676400*%
%ADD28R,1.452400X1.702400*%
G04 APERTURE END LIST*
D10*
D11*
X63826000Y-24320000D03*
X66326000Y-24320000D03*
X74494000Y-24828000D03*
X76994000Y-24828000D03*
X74494000Y-27368000D03*
X76994000Y-27368000D03*
D12*
X61774000Y-79470000D03*
X61774000Y-83470000D03*
D13*
X69108000Y-87312000D03*
X65108000Y-87312000D03*
D14*
X72188000Y-83014000D03*
X72188000Y-85514000D03*
D15*
X62028000Y-53126140D03*
X62028000Y-55965860D03*
X65076000Y-53126140D03*
X65076000Y-55965860D03*
D16*
X69394000Y-44894000D03*
X69394000Y-47434000D03*
X69394000Y-49974000D03*
X69394000Y-52514000D03*
X77014000Y-52514000D03*
X77014000Y-49974000D03*
X77014000Y-47434000D03*
X77014000Y-44894000D03*
D17*
X68916900Y-19786540D03*
X68266900Y-19786540D03*
X67616900Y-19786540D03*
X66966900Y-19786540D03*
X66316900Y-19786540D03*
D18*
X70116900Y-19786540D03*
X65116900Y-19786540D03*
D19*
X71116900Y-17086540D03*
X64116900Y-17086540D03*
D20*
X77600000Y-15530000D03*
X77600000Y-18070000D03*
X63806000Y-32448000D03*
X63806000Y-34988000D03*
D21*
X70852000Y-63451240D03*
X68952000Y-63451240D03*
X69902000Y-65450220D03*
D22*
X62028000Y-59292000D03*
X62028000Y-61992000D03*
X65076000Y-59292000D03*
X65076000Y-61992000D03*
X72188000Y-60468000D03*
X72188000Y-57768000D03*
X69648000Y-60468000D03*
X69648000Y-57768000D03*
D23*
X66350000Y-27000000D03*
X63650000Y-27000000D03*
X72150000Y-80000000D03*
X74850000Y-80000000D03*
D24*
X73000000Y-38200000D03*
X73000000Y-35000000D03*
X73000000Y-31800000D03*
X73000000Y-74200000D03*
X73000000Y-71000000D03*
X73000000Y-67800000D03*
D25*
X69305952Y-25665000D03*
X69305952Y-26615000D03*
X69305952Y-27565000D03*
X71505952Y-27565000D03*
X71505952Y-25665000D03*
D26*
X64800000Y-81525000D03*
X64800000Y-82175000D03*
X64800000Y-82825000D03*
X64800000Y-83475000D03*
X69200000Y-83475000D03*
X69200000Y-82825000D03*
X69200000Y-82175000D03*
X69200000Y-81525000D03*
D27*
X77268000Y-56324000D03*
D20*
X63500000Y-67960000D03*
X63500000Y-70500000D03*
X63500000Y-73040000D03*
D28*
X66056000Y-46583000D03*
X61556000Y-46583000D03*
X61556000Y-38633000D03*
X66056000Y-38633000D03*
M02*
