G04 #@! TF.FileFunction,Copper,L1,Top,Signal*
%FSLAX46Y46*%
G04 Gerber Fmt 4.6, Leading zero omitted, Abs format (unit mm)*
G04 Created by KiCad (PCBNEW 4.0.1-stable) date Torsdag 21 Januari 2016 22:06:45*
%MOMM*%
G01*
G04 APERTURE LIST*
%ADD10C,0.100000*%
%ADD11R,1.500000X1.250000*%
%ADD12R,1.600000X2.000000*%
%ADD13R,2.000000X1.600000*%
%ADD14R,1.250000X1.500000*%
%ADD15R,1.800860X1.597660*%
%ADD16O,1.600000X1.600000*%
%ADD17R,0.400000X1.350000*%
%ADD18O,1.250000X0.950000*%
%ADD19O,1.000000X1.550000*%
%ADD20O,3.014980X1.506220*%
%ADD21R,0.800100X0.800100*%
%ADD22R,1.300000X1.500000*%
%ADD23R,1.500000X1.300000*%
%ADD24C,1.700000*%
%ADD25R,1.060000X0.650000*%
%ADD26R,1.450000X0.450000*%
%ADD27C,1.524000*%
%ADD28R,1.300000X1.550000*%
%ADD29C,0.600000*%
%ADD30C,0.250000*%
%ADD31C,0.762000*%
G04 APERTURE END LIST*
D10*
D11*
X63826000Y-24320000D03*
X66326000Y-24320000D03*
X74494000Y-24828000D03*
X76994000Y-24828000D03*
X74494000Y-27368000D03*
X76994000Y-27368000D03*
D12*
X61774000Y-79470000D03*
X61774000Y-83470000D03*
D13*
X69108000Y-87312000D03*
X65108000Y-87312000D03*
D14*
X72188000Y-83014000D03*
X72188000Y-85514000D03*
D15*
X62028000Y-53126140D03*
X62028000Y-55965860D03*
X65076000Y-53126140D03*
X65076000Y-55965860D03*
D16*
X69394000Y-44894000D03*
X69394000Y-47434000D03*
X69394000Y-49974000D03*
X69394000Y-52514000D03*
X77014000Y-52514000D03*
X77014000Y-49974000D03*
X77014000Y-47434000D03*
X77014000Y-44894000D03*
D17*
X68916900Y-19786540D03*
X68266900Y-19786540D03*
X67616900Y-19786540D03*
X66966900Y-19786540D03*
X66316900Y-19786540D03*
D18*
X70116900Y-19786540D03*
X65116900Y-19786540D03*
D19*
X71116900Y-17086540D03*
X64116900Y-17086540D03*
D20*
X77600000Y-15530000D03*
X77600000Y-18070000D03*
X63806000Y-32448000D03*
X63806000Y-34988000D03*
D21*
X70852000Y-63451240D03*
X68952000Y-63451240D03*
X69902000Y-65450220D03*
D22*
X62028000Y-59292000D03*
X62028000Y-61992000D03*
X65076000Y-59292000D03*
X65076000Y-61992000D03*
X72188000Y-60468000D03*
X72188000Y-57768000D03*
X69648000Y-60468000D03*
X69648000Y-57768000D03*
D23*
X66350000Y-27000000D03*
X63650000Y-27000000D03*
X72150000Y-80000000D03*
X74850000Y-80000000D03*
D24*
X73000000Y-38200000D03*
X73000000Y-35000000D03*
X73000000Y-31800000D03*
X73000000Y-74200000D03*
X73000000Y-71000000D03*
X73000000Y-67800000D03*
D25*
X69305952Y-25665000D03*
X69305952Y-26615000D03*
X69305952Y-27565000D03*
X71505952Y-27565000D03*
X71505952Y-25665000D03*
D26*
X64800000Y-81525000D03*
X64800000Y-82175000D03*
X64800000Y-82825000D03*
X64800000Y-83475000D03*
X69200000Y-83475000D03*
X69200000Y-82825000D03*
X69200000Y-82175000D03*
X69200000Y-81525000D03*
D27*
X77268000Y-56324000D03*
D20*
X63500000Y-67960000D03*
X63500000Y-70500000D03*
X63500000Y-73040000D03*
D28*
X66056000Y-46583000D03*
X61556000Y-46583000D03*
X61556000Y-38633000D03*
X66056000Y-38633000D03*
D29*
X67400000Y-61700000D03*
X65400000Y-22200000D03*
X76994000Y-26100000D03*
X62790000Y-86296000D03*
X68632000Y-24320000D03*
X66854000Y-28892000D03*
D30*
X62028000Y-61992000D02*
X65076000Y-61992000D01*
X65076000Y-61992000D02*
X66535240Y-63451240D01*
X66535240Y-63451240D02*
X68952000Y-63451240D01*
D31*
X68952000Y-63451240D02*
X68952000Y-63252000D01*
X68952000Y-63252000D02*
X67400000Y-61700000D01*
D30*
X69394000Y-52514000D02*
X69394000Y-57514000D01*
X61556000Y-38633000D02*
X61556000Y-46583000D01*
X61556000Y-38633000D02*
X61556000Y-37238000D01*
X61556000Y-37238000D02*
X63806000Y-34988000D01*
X65300000Y-22200000D02*
X65400000Y-22200000D01*
X76994000Y-24828000D02*
X76994000Y-26100000D01*
X76994000Y-26100000D02*
X76994000Y-27368000D01*
X68315000Y-26615000D02*
X69305952Y-26615000D01*
X67400000Y-25700000D02*
X68315000Y-26615000D01*
X64100000Y-25700000D02*
X67400000Y-25700000D01*
X63826000Y-25426000D02*
X64100000Y-25700000D01*
X63826000Y-24320000D02*
X63826000Y-25426000D01*
X66316900Y-19786540D02*
X66316900Y-21283100D01*
X63826000Y-22774000D02*
X63826000Y-24320000D01*
X64400000Y-22200000D02*
X63826000Y-22774000D01*
X65300000Y-22200000D02*
X64400000Y-22200000D01*
X66316900Y-21283100D02*
X65400000Y-22200000D01*
X66326000Y-24320000D02*
X66326000Y-23324000D01*
X68916900Y-22257100D02*
X68916900Y-19786540D01*
X68124000Y-23050000D02*
X68916900Y-22257100D01*
X66600000Y-23050000D02*
X68124000Y-23050000D01*
X66326000Y-23324000D02*
X66600000Y-23050000D01*
X66122900Y-24116900D02*
X66326000Y-24320000D01*
X66326000Y-24320000D02*
X67616000Y-24320000D01*
X67616000Y-24320000D02*
X68961000Y-25665000D01*
X68961000Y-25665000D02*
X69305952Y-25665000D01*
D31*
X77600000Y-18070000D02*
X77600000Y-21722000D01*
X77600000Y-21722000D02*
X74494000Y-24828000D01*
X71505952Y-27565000D02*
X71757000Y-27565000D01*
X71757000Y-27565000D02*
X74474000Y-24848000D01*
D30*
X74240000Y-24574000D02*
X74494000Y-24828000D01*
X61774000Y-79470000D02*
X61774000Y-74358000D01*
X61012000Y-71564000D02*
X62076000Y-70500000D01*
X61012000Y-73596000D02*
X61012000Y-71564000D01*
X61774000Y-74358000D02*
X61012000Y-73596000D01*
X62076000Y-70500000D02*
X63500000Y-70500000D01*
X64800000Y-82175000D02*
X63749000Y-82175000D01*
X63298000Y-80994000D02*
X61774000Y-79470000D01*
X63298000Y-81724000D02*
X63298000Y-80994000D01*
X63749000Y-82175000D02*
X63298000Y-81724000D01*
D31*
X69902000Y-65450220D02*
X70650220Y-65450220D01*
X70650220Y-65450220D02*
X73000000Y-67800000D01*
D30*
X64695000Y-84391000D02*
X62790000Y-86296000D01*
X64800000Y-84264000D02*
X64800000Y-87004000D01*
X64800000Y-84264000D02*
X64800000Y-84286000D01*
X64800000Y-83475000D02*
X64800000Y-84264000D01*
X64800000Y-84286000D02*
X64695000Y-84391000D01*
X64800000Y-83475000D02*
X61779000Y-83475000D01*
X64800000Y-87004000D02*
X65108000Y-87312000D01*
X65108000Y-87312000D02*
X63806000Y-87312000D01*
X61774000Y-85280000D02*
X61774000Y-83470000D01*
X63806000Y-87312000D02*
X61774000Y-85280000D01*
X64695000Y-86899000D02*
X65108000Y-87312000D01*
X61779000Y-83475000D02*
X61774000Y-83470000D01*
X64800000Y-87004000D02*
X65108000Y-87312000D01*
X69200000Y-82825000D02*
X71999000Y-82825000D01*
X71999000Y-82825000D02*
X72188000Y-83014000D01*
X69200000Y-83475000D02*
X70149000Y-83475000D01*
X70149000Y-83475000D02*
X72188000Y-85514000D01*
X62028000Y-53126140D02*
X62028000Y-51752000D01*
X65838000Y-50228000D02*
X68632000Y-47434000D01*
X63552000Y-50228000D02*
X65838000Y-50228000D01*
X62028000Y-51752000D02*
X63552000Y-50228000D01*
X68632000Y-47434000D02*
X69394000Y-47434000D01*
X62028000Y-59292000D02*
X62028000Y-55965860D01*
X65076000Y-53126140D02*
X66749860Y-53126140D01*
X68124000Y-49974000D02*
X69394000Y-49974000D01*
X67362000Y-50736000D02*
X68124000Y-49974000D01*
X67362000Y-52514000D02*
X67362000Y-50736000D01*
X66749860Y-53126140D02*
X67362000Y-52514000D01*
X65076000Y-59292000D02*
X65076000Y-55965860D01*
X66056000Y-46583000D02*
X67705000Y-46583000D01*
X67705000Y-46583000D02*
X69394000Y-44894000D01*
X66056000Y-38633000D02*
X66056000Y-46583000D01*
X72188000Y-57768000D02*
X72188000Y-57340000D01*
X72188000Y-57340000D02*
X77014000Y-52514000D01*
X77014000Y-49974000D02*
X77522000Y-49974000D01*
X77522000Y-49974000D02*
X78284000Y-50736000D01*
X78284000Y-50736000D02*
X78284000Y-55308000D01*
X78284000Y-55308000D02*
X77268000Y-56324000D01*
X69305952Y-27565000D02*
X69305952Y-29311952D01*
X74982000Y-45402000D02*
X77014000Y-47434000D01*
X74982000Y-42608000D02*
X74982000Y-45402000D01*
X71426000Y-39052000D02*
X74982000Y-42608000D01*
X71426000Y-33972000D02*
X71426000Y-39052000D01*
X71934000Y-33464000D02*
X71426000Y-33972000D01*
X73712000Y-33464000D02*
X71934000Y-33464000D01*
X74982000Y-32194000D02*
X73712000Y-33464000D01*
X74982000Y-30670000D02*
X74982000Y-32194000D01*
X74474000Y-30162000D02*
X74982000Y-30670000D01*
X70156000Y-30162000D02*
X74474000Y-30162000D01*
X69305952Y-29311952D02*
X70156000Y-30162000D01*
X66350000Y-27000000D02*
X67502000Y-27000000D01*
X68067000Y-27565000D02*
X69305952Y-27565000D01*
X67502000Y-27000000D02*
X68067000Y-27565000D01*
X69648000Y-60468000D02*
X69648000Y-62247240D01*
X69648000Y-62247240D02*
X70852000Y-63451240D01*
X72188000Y-60468000D02*
X69648000Y-60468000D01*
X71664760Y-60991240D02*
X72188000Y-60468000D01*
X69200000Y-82175000D02*
X70213000Y-82175000D01*
X70213000Y-82175000D02*
X72150000Y-80238000D01*
X72150000Y-80238000D02*
X72150000Y-80000000D01*
X72947000Y-72323000D02*
X72947000Y-71053000D01*
X72947000Y-71053000D02*
X73000000Y-71000000D01*
X69200000Y-81525000D02*
X69200000Y-76070000D01*
X69200000Y-76070000D02*
X72947000Y-72323000D01*
X72947000Y-72323000D02*
X73000000Y-72270000D01*
D31*
X74982000Y-69278000D02*
X65838000Y-69278000D01*
X65838000Y-69278000D02*
X64520000Y-67960000D01*
X64520000Y-67960000D02*
X63500000Y-67960000D01*
D30*
X63650000Y-28482000D02*
X64060000Y-28892000D01*
X64060000Y-28892000D02*
X66854000Y-28892000D01*
X63650000Y-27000000D02*
X63650000Y-28482000D01*
X71505952Y-24653952D02*
X71505952Y-25665000D01*
X71172000Y-24320000D02*
X71505952Y-24653952D01*
X68632000Y-24320000D02*
X71172000Y-24320000D01*
X64800000Y-82825000D02*
X66685000Y-82825000D01*
X67616000Y-85820000D02*
X69108000Y-87312000D01*
X67616000Y-83756000D02*
X67616000Y-85820000D01*
X66685000Y-82825000D02*
X67616000Y-83756000D01*
D31*
X74850000Y-80000000D02*
X74850000Y-86682000D01*
X74220000Y-87312000D02*
X69108000Y-87312000D01*
X74850000Y-86682000D02*
X74220000Y-87312000D01*
X73000000Y-74200000D02*
X73000000Y-75932000D01*
X73000000Y-75932000D02*
X74850000Y-77782000D01*
X74850000Y-77782000D02*
X74850000Y-80000000D01*
X73000000Y-74200000D02*
X73616000Y-74200000D01*
X73616000Y-74200000D02*
X74982000Y-72834000D01*
X74982000Y-72834000D02*
X74982000Y-69278000D01*
X77014000Y-44894000D02*
X78792000Y-44894000D01*
X79300000Y-64960000D02*
X74982000Y-69278000D01*
X79300000Y-45402000D02*
X79300000Y-64960000D01*
X78792000Y-44894000D02*
X79300000Y-45402000D01*
X73000000Y-35000000D02*
X74740000Y-35000000D01*
X77014000Y-37274000D02*
X77014000Y-44894000D01*
X74740000Y-35000000D02*
X77014000Y-37274000D01*
D30*
X71505952Y-25665000D02*
X71351000Y-25665000D01*
X71351000Y-25665000D02*
X70410000Y-26606000D01*
X72970000Y-28892000D02*
X74113000Y-27749000D01*
X70664000Y-28892000D02*
X72970000Y-28892000D01*
X70410000Y-28638000D02*
X70664000Y-28892000D01*
X70410000Y-26606000D02*
X70410000Y-28638000D01*
X63650000Y-27000000D02*
X62930000Y-27000000D01*
X71505952Y-25665000D02*
X71505952Y-25764048D01*
D31*
X73000000Y-35000000D02*
X74462000Y-35000000D01*
X76252000Y-29888000D02*
X74113000Y-27749000D01*
X76252000Y-33210000D02*
X76252000Y-30416000D01*
X76252000Y-30416000D02*
X76252000Y-29888000D01*
X74462000Y-35000000D02*
X76252000Y-33210000D01*
X63806000Y-32448000D02*
X72352000Y-32448000D01*
X72352000Y-32448000D02*
X73000000Y-31800000D01*
D30*
X62608000Y-32448000D02*
X63806000Y-32448000D01*
M02*
