G04 #@! TF.FileFunction,Legend,Top*
%FSLAX46Y46*%
G04 Gerber Fmt 4.6, Leading zero omitted, Abs format (unit mm)*
G04 Created by KiCad (PCBNEW 4.0.1-stable) date Tisdag 22 Mars 2016 22:05:33*
%MOMM*%
G01*
G04 APERTURE LIST*
%ADD10C,0.100000*%
%ADD11C,0.150000*%
%ADD12C,0.001000*%
G04 APERTURE END LIST*
D10*
X195519047Y-123700000D02*
X195471428Y-123676190D01*
X195400000Y-123676190D01*
X195328571Y-123700000D01*
X195280952Y-123747619D01*
X195257143Y-123795238D01*
X195233333Y-123890476D01*
X195233333Y-123961905D01*
X195257143Y-124057143D01*
X195280952Y-124104762D01*
X195328571Y-124152381D01*
X195400000Y-124176190D01*
X195447619Y-124176190D01*
X195519047Y-124152381D01*
X195542857Y-124128571D01*
X195542857Y-123961905D01*
X195447619Y-123961905D01*
X195757143Y-124176190D02*
X195757143Y-123676190D01*
X196042857Y-124176190D01*
X196042857Y-123676190D01*
X196280953Y-124176190D02*
X196280953Y-123676190D01*
X196400000Y-123676190D01*
X196471429Y-123700000D01*
X196519048Y-123747619D01*
X196542857Y-123795238D01*
X196566667Y-123890476D01*
X196566667Y-123961905D01*
X196542857Y-124057143D01*
X196519048Y-124104762D01*
X196471429Y-124152381D01*
X196400000Y-124176190D01*
X196280953Y-124176190D01*
X192458334Y-123676190D02*
X192625001Y-124176190D01*
X192791667Y-123676190D01*
X193244048Y-124128571D02*
X193220238Y-124152381D01*
X193148810Y-124176190D01*
X193101191Y-124176190D01*
X193029762Y-124152381D01*
X192982143Y-124104762D01*
X192958334Y-124057143D01*
X192934524Y-123961905D01*
X192934524Y-123890476D01*
X192958334Y-123795238D01*
X192982143Y-123747619D01*
X193029762Y-123700000D01*
X193101191Y-123676190D01*
X193148810Y-123676190D01*
X193220238Y-123700000D01*
X193244048Y-123723810D01*
X193744048Y-124128571D02*
X193720238Y-124152381D01*
X193648810Y-124176190D01*
X193601191Y-124176190D01*
X193529762Y-124152381D01*
X193482143Y-124104762D01*
X193458334Y-124057143D01*
X193434524Y-123961905D01*
X193434524Y-123890476D01*
X193458334Y-123795238D01*
X193482143Y-123747619D01*
X193529762Y-123700000D01*
X193601191Y-123676190D01*
X193648810Y-123676190D01*
X193720238Y-123700000D01*
X193744048Y-123723810D01*
X164375000Y-122555953D02*
X164351190Y-122603572D01*
X164351190Y-122675000D01*
X164375000Y-122746429D01*
X164422619Y-122794048D01*
X164470238Y-122817857D01*
X164565476Y-122841667D01*
X164636905Y-122841667D01*
X164732143Y-122817857D01*
X164779762Y-122794048D01*
X164827381Y-122746429D01*
X164851190Y-122675000D01*
X164851190Y-122627381D01*
X164827381Y-122555953D01*
X164803571Y-122532143D01*
X164636905Y-122532143D01*
X164636905Y-122627381D01*
X164851190Y-122317857D02*
X164351190Y-122317857D01*
X164851190Y-122032143D01*
X164351190Y-122032143D01*
X164851190Y-121794047D02*
X164351190Y-121794047D01*
X164351190Y-121675000D01*
X164375000Y-121603571D01*
X164422619Y-121555952D01*
X164470238Y-121532143D01*
X164565476Y-121508333D01*
X164636905Y-121508333D01*
X164732143Y-121532143D01*
X164779762Y-121555952D01*
X164827381Y-121603571D01*
X164851190Y-121675000D01*
X164851190Y-121794047D01*
X164351190Y-120266666D02*
X164851190Y-120099999D01*
X164351190Y-119933333D01*
X164803571Y-119480952D02*
X164827381Y-119504762D01*
X164851190Y-119576190D01*
X164851190Y-119623809D01*
X164827381Y-119695238D01*
X164779762Y-119742857D01*
X164732143Y-119766666D01*
X164636905Y-119790476D01*
X164565476Y-119790476D01*
X164470238Y-119766666D01*
X164422619Y-119742857D01*
X164375000Y-119695238D01*
X164351190Y-119623809D01*
X164351190Y-119576190D01*
X164375000Y-119504762D01*
X164398810Y-119480952D01*
X164803571Y-118980952D02*
X164827381Y-119004762D01*
X164851190Y-119076190D01*
X164851190Y-119123809D01*
X164827381Y-119195238D01*
X164779762Y-119242857D01*
X164732143Y-119266666D01*
X164636905Y-119290476D01*
X164565476Y-119290476D01*
X164470238Y-119266666D01*
X164422619Y-119242857D01*
X164375000Y-119195238D01*
X164351190Y-119123809D01*
X164351190Y-119076190D01*
X164375000Y-119004762D01*
X164398810Y-118980952D01*
X160726190Y-111852380D02*
X160226190Y-111852380D01*
X160226190Y-111733333D01*
X160250000Y-111661904D01*
X160297619Y-111614285D01*
X160345238Y-111590476D01*
X160440476Y-111566666D01*
X160511905Y-111566666D01*
X160607143Y-111590476D01*
X160654762Y-111614285D01*
X160702381Y-111661904D01*
X160726190Y-111733333D01*
X160726190Y-111852380D01*
X160678571Y-111066666D02*
X160702381Y-111090476D01*
X160726190Y-111161904D01*
X160726190Y-111209523D01*
X160702381Y-111280952D01*
X160654762Y-111328571D01*
X160607143Y-111352380D01*
X160511905Y-111376190D01*
X160440476Y-111376190D01*
X160345238Y-111352380D01*
X160297619Y-111328571D01*
X160250000Y-111280952D01*
X160226190Y-111209523D01*
X160226190Y-111161904D01*
X160250000Y-111090476D01*
X160273810Y-111066666D01*
X160726190Y-110471428D02*
X160226190Y-110471428D01*
X160726190Y-110233333D02*
X160226190Y-110233333D01*
X160726190Y-109947619D01*
X160226190Y-109947619D01*
X160326190Y-114066666D02*
X160826190Y-113899999D01*
X160326190Y-113733333D01*
X160778571Y-113280952D02*
X160802381Y-113304762D01*
X160826190Y-113376190D01*
X160826190Y-113423809D01*
X160802381Y-113495238D01*
X160754762Y-113542857D01*
X160707143Y-113566666D01*
X160611905Y-113590476D01*
X160540476Y-113590476D01*
X160445238Y-113566666D01*
X160397619Y-113542857D01*
X160350000Y-113495238D01*
X160326190Y-113423809D01*
X160326190Y-113376190D01*
X160350000Y-113304762D01*
X160373810Y-113280952D01*
X160778571Y-112780952D02*
X160802381Y-112804762D01*
X160826190Y-112876190D01*
X160826190Y-112923809D01*
X160802381Y-112995238D01*
X160754762Y-113042857D01*
X160707143Y-113066666D01*
X160611905Y-113090476D01*
X160540476Y-113090476D01*
X160445238Y-113066666D01*
X160397619Y-113042857D01*
X160350000Y-112995238D01*
X160326190Y-112923809D01*
X160326190Y-112876190D01*
X160350000Y-112804762D01*
X160373810Y-112780952D01*
D11*
X164550000Y-109100000D02*
X164550000Y-110100000D01*
X166250000Y-110100000D02*
X166250000Y-109100000D01*
X179900000Y-108950000D02*
X178900000Y-108950000D01*
X178900000Y-110650000D02*
X179900000Y-110650000D01*
X184625000Y-115175000D02*
X183625000Y-115175000D01*
X183625000Y-116875000D02*
X184625000Y-116875000D01*
X184975000Y-112925000D02*
X184975000Y-111925000D01*
X183275000Y-111925000D02*
X183275000Y-112925000D01*
X178225000Y-127750000D02*
X179225000Y-127750000D01*
X179225000Y-126050000D02*
X178225000Y-126050000D01*
X175850000Y-119975000D02*
X174850000Y-119975000D01*
X174850000Y-121675000D02*
X175850000Y-121675000D01*
D12*
X169299620Y-120299540D02*
X169299620Y-117500460D01*
X168999900Y-120299540D02*
X168999900Y-117500460D01*
X168100740Y-120299540D02*
X168100740Y-117500460D01*
X168400460Y-117500460D02*
X168400460Y-120299540D01*
X168700180Y-120299540D02*
X168700180Y-117500460D01*
X167801020Y-117500460D02*
X171798980Y-117500460D01*
X171798980Y-117500460D02*
X171798980Y-120299540D01*
X171798980Y-120299540D02*
X167801020Y-120299540D01*
X167801020Y-120299540D02*
X167801020Y-117500460D01*
D11*
X172900000Y-120640000D02*
X172900000Y-122130000D01*
X168550000Y-120400000D02*
X168550000Y-122300000D01*
X168550000Y-122300000D02*
X171500000Y-122300000D01*
X171500000Y-122300000D02*
X171500000Y-120400000D01*
X171500000Y-120400000D02*
X168550000Y-120400000D01*
X167640000Y-106120000D02*
X172740000Y-106120000D01*
X166900000Y-114900000D02*
X166900000Y-108540000D01*
X166900000Y-108540000D02*
X173460000Y-108540000D01*
X173460000Y-108540000D02*
X173460000Y-114900000D01*
X173460000Y-114900000D02*
X166900000Y-114900000D01*
X174925000Y-109000000D02*
X174925000Y-107800000D01*
X176675000Y-107800000D02*
X176675000Y-109000000D01*
X177750000Y-117625000D02*
X176550000Y-117625000D01*
X176550000Y-115875000D02*
X177750000Y-115875000D01*
X185575000Y-112950000D02*
X185575000Y-111750000D01*
X187325000Y-111750000D02*
X187325000Y-112950000D01*
X176050000Y-122000000D02*
X181250000Y-122000000D01*
X181250000Y-125650000D02*
X176050000Y-125650000D01*
X183625000Y-119300000D02*
X184825000Y-119300000D01*
X184825000Y-121050000D02*
X183625000Y-121050000D01*
X184825000Y-118975000D02*
X183625000Y-118975000D01*
X183625000Y-117225000D02*
X184825000Y-117225000D01*
X163670000Y-114630000D02*
X163670000Y-109550000D01*
X163670000Y-109550000D02*
X161130000Y-109550000D01*
X161130000Y-109550000D02*
X161130000Y-114630000D01*
X160850000Y-117450000D02*
X160850000Y-115900000D01*
X161130000Y-114630000D02*
X163670000Y-114630000D01*
X163950000Y-115900000D02*
X163950000Y-117450000D01*
X163950000Y-117450000D02*
X160850000Y-117450000D01*
X176475000Y-111275000D02*
X176475000Y-111475000D01*
X181125000Y-111275000D02*
X181125000Y-111475000D01*
X181125000Y-114525000D02*
X181125000Y-114325000D01*
X176475000Y-114525000D02*
X176475000Y-114325000D01*
X176475000Y-111275000D02*
X181125000Y-111275000D01*
X176475000Y-114525000D02*
X181125000Y-114525000D01*
X176475000Y-111475000D02*
X175125000Y-111475000D01*
X191520000Y-117685000D02*
X191520000Y-114285000D01*
X192280000Y-117685000D02*
X192280000Y-114285000D01*
X188010000Y-120750000D02*
X188010000Y-111220000D01*
X188010000Y-111220000D02*
X197540000Y-111220000D01*
X197540000Y-111220000D02*
X197540000Y-120750000D01*
X197540000Y-120750000D02*
X188010000Y-120750000D01*
X193701735Y-115985000D02*
G75*
G03X193701735Y-115985000I-1801735J0D01*
G01*
X175900000Y-126900000D02*
G75*
G03X175900000Y-126900000I-1000000J0D01*
G01*
X161105000Y-120780000D02*
X161105000Y-118240000D01*
X160825000Y-123600000D02*
X160825000Y-122050000D01*
X161105000Y-120780000D02*
X163645000Y-120780000D01*
X163925000Y-122050000D02*
X163925000Y-123600000D01*
X163925000Y-123600000D02*
X160825000Y-123600000D01*
X163645000Y-120780000D02*
X163645000Y-118240000D01*
X163645000Y-118240000D02*
X161105000Y-118240000D01*
X194670000Y-124880000D02*
X197210000Y-124880000D01*
X191850000Y-124600000D02*
X193400000Y-124600000D01*
X194670000Y-124880000D02*
X194670000Y-127420000D01*
X193400000Y-127700000D02*
X191850000Y-127700000D01*
X191850000Y-127700000D02*
X191850000Y-124600000D01*
X194670000Y-127420000D02*
X197210000Y-127420000D01*
X197210000Y-127420000D02*
X197210000Y-124880000D01*
X163233334Y-108657143D02*
X163185715Y-108704762D01*
X163042858Y-108752381D01*
X162947620Y-108752381D01*
X162804762Y-108704762D01*
X162709524Y-108609524D01*
X162661905Y-108514286D01*
X162614286Y-108323810D01*
X162614286Y-108180952D01*
X162661905Y-107990476D01*
X162709524Y-107895238D01*
X162804762Y-107800000D01*
X162947620Y-107752381D01*
X163042858Y-107752381D01*
X163185715Y-107800000D01*
X163233334Y-107847619D01*
X164185715Y-108752381D02*
X163614286Y-108752381D01*
X163900000Y-108752381D02*
X163900000Y-107752381D01*
X163804762Y-107895238D01*
X163709524Y-107990476D01*
X163614286Y-108038095D01*
X179233334Y-108357143D02*
X179185715Y-108404762D01*
X179042858Y-108452381D01*
X178947620Y-108452381D01*
X178804762Y-108404762D01*
X178709524Y-108309524D01*
X178661905Y-108214286D01*
X178614286Y-108023810D01*
X178614286Y-107880952D01*
X178661905Y-107690476D01*
X178709524Y-107595238D01*
X178804762Y-107500000D01*
X178947620Y-107452381D01*
X179042858Y-107452381D01*
X179185715Y-107500000D01*
X179233334Y-107547619D01*
X179614286Y-107547619D02*
X179661905Y-107500000D01*
X179757143Y-107452381D01*
X179995239Y-107452381D01*
X180090477Y-107500000D01*
X180138096Y-107547619D01*
X180185715Y-107642857D01*
X180185715Y-107738095D01*
X180138096Y-107880952D01*
X179566667Y-108452381D01*
X180185715Y-108452381D01*
X180608334Y-116407143D02*
X180560715Y-116454762D01*
X180417858Y-116502381D01*
X180322620Y-116502381D01*
X180179762Y-116454762D01*
X180084524Y-116359524D01*
X180036905Y-116264286D01*
X179989286Y-116073810D01*
X179989286Y-115930952D01*
X180036905Y-115740476D01*
X180084524Y-115645238D01*
X180179762Y-115550000D01*
X180322620Y-115502381D01*
X180417858Y-115502381D01*
X180560715Y-115550000D01*
X180608334Y-115597619D01*
X180941667Y-115502381D02*
X181560715Y-115502381D01*
X181227381Y-115883333D01*
X181370239Y-115883333D01*
X181465477Y-115930952D01*
X181513096Y-115978571D01*
X181560715Y-116073810D01*
X181560715Y-116311905D01*
X181513096Y-116407143D01*
X181465477Y-116454762D01*
X181370239Y-116502381D01*
X181084524Y-116502381D01*
X180989286Y-116454762D01*
X180941667Y-116407143D01*
X184432143Y-109241666D02*
X184479762Y-109289285D01*
X184527381Y-109432142D01*
X184527381Y-109527380D01*
X184479762Y-109670238D01*
X184384524Y-109765476D01*
X184289286Y-109813095D01*
X184098810Y-109860714D01*
X183955952Y-109860714D01*
X183765476Y-109813095D01*
X183670238Y-109765476D01*
X183575000Y-109670238D01*
X183527381Y-109527380D01*
X183527381Y-109432142D01*
X183575000Y-109289285D01*
X183622619Y-109241666D01*
X183860714Y-108384523D02*
X184527381Y-108384523D01*
X183479762Y-108622619D02*
X184194048Y-108860714D01*
X184194048Y-108241666D01*
X178483334Y-125282143D02*
X178435715Y-125329762D01*
X178292858Y-125377381D01*
X178197620Y-125377381D01*
X178054762Y-125329762D01*
X177959524Y-125234524D01*
X177911905Y-125139286D01*
X177864286Y-124948810D01*
X177864286Y-124805952D01*
X177911905Y-124615476D01*
X177959524Y-124520238D01*
X178054762Y-124425000D01*
X178197620Y-124377381D01*
X178292858Y-124377381D01*
X178435715Y-124425000D01*
X178483334Y-124472619D01*
X179388096Y-124377381D02*
X178911905Y-124377381D01*
X178864286Y-124853571D01*
X178911905Y-124805952D01*
X179007143Y-124758333D01*
X179245239Y-124758333D01*
X179340477Y-124805952D01*
X179388096Y-124853571D01*
X179435715Y-124948810D01*
X179435715Y-125186905D01*
X179388096Y-125282143D01*
X179340477Y-125329762D01*
X179245239Y-125377381D01*
X179007143Y-125377381D01*
X178911905Y-125329762D01*
X178864286Y-125282143D01*
X175183334Y-119482143D02*
X175135715Y-119529762D01*
X174992858Y-119577381D01*
X174897620Y-119577381D01*
X174754762Y-119529762D01*
X174659524Y-119434524D01*
X174611905Y-119339286D01*
X174564286Y-119148810D01*
X174564286Y-119005952D01*
X174611905Y-118815476D01*
X174659524Y-118720238D01*
X174754762Y-118625000D01*
X174897620Y-118577381D01*
X174992858Y-118577381D01*
X175135715Y-118625000D01*
X175183334Y-118672619D01*
X176040477Y-118577381D02*
X175850000Y-118577381D01*
X175754762Y-118625000D01*
X175707143Y-118672619D01*
X175611905Y-118815476D01*
X175564286Y-119005952D01*
X175564286Y-119386905D01*
X175611905Y-119482143D01*
X175659524Y-119529762D01*
X175754762Y-119577381D01*
X175945239Y-119577381D01*
X176040477Y-119529762D01*
X176088096Y-119482143D01*
X176135715Y-119386905D01*
X176135715Y-119148810D01*
X176088096Y-119053571D01*
X176040477Y-119005952D01*
X175945239Y-118958333D01*
X175754762Y-118958333D01*
X175659524Y-119005952D01*
X175611905Y-119053571D01*
X175564286Y-119148810D01*
X166352381Y-119988095D02*
X165352381Y-119988095D01*
X165352381Y-119750000D01*
X165400000Y-119607142D01*
X165495238Y-119511904D01*
X165590476Y-119464285D01*
X165780952Y-119416666D01*
X165923810Y-119416666D01*
X166114286Y-119464285D01*
X166209524Y-119511904D01*
X166304762Y-119607142D01*
X166352381Y-119750000D01*
X166352381Y-119988095D01*
X166352381Y-118464285D02*
X166352381Y-119035714D01*
X166352381Y-118750000D02*
X165352381Y-118750000D01*
X165495238Y-118845238D01*
X165590476Y-118940476D01*
X165638095Y-119035714D01*
X169161905Y-123852381D02*
X169161905Y-122852381D01*
X169400000Y-122852381D01*
X169542858Y-122900000D01*
X169638096Y-122995238D01*
X169685715Y-123090476D01*
X169733334Y-123280952D01*
X169733334Y-123423810D01*
X169685715Y-123614286D01*
X169638096Y-123709524D01*
X169542858Y-123804762D01*
X169400000Y-123852381D01*
X169161905Y-123852381D01*
X170114286Y-122947619D02*
X170161905Y-122900000D01*
X170257143Y-122852381D01*
X170495239Y-122852381D01*
X170590477Y-122900000D01*
X170638096Y-122947619D01*
X170685715Y-123042857D01*
X170685715Y-123138095D01*
X170638096Y-123280952D01*
X170066667Y-123852381D01*
X170685715Y-123852381D01*
X166652381Y-112866666D02*
X166652381Y-113342857D01*
X165652381Y-113342857D01*
X166652381Y-112009523D02*
X166652381Y-112580952D01*
X166652381Y-112295238D02*
X165652381Y-112295238D01*
X165795238Y-112390476D01*
X165890476Y-112485714D01*
X165938095Y-112580952D01*
X178027381Y-107066666D02*
X177551190Y-107400000D01*
X178027381Y-107638095D02*
X177027381Y-107638095D01*
X177027381Y-107257142D01*
X177075000Y-107161904D01*
X177122619Y-107114285D01*
X177217857Y-107066666D01*
X177360714Y-107066666D01*
X177455952Y-107114285D01*
X177503571Y-107161904D01*
X177551190Y-107257142D01*
X177551190Y-107638095D01*
X178027381Y-106114285D02*
X178027381Y-106685714D01*
X178027381Y-106400000D02*
X177027381Y-106400000D01*
X177170238Y-106495238D01*
X177265476Y-106590476D01*
X177313095Y-106685714D01*
X176983334Y-118927381D02*
X176650000Y-118451190D01*
X176411905Y-118927381D02*
X176411905Y-117927381D01*
X176792858Y-117927381D01*
X176888096Y-117975000D01*
X176935715Y-118022619D01*
X176983334Y-118117857D01*
X176983334Y-118260714D01*
X176935715Y-118355952D01*
X176888096Y-118403571D01*
X176792858Y-118451190D01*
X176411905Y-118451190D01*
X177364286Y-118022619D02*
X177411905Y-117975000D01*
X177507143Y-117927381D01*
X177745239Y-117927381D01*
X177840477Y-117975000D01*
X177888096Y-118022619D01*
X177935715Y-118117857D01*
X177935715Y-118213095D01*
X177888096Y-118355952D01*
X177316667Y-118927381D01*
X177935715Y-118927381D01*
X186877381Y-109116666D02*
X186401190Y-109450000D01*
X186877381Y-109688095D02*
X185877381Y-109688095D01*
X185877381Y-109307142D01*
X185925000Y-109211904D01*
X185972619Y-109164285D01*
X186067857Y-109116666D01*
X186210714Y-109116666D01*
X186305952Y-109164285D01*
X186353571Y-109211904D01*
X186401190Y-109307142D01*
X186401190Y-109688095D01*
X185877381Y-108783333D02*
X185877381Y-108164285D01*
X186258333Y-108497619D01*
X186258333Y-108354761D01*
X186305952Y-108259523D01*
X186353571Y-108211904D01*
X186448810Y-108164285D01*
X186686905Y-108164285D01*
X186782143Y-108211904D01*
X186829762Y-108259523D01*
X186877381Y-108354761D01*
X186877381Y-108640476D01*
X186829762Y-108735714D01*
X186782143Y-108783333D01*
X178483334Y-124152381D02*
X178150000Y-123676190D01*
X177911905Y-124152381D02*
X177911905Y-123152381D01*
X178292858Y-123152381D01*
X178388096Y-123200000D01*
X178435715Y-123247619D01*
X178483334Y-123342857D01*
X178483334Y-123485714D01*
X178435715Y-123580952D01*
X178388096Y-123628571D01*
X178292858Y-123676190D01*
X177911905Y-123676190D01*
X179340477Y-123485714D02*
X179340477Y-124152381D01*
X179102381Y-123104762D02*
X178864286Y-123819048D01*
X179483334Y-123819048D01*
X180583334Y-120652381D02*
X180250000Y-120176190D01*
X180011905Y-120652381D02*
X180011905Y-119652381D01*
X180392858Y-119652381D01*
X180488096Y-119700000D01*
X180535715Y-119747619D01*
X180583334Y-119842857D01*
X180583334Y-119985714D01*
X180535715Y-120080952D01*
X180488096Y-120128571D01*
X180392858Y-120176190D01*
X180011905Y-120176190D01*
X181488096Y-119652381D02*
X181011905Y-119652381D01*
X180964286Y-120128571D01*
X181011905Y-120080952D01*
X181107143Y-120033333D01*
X181345239Y-120033333D01*
X181440477Y-120080952D01*
X181488096Y-120128571D01*
X181535715Y-120223810D01*
X181535715Y-120461905D01*
X181488096Y-120557143D01*
X181440477Y-120604762D01*
X181345239Y-120652381D01*
X181107143Y-120652381D01*
X181011905Y-120604762D01*
X180964286Y-120557143D01*
X180608334Y-118552381D02*
X180275000Y-118076190D01*
X180036905Y-118552381D02*
X180036905Y-117552381D01*
X180417858Y-117552381D01*
X180513096Y-117600000D01*
X180560715Y-117647619D01*
X180608334Y-117742857D01*
X180608334Y-117885714D01*
X180560715Y-117980952D01*
X180513096Y-118028571D01*
X180417858Y-118076190D01*
X180036905Y-118076190D01*
X181465477Y-117552381D02*
X181275000Y-117552381D01*
X181179762Y-117600000D01*
X181132143Y-117647619D01*
X181036905Y-117790476D01*
X180989286Y-117980952D01*
X180989286Y-118361905D01*
X181036905Y-118457143D01*
X181084524Y-118504762D01*
X181179762Y-118552381D01*
X181370239Y-118552381D01*
X181465477Y-118504762D01*
X181513096Y-118457143D01*
X181560715Y-118361905D01*
X181560715Y-118123810D01*
X181513096Y-118028571D01*
X181465477Y-117980952D01*
X181370239Y-117933333D01*
X181179762Y-117933333D01*
X181084524Y-117980952D01*
X181036905Y-118028571D01*
X180989286Y-118123810D01*
X165429762Y-117333333D02*
X165477381Y-117190476D01*
X165477381Y-116952380D01*
X165429762Y-116857142D01*
X165382143Y-116809523D01*
X165286905Y-116761904D01*
X165191667Y-116761904D01*
X165096429Y-116809523D01*
X165048810Y-116857142D01*
X165001190Y-116952380D01*
X164953571Y-117142857D01*
X164905952Y-117238095D01*
X164858333Y-117285714D01*
X164763095Y-117333333D01*
X164667857Y-117333333D01*
X164572619Y-117285714D01*
X164525000Y-117238095D01*
X164477381Y-117142857D01*
X164477381Y-116904761D01*
X164525000Y-116761904D01*
X164477381Y-116428571D02*
X165477381Y-116190476D01*
X164763095Y-115999999D01*
X165477381Y-115809523D01*
X164477381Y-115571428D01*
X165477381Y-114666666D02*
X165477381Y-115238095D01*
X165477381Y-114952381D02*
X164477381Y-114952381D01*
X164620238Y-115047619D01*
X164715476Y-115142857D01*
X164763095Y-115238095D01*
X178238095Y-112352381D02*
X178238095Y-113161905D01*
X178285714Y-113257143D01*
X178333333Y-113304762D01*
X178428571Y-113352381D01*
X178619048Y-113352381D01*
X178714286Y-113304762D01*
X178761905Y-113257143D01*
X178809524Y-113161905D01*
X178809524Y-112352381D01*
X179809524Y-113352381D02*
X179238095Y-113352381D01*
X179523809Y-113352381D02*
X179523809Y-112352381D01*
X179428571Y-112495238D01*
X179333333Y-112590476D01*
X179238095Y-112638095D01*
X189552381Y-116770238D02*
X189076190Y-117103572D01*
X189552381Y-117341667D02*
X188552381Y-117341667D01*
X188552381Y-116960714D01*
X188600000Y-116865476D01*
X188647619Y-116817857D01*
X188742857Y-116770238D01*
X188885714Y-116770238D01*
X188980952Y-116817857D01*
X189028571Y-116865476D01*
X189076190Y-116960714D01*
X189076190Y-117341667D01*
X188552381Y-116484524D02*
X189552381Y-116151191D01*
X188552381Y-115817857D01*
X189552381Y-114960714D02*
X189552381Y-115532143D01*
X189552381Y-115246429D02*
X188552381Y-115246429D01*
X188695238Y-115341667D01*
X188790476Y-115436905D01*
X188838095Y-115532143D01*
X184258334Y-127232143D02*
X184210715Y-127279762D01*
X184067858Y-127327381D01*
X183972620Y-127327381D01*
X183829762Y-127279762D01*
X183734524Y-127184524D01*
X183686905Y-127089286D01*
X183639286Y-126898810D01*
X183639286Y-126755952D01*
X183686905Y-126565476D01*
X183734524Y-126470238D01*
X183829762Y-126375000D01*
X183972620Y-126327381D01*
X184067858Y-126327381D01*
X184210715Y-126375000D01*
X184258334Y-126422619D01*
X184591667Y-126327381D02*
X185258334Y-126327381D01*
X184829762Y-127327381D01*
X160645238Y-125177381D02*
X160645238Y-124177381D01*
X160883333Y-124177381D01*
X161026191Y-124225000D01*
X161121429Y-124320238D01*
X161169048Y-124415476D01*
X161216667Y-124605952D01*
X161216667Y-124748810D01*
X161169048Y-124939286D01*
X161121429Y-125034524D01*
X161026191Y-125129762D01*
X160883333Y-125177381D01*
X160645238Y-125177381D01*
X162216667Y-125082143D02*
X162169048Y-125129762D01*
X162026191Y-125177381D01*
X161930953Y-125177381D01*
X161788095Y-125129762D01*
X161692857Y-125034524D01*
X161645238Y-124939286D01*
X161597619Y-124748810D01*
X161597619Y-124605952D01*
X161645238Y-124415476D01*
X161692857Y-124320238D01*
X161788095Y-124225000D01*
X161930953Y-124177381D01*
X162026191Y-124177381D01*
X162169048Y-124225000D01*
X162216667Y-124272619D01*
X163407143Y-125177381D02*
X163407143Y-124177381D01*
X163883333Y-125177381D02*
X163883333Y-124177381D01*
X164454762Y-125177381D01*
X164454762Y-124177381D01*
X186128571Y-126602381D02*
X186128571Y-125602381D01*
X186366666Y-125602381D01*
X186509524Y-125650000D01*
X186604762Y-125745238D01*
X186652381Y-125840476D01*
X186700000Y-126030952D01*
X186700000Y-126173810D01*
X186652381Y-126364286D01*
X186604762Y-126459524D01*
X186509524Y-126554762D01*
X186366666Y-126602381D01*
X186128571Y-126602381D01*
X187700000Y-126507143D02*
X187652381Y-126554762D01*
X187509524Y-126602381D01*
X187414286Y-126602381D01*
X187271428Y-126554762D01*
X187176190Y-126459524D01*
X187128571Y-126364286D01*
X187080952Y-126173810D01*
X187080952Y-126030952D01*
X187128571Y-125840476D01*
X187176190Y-125745238D01*
X187271428Y-125650000D01*
X187414286Y-125602381D01*
X187509524Y-125602381D01*
X187652381Y-125650000D01*
X187700000Y-125697619D01*
X189080952Y-125602381D02*
X189271429Y-125602381D01*
X189366667Y-125650000D01*
X189461905Y-125745238D01*
X189509524Y-125935714D01*
X189509524Y-126269048D01*
X189461905Y-126459524D01*
X189366667Y-126554762D01*
X189271429Y-126602381D01*
X189080952Y-126602381D01*
X188985714Y-126554762D01*
X188890476Y-126459524D01*
X188842857Y-126269048D01*
X188842857Y-125935714D01*
X188890476Y-125745238D01*
X188985714Y-125650000D01*
X189080952Y-125602381D01*
X189938095Y-125602381D02*
X189938095Y-126411905D01*
X189985714Y-126507143D01*
X190033333Y-126554762D01*
X190128571Y-126602381D01*
X190319048Y-126602381D01*
X190414286Y-126554762D01*
X190461905Y-126507143D01*
X190509524Y-126411905D01*
X190509524Y-125602381D01*
X190842857Y-125602381D02*
X191414286Y-125602381D01*
X191128571Y-126602381D02*
X191128571Y-125602381D01*
M02*
