M48
;DRILL file {KiCad 4.0.1-stable} date Tisdag 22 Mars 2016 22:05:38
;FORMAT={-:-/ absolute / inch / decimal}
FMAT,2
INCH,TZ
T1C0.016
T2C0.020
T3C0.031
T4C0.040
T5C0.087
%
G90
G05
M72
T1
X6.4685Y-4.2165
X6.5551Y-4.2165
X6.6535Y-4.3228
X6.6575Y-4.4724
X6.7012Y-4.2799
X6.7012Y-4.5157
X6.9803Y-4.4134
X6.9803Y-4.4409
X7.1496Y-4.3425
X7.3533Y-4.5719
X7.3602Y-4.6545
T2
X7.5896Y-4.4663
X7.5896Y-4.6663
X7.6896Y-4.5663
T3
X6.8858Y-4.9961
X7.1811Y-4.9961
T4
X6.3927Y-4.7051
X6.3927Y-4.8051
X6.3937Y-4.363
X6.3937Y-4.463
X6.3937Y-4.563
X7.6142Y-4.9665
X7.7142Y-4.9665
T5
X7.6929Y-4.2638
T0
M30
