G04 #@! TF.FileFunction,Soldermask,Top*
%FSLAX46Y46*%
G04 Gerber Fmt 4.6, Leading zero omitted, Abs format (unit mm)*
G04 Created by KiCad (PCBNEW 4.0.1-stable) date Tisdag 22 Mars 2016 22:05:33*
%MOMM*%
G01*
G04 APERTURE LIST*
%ADD10C,0.100000*%
%ADD11R,1.351600X1.601600*%
%ADD12R,1.601600X1.351600*%
%ADD13R,1.501140X2.301240*%
%ADD14R,1.951600X1.751600*%
%ADD15R,3.101600X2.051600*%
%ADD16R,5.601600X4.101600*%
%ADD17R,1.401600X1.601600*%
%ADD18R,1.601600X1.401600*%
%ADD19R,2.801600X3.301600*%
%ADD20R,2.133600X1.828800*%
%ADD21O,2.133600X1.828800*%
%ADD22R,1.551600X0.551600*%
%ADD23C,1.611600*%
%ADD24R,1.611600X1.611600*%
%ADD25R,1.401600X1.401600*%
%ADD26C,1.401600*%
%ADD27R,2.133600X2.133600*%
%ADD28O,2.133600X2.133600*%
%ADD29C,2.301600*%
G04 APERTURE END LIST*
D10*
D11*
X165400000Y-110850000D03*
X165400000Y-108350000D03*
D12*
X178150000Y-109800000D03*
X180650000Y-109800000D03*
X182875000Y-116025000D03*
X185375000Y-116025000D03*
D11*
X184125000Y-111175000D03*
X184125000Y-113675000D03*
D12*
X179975000Y-126900000D03*
X177475000Y-126900000D03*
X174100000Y-120825000D03*
X176600000Y-120825000D03*
D13*
X167600360Y-118900000D03*
X171999640Y-118900000D03*
D14*
X168100000Y-121350000D03*
D15*
X171230000Y-121350000D03*
D16*
X170210000Y-108710000D03*
X170210000Y-114700000D03*
D17*
X175800000Y-107050000D03*
X175800000Y-109750000D03*
D18*
X175800000Y-116750000D03*
X178500000Y-116750000D03*
D17*
X186450000Y-111000000D03*
X186450000Y-113700000D03*
D19*
X182600000Y-123825000D03*
X174700000Y-123825000D03*
D18*
X185575000Y-120175000D03*
X182875000Y-120175000D03*
X182875000Y-118100000D03*
X185575000Y-118100000D03*
D20*
X162400000Y-115900000D03*
D21*
X162400000Y-113360000D03*
X162400000Y-110820000D03*
D22*
X175850000Y-111925000D03*
X175850000Y-112575000D03*
X175850000Y-113225000D03*
X175850000Y-113875000D03*
X181750000Y-113875000D03*
X181750000Y-113225000D03*
X181750000Y-112575000D03*
X181750000Y-111925000D03*
D23*
X192775000Y-113445000D03*
D24*
X192775000Y-118525000D03*
D23*
X195315000Y-115985000D03*
D25*
X182400000Y-126900000D03*
D26*
X174900000Y-126900000D03*
D27*
X162375000Y-122050000D03*
D28*
X162375000Y-119510000D03*
D27*
X193400000Y-126150000D03*
D28*
X195940000Y-126150000D03*
D29*
X195400000Y-108300000D03*
M02*
