G04 #@! TF.FileFunction,Legend,Bot*
%FSLAX46Y46*%
G04 Gerber Fmt 4.6, Leading zero omitted, Abs format (unit mm)*
G04 Created by KiCad (PCBNEW 4.0.1-stable) date Tisdag 26 Januari 2016 09:48:20*
%MOMM*%
G01*
G04 APERTURE LIST*
%ADD10C,0.100000*%
%ADD11C,0.300000*%
G04 APERTURE END LIST*
D10*
D11*
X178135713Y-106078571D02*
X178135713Y-104578571D01*
X177778570Y-104578571D01*
X177564285Y-104650000D01*
X177421427Y-104792857D01*
X177349999Y-104935714D01*
X177278570Y-105221429D01*
X177278570Y-105435714D01*
X177349999Y-105721429D01*
X177421427Y-105864286D01*
X177564285Y-106007143D01*
X177778570Y-106078571D01*
X178135713Y-106078571D01*
X175778570Y-106078571D02*
X176278570Y-105364286D01*
X176635713Y-106078571D02*
X176635713Y-104578571D01*
X176064285Y-104578571D01*
X175921427Y-104650000D01*
X175849999Y-104721429D01*
X175778570Y-104864286D01*
X175778570Y-105078571D01*
X175849999Y-105221429D01*
X175921427Y-105292857D01*
X176064285Y-105364286D01*
X176635713Y-105364286D01*
X175207142Y-105650000D02*
X174492856Y-105650000D01*
X175349999Y-106078571D02*
X174849999Y-104578571D01*
X174349999Y-106078571D01*
X173635713Y-105221429D02*
X173778571Y-105150000D01*
X173849999Y-105078571D01*
X173921428Y-104935714D01*
X173921428Y-104864286D01*
X173849999Y-104721429D01*
X173778571Y-104650000D01*
X173635713Y-104578571D01*
X173349999Y-104578571D01*
X173207142Y-104650000D01*
X173135713Y-104721429D01*
X173064285Y-104864286D01*
X173064285Y-104935714D01*
X173135713Y-105078571D01*
X173207142Y-105150000D01*
X173349999Y-105221429D01*
X173635713Y-105221429D01*
X173778571Y-105292857D01*
X173849999Y-105364286D01*
X173921428Y-105507143D01*
X173921428Y-105792857D01*
X173849999Y-105935714D01*
X173778571Y-106007143D01*
X173635713Y-106078571D01*
X173349999Y-106078571D01*
X173207142Y-106007143D01*
X173135713Y-105935714D01*
X173064285Y-105792857D01*
X173064285Y-105507143D01*
X173135713Y-105364286D01*
X173207142Y-105292857D01*
X173349999Y-105221429D01*
X171635714Y-106078571D02*
X172492857Y-106078571D01*
X172064285Y-106078571D02*
X172064285Y-104578571D01*
X172207142Y-104792857D01*
X172350000Y-104935714D01*
X172492857Y-105007143D01*
X170778571Y-105221429D02*
X170921429Y-105150000D01*
X170992857Y-105078571D01*
X171064286Y-104935714D01*
X171064286Y-104864286D01*
X170992857Y-104721429D01*
X170921429Y-104650000D01*
X170778571Y-104578571D01*
X170492857Y-104578571D01*
X170350000Y-104650000D01*
X170278571Y-104721429D01*
X170207143Y-104864286D01*
X170207143Y-104935714D01*
X170278571Y-105078571D01*
X170350000Y-105150000D01*
X170492857Y-105221429D01*
X170778571Y-105221429D01*
X170921429Y-105292857D01*
X170992857Y-105364286D01*
X171064286Y-105507143D01*
X171064286Y-105792857D01*
X170992857Y-105935714D01*
X170921429Y-106007143D01*
X170778571Y-106078571D01*
X170492857Y-106078571D01*
X170350000Y-106007143D01*
X170278571Y-105935714D01*
X170207143Y-105792857D01*
X170207143Y-105507143D01*
X170278571Y-105364286D01*
X170350000Y-105292857D01*
X170492857Y-105221429D01*
X168421429Y-106078571D02*
X168421429Y-104578571D01*
X168421429Y-105150000D02*
X168278572Y-105078571D01*
X167992858Y-105078571D01*
X167850001Y-105150000D01*
X167778572Y-105221429D01*
X167707143Y-105364286D01*
X167707143Y-105792857D01*
X167778572Y-105935714D01*
X167850001Y-106007143D01*
X167992858Y-106078571D01*
X168278572Y-106078571D01*
X168421429Y-106007143D01*
X167064286Y-106078571D02*
X167064286Y-105078571D01*
X167064286Y-105364286D02*
X166992858Y-105221429D01*
X166921429Y-105150000D01*
X166778572Y-105078571D01*
X166635715Y-105078571D01*
X165564287Y-106007143D02*
X165707144Y-106078571D01*
X165992858Y-106078571D01*
X166135715Y-106007143D01*
X166207144Y-105864286D01*
X166207144Y-105292857D01*
X166135715Y-105150000D01*
X165992858Y-105078571D01*
X165707144Y-105078571D01*
X165564287Y-105150000D01*
X165492858Y-105292857D01*
X165492858Y-105435714D01*
X166207144Y-105578571D01*
X164207144Y-106078571D02*
X164207144Y-105292857D01*
X164278573Y-105150000D01*
X164421430Y-105078571D01*
X164707144Y-105078571D01*
X164850001Y-105150000D01*
X164207144Y-106007143D02*
X164350001Y-106078571D01*
X164707144Y-106078571D01*
X164850001Y-106007143D01*
X164921430Y-105864286D01*
X164921430Y-105721429D01*
X164850001Y-105578571D01*
X164707144Y-105507143D01*
X164350001Y-105507143D01*
X164207144Y-105435714D01*
X163492858Y-106078571D02*
X163492858Y-104578571D01*
X163350001Y-105507143D02*
X162921430Y-106078571D01*
X162921430Y-105078571D02*
X163492858Y-105650000D01*
X162064286Y-106078571D02*
X162207144Y-106007143D01*
X162278572Y-105935714D01*
X162350001Y-105792857D01*
X162350001Y-105364286D01*
X162278572Y-105221429D01*
X162207144Y-105150000D01*
X162064286Y-105078571D01*
X161850001Y-105078571D01*
X161707144Y-105150000D01*
X161635715Y-105221429D01*
X161564286Y-105364286D01*
X161564286Y-105792857D01*
X161635715Y-105935714D01*
X161707144Y-106007143D01*
X161850001Y-106078571D01*
X162064286Y-106078571D01*
X160278572Y-105078571D02*
X160278572Y-106078571D01*
X160921429Y-105078571D02*
X160921429Y-105864286D01*
X160850001Y-106007143D01*
X160707143Y-106078571D01*
X160492858Y-106078571D01*
X160350001Y-106007143D01*
X160278572Y-105935714D01*
X159778572Y-105078571D02*
X159207143Y-105078571D01*
X159564286Y-104578571D02*
X159564286Y-105864286D01*
X159492858Y-106007143D01*
X159350000Y-106078571D01*
X159207143Y-106078571D01*
X157564286Y-106078571D02*
X157564286Y-104578571D01*
X157564286Y-105150000D02*
X157421429Y-105078571D01*
X157135715Y-105078571D01*
X156992858Y-105150000D01*
X156921429Y-105221429D01*
X156850000Y-105364286D01*
X156850000Y-105792857D01*
X156921429Y-105935714D01*
X156992858Y-106007143D01*
X157135715Y-106078571D01*
X157421429Y-106078571D01*
X157564286Y-106007143D01*
X155992857Y-106078571D02*
X156135715Y-106007143D01*
X156207143Y-105935714D01*
X156278572Y-105792857D01*
X156278572Y-105364286D01*
X156207143Y-105221429D01*
X156135715Y-105150000D01*
X155992857Y-105078571D01*
X155778572Y-105078571D01*
X155635715Y-105150000D01*
X155564286Y-105221429D01*
X155492857Y-105364286D01*
X155492857Y-105792857D01*
X155564286Y-105935714D01*
X155635715Y-106007143D01*
X155778572Y-106078571D01*
X155992857Y-106078571D01*
X154207143Y-106078571D02*
X154207143Y-105292857D01*
X154278572Y-105150000D01*
X154421429Y-105078571D01*
X154707143Y-105078571D01*
X154850000Y-105150000D01*
X154207143Y-106007143D02*
X154350000Y-106078571D01*
X154707143Y-106078571D01*
X154850000Y-106007143D01*
X154921429Y-105864286D01*
X154921429Y-105721429D01*
X154850000Y-105578571D01*
X154707143Y-105507143D01*
X154350000Y-105507143D01*
X154207143Y-105435714D01*
X153492857Y-106078571D02*
X153492857Y-105078571D01*
X153492857Y-105364286D02*
X153421429Y-105221429D01*
X153350000Y-105150000D01*
X153207143Y-105078571D01*
X153064286Y-105078571D01*
X151921429Y-106078571D02*
X151921429Y-104578571D01*
X151921429Y-106007143D02*
X152064286Y-106078571D01*
X152350000Y-106078571D01*
X152492858Y-106007143D01*
X152564286Y-105935714D01*
X152635715Y-105792857D01*
X152635715Y-105364286D01*
X152564286Y-105221429D01*
X152492858Y-105150000D01*
X152350000Y-105078571D01*
X152064286Y-105078571D01*
X151921429Y-105150000D01*
X150207143Y-105078571D02*
X149850000Y-106078571D01*
X149492858Y-105078571D01*
X148635715Y-104578571D02*
X148492858Y-104578571D01*
X148350001Y-104650000D01*
X148278572Y-104721429D01*
X148207143Y-104864286D01*
X148135715Y-105150000D01*
X148135715Y-105507143D01*
X148207143Y-105792857D01*
X148278572Y-105935714D01*
X148350001Y-106007143D01*
X148492858Y-106078571D01*
X148635715Y-106078571D01*
X148778572Y-106007143D01*
X148850001Y-105935714D01*
X148921429Y-105792857D01*
X148992858Y-105507143D01*
X148992858Y-105150000D01*
X148921429Y-104864286D01*
X148850001Y-104721429D01*
X148778572Y-104650000D01*
X148635715Y-104578571D01*
X147492858Y-105935714D02*
X147421430Y-106007143D01*
X147492858Y-106078571D01*
X147564287Y-106007143D01*
X147492858Y-105935714D01*
X147492858Y-106078571D01*
X145992858Y-106078571D02*
X146850001Y-106078571D01*
X146421429Y-106078571D02*
X146421429Y-104578571D01*
X146564286Y-104792857D01*
X146707144Y-104935714D01*
X146850001Y-105007143D01*
X176992855Y-107692857D02*
X176778569Y-107764286D01*
X176707141Y-107835714D01*
X176635712Y-107978571D01*
X176635712Y-108192857D01*
X176707141Y-108335714D01*
X176778569Y-108407143D01*
X176921427Y-108478571D01*
X177492855Y-108478571D01*
X177492855Y-106978571D01*
X176992855Y-106978571D01*
X176849998Y-107050000D01*
X176778569Y-107121429D01*
X176707141Y-107264286D01*
X176707141Y-107407143D01*
X176778569Y-107550000D01*
X176849998Y-107621429D01*
X176992855Y-107692857D01*
X177492855Y-107692857D01*
X176135712Y-107478571D02*
X175778569Y-108478571D01*
X175421427Y-107478571D02*
X175778569Y-108478571D01*
X175921427Y-108835714D01*
X175992855Y-108907143D01*
X176135712Y-108978571D01*
X172778570Y-107764286D02*
X172849998Y-107692857D01*
X172992855Y-107621429D01*
X173135713Y-107621429D01*
X173278570Y-107692857D01*
X173349998Y-107764286D01*
X173421427Y-107907143D01*
X173421427Y-108050000D01*
X173349998Y-108192857D01*
X173278570Y-108264286D01*
X173135713Y-108335714D01*
X172992855Y-108335714D01*
X172849998Y-108264286D01*
X172778570Y-108192857D01*
X172778570Y-107621429D02*
X172778570Y-108192857D01*
X172707141Y-108264286D01*
X172635713Y-108264286D01*
X172492855Y-108192857D01*
X172421427Y-108050000D01*
X172421427Y-107692857D01*
X172564284Y-107478571D01*
X172778570Y-107335714D01*
X173064284Y-107264286D01*
X173349998Y-107335714D01*
X173564284Y-107478571D01*
X173707141Y-107692857D01*
X173778570Y-107978571D01*
X173707141Y-108264286D01*
X173564284Y-108478571D01*
X173349998Y-108621429D01*
X173064284Y-108692857D01*
X172778570Y-108621429D01*
X172564284Y-108478571D01*
X171778570Y-108478571D02*
X171778570Y-107478571D01*
X171778570Y-107621429D02*
X171707142Y-107550000D01*
X171564284Y-107478571D01*
X171349999Y-107478571D01*
X171207142Y-107550000D01*
X171135713Y-107692857D01*
X171135713Y-108478571D01*
X171135713Y-107692857D02*
X171064284Y-107550000D01*
X170921427Y-107478571D01*
X170707142Y-107478571D01*
X170564284Y-107550000D01*
X170492856Y-107692857D01*
X170492856Y-108478571D01*
X169778570Y-108478571D02*
X169778570Y-107478571D01*
X169778570Y-106978571D02*
X169849999Y-107050000D01*
X169778570Y-107121429D01*
X169707142Y-107050000D01*
X169778570Y-106978571D01*
X169778570Y-107121429D01*
X169064284Y-108478571D02*
X169064284Y-106978571D01*
X168921427Y-107907143D02*
X168492856Y-108478571D01*
X168492856Y-107478571D02*
X169064284Y-108050000D01*
X167207141Y-107478571D02*
X167207141Y-108478571D01*
X167564284Y-106907143D02*
X167921427Y-107978571D01*
X166992855Y-107978571D01*
X165849999Y-108407143D02*
X165992856Y-108478571D01*
X166278570Y-108478571D01*
X166421427Y-108407143D01*
X166492856Y-108264286D01*
X166492856Y-107692857D01*
X166421427Y-107550000D01*
X166278570Y-107478571D01*
X165992856Y-107478571D01*
X165849999Y-107550000D01*
X165778570Y-107692857D01*
X165778570Y-107835714D01*
X166492856Y-107978571D01*
X164921427Y-108478571D02*
X165064285Y-108407143D01*
X165135713Y-108264286D01*
X165135713Y-106978571D01*
X163707142Y-107478571D02*
X163707142Y-108478571D01*
X164064285Y-106907143D02*
X164421428Y-107978571D01*
X163492856Y-107978571D01*
X162921428Y-107478571D02*
X162921428Y-108478571D01*
X162921428Y-107621429D02*
X162850000Y-107550000D01*
X162707142Y-107478571D01*
X162492857Y-107478571D01*
X162350000Y-107550000D01*
X162278571Y-107692857D01*
X162278571Y-108478571D01*
X160921428Y-108478571D02*
X160921428Y-106978571D01*
X160921428Y-108407143D02*
X161064285Y-108478571D01*
X161349999Y-108478571D01*
X161492857Y-108407143D01*
X161564285Y-108335714D01*
X161635714Y-108192857D01*
X161635714Y-107764286D01*
X161564285Y-107621429D01*
X161492857Y-107550000D01*
X161349999Y-107478571D01*
X161064285Y-107478571D01*
X160921428Y-107550000D01*
X159635714Y-108407143D02*
X159778571Y-108478571D01*
X160064285Y-108478571D01*
X160207142Y-108407143D01*
X160278571Y-108264286D01*
X160278571Y-107692857D01*
X160207142Y-107550000D01*
X160064285Y-107478571D01*
X159778571Y-107478571D01*
X159635714Y-107550000D01*
X159564285Y-107692857D01*
X159564285Y-107835714D01*
X160278571Y-107978571D01*
X158921428Y-108478571D02*
X158921428Y-107478571D01*
X158921428Y-107764286D02*
X158850000Y-107621429D01*
X158778571Y-107550000D01*
X158635714Y-107478571D01*
X158492857Y-107478571D01*
X158064286Y-108407143D02*
X157921429Y-108478571D01*
X157635714Y-108478571D01*
X157492857Y-108407143D01*
X157421429Y-108264286D01*
X157421429Y-108192857D01*
X157492857Y-108050000D01*
X157635714Y-107978571D01*
X157850000Y-107978571D01*
X157992857Y-107907143D01*
X158064286Y-107764286D01*
X158064286Y-107692857D01*
X157992857Y-107550000D01*
X157850000Y-107478571D01*
X157635714Y-107478571D01*
X157492857Y-107550000D01*
X156850000Y-108407143D02*
X156707143Y-108478571D01*
X156421428Y-108478571D01*
X156278571Y-108407143D01*
X156207143Y-108264286D01*
X156207143Y-108192857D01*
X156278571Y-108050000D01*
X156421428Y-107978571D01*
X156635714Y-107978571D01*
X156778571Y-107907143D01*
X156850000Y-107764286D01*
X156850000Y-107692857D01*
X156778571Y-107550000D01*
X156635714Y-107478571D01*
X156421428Y-107478571D01*
X156278571Y-107550000D01*
X155349999Y-108478571D02*
X155492857Y-108407143D01*
X155564285Y-108335714D01*
X155635714Y-108192857D01*
X155635714Y-107764286D01*
X155564285Y-107621429D01*
X155492857Y-107550000D01*
X155349999Y-107478571D01*
X155135714Y-107478571D01*
X154992857Y-107550000D01*
X154921428Y-107621429D01*
X154849999Y-107764286D01*
X154849999Y-108192857D01*
X154921428Y-108335714D01*
X154992857Y-108407143D01*
X155135714Y-108478571D01*
X155349999Y-108478571D01*
X154207142Y-107478571D02*
X154207142Y-108478571D01*
X154207142Y-107621429D02*
X154135714Y-107550000D01*
X153992856Y-107478571D01*
X153778571Y-107478571D01*
X153635714Y-107550000D01*
X153564285Y-107692857D01*
X153564285Y-108478571D01*
X151778571Y-107121429D02*
X151707142Y-107050000D01*
X151564285Y-106978571D01*
X151207142Y-106978571D01*
X151064285Y-107050000D01*
X150992856Y-107121429D01*
X150921428Y-107264286D01*
X150921428Y-107407143D01*
X150992856Y-107621429D01*
X151849999Y-108478571D01*
X150921428Y-108478571D01*
X149992857Y-106978571D02*
X149850000Y-106978571D01*
X149707143Y-107050000D01*
X149635714Y-107121429D01*
X149564285Y-107264286D01*
X149492857Y-107550000D01*
X149492857Y-107907143D01*
X149564285Y-108192857D01*
X149635714Y-108335714D01*
X149707143Y-108407143D01*
X149850000Y-108478571D01*
X149992857Y-108478571D01*
X150135714Y-108407143D01*
X150207143Y-108335714D01*
X150278571Y-108192857D01*
X150350000Y-107907143D01*
X150350000Y-107550000D01*
X150278571Y-107264286D01*
X150207143Y-107121429D01*
X150135714Y-107050000D01*
X149992857Y-106978571D01*
X148064286Y-108478571D02*
X148921429Y-108478571D01*
X148492857Y-108478571D02*
X148492857Y-106978571D01*
X148635714Y-107192857D01*
X148778572Y-107335714D01*
X148921429Y-107407143D01*
X146778572Y-106978571D02*
X147064286Y-106978571D01*
X147207143Y-107050000D01*
X147278572Y-107121429D01*
X147421429Y-107335714D01*
X147492858Y-107621429D01*
X147492858Y-108192857D01*
X147421429Y-108335714D01*
X147350001Y-108407143D01*
X147207143Y-108478571D01*
X146921429Y-108478571D01*
X146778572Y-108407143D01*
X146707143Y-108335714D01*
X146635715Y-108192857D01*
X146635715Y-107835714D01*
X146707143Y-107692857D01*
X146778572Y-107621429D01*
X146921429Y-107550000D01*
X147207143Y-107550000D01*
X147350001Y-107621429D01*
X147421429Y-107692857D01*
X147492858Y-107835714D01*
M02*
