G04 #@! TF.FileFunction,Copper,L1,Top,Signal*
%FSLAX46Y46*%
G04 Gerber Fmt 4.6, Leading zero omitted, Abs format (unit mm)*
G04 Created by KiCad (PCBNEW 4.0.1-stable) date Tisdag 26 Januari 2016 09:48:20*
%MOMM*%
G01*
G04 APERTURE LIST*
%ADD10C,0.100000*%
%ADD11R,1.250000X1.500000*%
%ADD12R,1.727200X2.032000*%
%ADD13O,1.727200X2.032000*%
%ADD14R,2.000000X4.000000*%
%ADD15R,4.000000X2.000000*%
%ADD16C,2.200000*%
%ADD17C,0.600000*%
%ADD18C,0.900000*%
%ADD19C,0.250000*%
%ADD20C,0.254000*%
G04 APERTURE END LIST*
D10*
D11*
X179300000Y-108950000D03*
X179300000Y-111450000D03*
D12*
X144000000Y-101300000D03*
D13*
X146540000Y-101300000D03*
X149080000Y-101300000D03*
X151620000Y-101300000D03*
X154160000Y-101300000D03*
X156700000Y-101300000D03*
X159240000Y-101300000D03*
X161780000Y-101300000D03*
X164320000Y-101300000D03*
X166860000Y-101300000D03*
D14*
X143450000Y-106600000D03*
X147900000Y-106600000D03*
X152350000Y-106600000D03*
X156800000Y-106600000D03*
X161250000Y-106600000D03*
X165700000Y-106600000D03*
X170150000Y-106600000D03*
X143450000Y-125500000D03*
X147900000Y-125500000D03*
X152350000Y-125500000D03*
X156800000Y-125500000D03*
X161250000Y-125500000D03*
X165700000Y-125500000D03*
X170150000Y-125500000D03*
D15*
X174600000Y-109200000D03*
X174600000Y-113800000D03*
X174600000Y-118400000D03*
X174600000Y-123000000D03*
D16*
X181500000Y-123800000D03*
X184000000Y-126400000D03*
X184000000Y-121200000D03*
X181200000Y-121200000D03*
X181200000Y-126400000D03*
D17*
X155900000Y-114700000D03*
X159800000Y-113400000D03*
X164300000Y-111900000D03*
D18*
X179300000Y-108950000D02*
X174850000Y-108950000D01*
X174850000Y-108950000D02*
X174600000Y-109200000D01*
X156700000Y-101300000D02*
X156700000Y-99800000D01*
X170400000Y-99400000D02*
X179300000Y-108300000D01*
X157100000Y-99400000D02*
X170400000Y-99400000D01*
X156700000Y-99800000D02*
X157100000Y-99400000D01*
X179300000Y-108300000D02*
X179300000Y-108950000D01*
X179300000Y-111450000D02*
X176950000Y-111450000D01*
X176950000Y-111450000D02*
X174600000Y-113800000D01*
X174600000Y-113800000D02*
X174600000Y-118400000D01*
X174600000Y-118400000D02*
X177400000Y-121200000D01*
X177400000Y-121200000D02*
X184000000Y-121200000D01*
X184000000Y-121200000D02*
X184000000Y-126400000D01*
X184000000Y-126400000D02*
X181200000Y-126400000D01*
X170150000Y-125500000D02*
X179500000Y-125500000D01*
X179500000Y-125500000D02*
X181200000Y-123800000D01*
D19*
X144000000Y-101300000D02*
X144000000Y-103300000D01*
X143450000Y-103850000D02*
X143450000Y-106600000D01*
X144000000Y-103300000D02*
X143450000Y-103850000D01*
X146540000Y-101300000D02*
X146600000Y-101300000D01*
X146600000Y-101300000D02*
X149100000Y-103800000D01*
X149100000Y-103800000D02*
X151900000Y-103800000D01*
X151900000Y-103800000D02*
X152350000Y-104250000D01*
X152350000Y-104250000D02*
X152350000Y-106600000D01*
X150100000Y-103000000D02*
X150200000Y-103100000D01*
X161250000Y-106600000D02*
X161250000Y-109750000D01*
X160700000Y-110300000D02*
X161250000Y-109750000D01*
X155200000Y-110300000D02*
X160700000Y-110300000D01*
X154600000Y-109700000D02*
X155200000Y-110300000D01*
X154600000Y-104500000D02*
X154600000Y-109700000D01*
X150100000Y-103000000D02*
X149080000Y-101980000D01*
X153900000Y-103800000D02*
X154600000Y-104500000D01*
X153200000Y-103800000D02*
X153900000Y-103800000D01*
X152500000Y-103100000D02*
X153200000Y-103800000D01*
X150200000Y-103100000D02*
X152500000Y-103100000D01*
X149080000Y-101300000D02*
X149080000Y-101980000D01*
X151620000Y-101300000D02*
X151700000Y-101300000D01*
X151700000Y-101300000D02*
X153600000Y-103200000D01*
X153600000Y-103200000D02*
X154700000Y-103200000D01*
X154700000Y-103200000D02*
X155200000Y-103700000D01*
X155200000Y-103700000D02*
X164900000Y-103700000D01*
X164900000Y-103700000D02*
X165700000Y-104500000D01*
X165700000Y-104500000D02*
X165700000Y-106600000D01*
X154160000Y-101300000D02*
X154160000Y-101360000D01*
X154160000Y-101360000D02*
X155800000Y-103000000D01*
X155800000Y-103000000D02*
X166550000Y-103000000D01*
X166550000Y-103000000D02*
X170150000Y-106600000D01*
X152350000Y-118250000D02*
X152350000Y-125500000D01*
X155900000Y-114700000D02*
X152350000Y-118250000D01*
X147900000Y-116000000D02*
X147900000Y-125500000D01*
X150500000Y-113400000D02*
X147900000Y-116000000D01*
X159800000Y-113400000D02*
X150500000Y-113400000D01*
X143450000Y-116750000D02*
X143450000Y-125500000D01*
X148300000Y-111900000D02*
X143450000Y-116750000D01*
X164300000Y-111900000D02*
X148300000Y-111900000D01*
D20*
G36*
X155697591Y-99384788D02*
X155615000Y-99800000D01*
X155615000Y-100093494D01*
X155430000Y-100370366D01*
X155219670Y-100055585D01*
X154733489Y-99730729D01*
X154160000Y-99616655D01*
X153586511Y-99730729D01*
X153100330Y-100055585D01*
X152890000Y-100370366D01*
X152679670Y-100055585D01*
X152193489Y-99730729D01*
X151620000Y-99616655D01*
X151046511Y-99730729D01*
X150560330Y-100055585D01*
X150350000Y-100370366D01*
X150139670Y-100055585D01*
X149653489Y-99730729D01*
X149080000Y-99616655D01*
X148506511Y-99730729D01*
X148020330Y-100055585D01*
X147810000Y-100370366D01*
X147599670Y-100055585D01*
X147113489Y-99730729D01*
X146540000Y-99616655D01*
X145966511Y-99730729D01*
X145480330Y-100055585D01*
X145470757Y-100069913D01*
X145466762Y-100048683D01*
X145327690Y-99832559D01*
X145115490Y-99687569D01*
X144863600Y-99636560D01*
X143136400Y-99636560D01*
X142901083Y-99680838D01*
X142684959Y-99819910D01*
X142539969Y-100032110D01*
X142488960Y-100284000D01*
X142488960Y-102316000D01*
X142533238Y-102551317D01*
X142672310Y-102767441D01*
X142884510Y-102912431D01*
X143136400Y-102963440D01*
X143240000Y-102963440D01*
X143240000Y-102985198D01*
X142912599Y-103312599D01*
X142747852Y-103559161D01*
X142690000Y-103850000D01*
X142690000Y-103952560D01*
X142450000Y-103952560D01*
X142214683Y-103996838D01*
X141998559Y-104135910D01*
X141853569Y-104348110D01*
X141802560Y-104600000D01*
X141802560Y-108600000D01*
X141846838Y-108835317D01*
X141985910Y-109051441D01*
X142198110Y-109196431D01*
X142450000Y-109247440D01*
X144450000Y-109247440D01*
X144685317Y-109203162D01*
X144901441Y-109064090D01*
X145046431Y-108851890D01*
X145097440Y-108600000D01*
X145097440Y-104600000D01*
X145053162Y-104364683D01*
X144914090Y-104148559D01*
X144701890Y-104003569D01*
X144450000Y-103952560D01*
X144422242Y-103952560D01*
X144537401Y-103837401D01*
X144702148Y-103590840D01*
X144738286Y-103409161D01*
X144760000Y-103300000D01*
X144760000Y-102963440D01*
X144863600Y-102963440D01*
X145098917Y-102919162D01*
X145315041Y-102780090D01*
X145460031Y-102567890D01*
X145468400Y-102526561D01*
X145480330Y-102544415D01*
X145966511Y-102869271D01*
X146540000Y-102983345D01*
X147097625Y-102872427D01*
X148177758Y-103952560D01*
X146900000Y-103952560D01*
X146664683Y-103996838D01*
X146448559Y-104135910D01*
X146303569Y-104348110D01*
X146252560Y-104600000D01*
X146252560Y-108600000D01*
X146296838Y-108835317D01*
X146435910Y-109051441D01*
X146648110Y-109196431D01*
X146900000Y-109247440D01*
X148900000Y-109247440D01*
X149135317Y-109203162D01*
X149351441Y-109064090D01*
X149496431Y-108851890D01*
X149547440Y-108600000D01*
X149547440Y-104600000D01*
X149539913Y-104560000D01*
X150710660Y-104560000D01*
X150702560Y-104600000D01*
X150702560Y-108600000D01*
X150746838Y-108835317D01*
X150885910Y-109051441D01*
X151098110Y-109196431D01*
X151350000Y-109247440D01*
X153350000Y-109247440D01*
X153585317Y-109203162D01*
X153801441Y-109064090D01*
X153840000Y-109007657D01*
X153840000Y-109700000D01*
X153897852Y-109990839D01*
X154062599Y-110237401D01*
X154662599Y-110837401D01*
X154909161Y-111002148D01*
X155200000Y-111060000D01*
X160700000Y-111060000D01*
X160990839Y-111002148D01*
X161237401Y-110837401D01*
X161787401Y-110287401D01*
X161952148Y-110040840D01*
X161973138Y-109935317D01*
X162010000Y-109750000D01*
X162010000Y-109247440D01*
X162250000Y-109247440D01*
X162485317Y-109203162D01*
X162701441Y-109064090D01*
X162846431Y-108851890D01*
X162897440Y-108600000D01*
X162897440Y-104600000D01*
X162871097Y-104460000D01*
X164080911Y-104460000D01*
X164052560Y-104600000D01*
X164052560Y-108600000D01*
X164096838Y-108835317D01*
X164235910Y-109051441D01*
X164448110Y-109196431D01*
X164700000Y-109247440D01*
X166700000Y-109247440D01*
X166935317Y-109203162D01*
X167151441Y-109064090D01*
X167296431Y-108851890D01*
X167347440Y-108600000D01*
X167347440Y-104872242D01*
X168502560Y-106027362D01*
X168502560Y-108600000D01*
X168546838Y-108835317D01*
X168685910Y-109051441D01*
X168898110Y-109196431D01*
X169150000Y-109247440D01*
X171150000Y-109247440D01*
X171385317Y-109203162D01*
X171601441Y-109064090D01*
X171746431Y-108851890D01*
X171797440Y-108600000D01*
X171797440Y-104600000D01*
X171753162Y-104364683D01*
X171614090Y-104148559D01*
X171401890Y-104003569D01*
X171150000Y-103952560D01*
X169150000Y-103952560D01*
X168914683Y-103996838D01*
X168736377Y-104111575D01*
X167469806Y-102845004D01*
X167919670Y-102544415D01*
X168244526Y-102058234D01*
X168358600Y-101484745D01*
X168358600Y-101115255D01*
X168244526Y-100541766D01*
X168206596Y-100485000D01*
X169950578Y-100485000D01*
X177330578Y-107865000D01*
X177139018Y-107865000D01*
X177064090Y-107748559D01*
X176851890Y-107603569D01*
X176600000Y-107552560D01*
X172600000Y-107552560D01*
X172364683Y-107596838D01*
X172148559Y-107735910D01*
X172003569Y-107948110D01*
X171952560Y-108200000D01*
X171952560Y-110200000D01*
X171996838Y-110435317D01*
X172135910Y-110651441D01*
X172348110Y-110796431D01*
X172600000Y-110847440D01*
X176600000Y-110847440D01*
X176835317Y-110803162D01*
X177051441Y-110664090D01*
X177196431Y-110451890D01*
X177247440Y-110200000D01*
X177247440Y-110035000D01*
X178135982Y-110035000D01*
X178210910Y-110151441D01*
X178279006Y-110197969D01*
X178136673Y-110340302D01*
X178040000Y-110573691D01*
X178040000Y-111164250D01*
X178198750Y-111323000D01*
X179173000Y-111323000D01*
X179173000Y-111303000D01*
X179427000Y-111303000D01*
X179427000Y-111323000D01*
X180401250Y-111323000D01*
X180560000Y-111164250D01*
X180560000Y-110573691D01*
X180463327Y-110340302D01*
X180322090Y-110199064D01*
X180376441Y-110164090D01*
X180521431Y-109951890D01*
X180572440Y-109700000D01*
X180572440Y-108200000D01*
X180528162Y-107964683D01*
X180389090Y-107748559D01*
X180176890Y-107603569D01*
X180104742Y-107588959D01*
X180067211Y-107532789D01*
X171744422Y-99210000D01*
X185590000Y-99210000D01*
X185590000Y-120477853D01*
X185502099Y-120265641D01*
X185224868Y-120154737D01*
X184179605Y-121200000D01*
X185224868Y-122245263D01*
X185502099Y-122134359D01*
X185590000Y-121900912D01*
X185590000Y-125677853D01*
X185502099Y-125465641D01*
X185224868Y-125354737D01*
X184179605Y-126400000D01*
X185224868Y-127445263D01*
X185502099Y-127334359D01*
X185590000Y-127100912D01*
X185590000Y-128490000D01*
X138710000Y-128490000D01*
X138710000Y-123500000D01*
X141802560Y-123500000D01*
X141802560Y-127500000D01*
X141846838Y-127735317D01*
X141985910Y-127951441D01*
X142198110Y-128096431D01*
X142450000Y-128147440D01*
X144450000Y-128147440D01*
X144685317Y-128103162D01*
X144901441Y-127964090D01*
X145046431Y-127751890D01*
X145097440Y-127500000D01*
X145097440Y-123500000D01*
X145053162Y-123264683D01*
X144914090Y-123048559D01*
X144701890Y-122903569D01*
X144450000Y-122852560D01*
X144210000Y-122852560D01*
X144210000Y-117064802D01*
X148614802Y-112660000D01*
X150399454Y-112660000D01*
X150209160Y-112697852D01*
X149962599Y-112862599D01*
X147362599Y-115462599D01*
X147197852Y-115709161D01*
X147140000Y-116000000D01*
X147140000Y-122852560D01*
X146900000Y-122852560D01*
X146664683Y-122896838D01*
X146448559Y-123035910D01*
X146303569Y-123248110D01*
X146252560Y-123500000D01*
X146252560Y-127500000D01*
X146296838Y-127735317D01*
X146435910Y-127951441D01*
X146648110Y-128096431D01*
X146900000Y-128147440D01*
X148900000Y-128147440D01*
X149135317Y-128103162D01*
X149351441Y-127964090D01*
X149496431Y-127751890D01*
X149547440Y-127500000D01*
X149547440Y-123500000D01*
X149503162Y-123264683D01*
X149364090Y-123048559D01*
X149151890Y-122903569D01*
X148900000Y-122852560D01*
X148660000Y-122852560D01*
X148660000Y-116314802D01*
X150814802Y-114160000D01*
X155117498Y-114160000D01*
X155107808Y-114169673D01*
X154965162Y-114513201D01*
X154965121Y-114560077D01*
X151812599Y-117712599D01*
X151647852Y-117959161D01*
X151590000Y-118250000D01*
X151590000Y-122852560D01*
X151350000Y-122852560D01*
X151114683Y-122896838D01*
X150898559Y-123035910D01*
X150753569Y-123248110D01*
X150702560Y-123500000D01*
X150702560Y-127500000D01*
X150746838Y-127735317D01*
X150885910Y-127951441D01*
X151098110Y-128096431D01*
X151350000Y-128147440D01*
X153350000Y-128147440D01*
X153585317Y-128103162D01*
X153801441Y-127964090D01*
X153946431Y-127751890D01*
X153997440Y-127500000D01*
X153997440Y-123500000D01*
X155152560Y-123500000D01*
X155152560Y-127500000D01*
X155196838Y-127735317D01*
X155335910Y-127951441D01*
X155548110Y-128096431D01*
X155800000Y-128147440D01*
X157800000Y-128147440D01*
X158035317Y-128103162D01*
X158251441Y-127964090D01*
X158396431Y-127751890D01*
X158447440Y-127500000D01*
X158447440Y-123500000D01*
X159602560Y-123500000D01*
X159602560Y-127500000D01*
X159646838Y-127735317D01*
X159785910Y-127951441D01*
X159998110Y-128096431D01*
X160250000Y-128147440D01*
X162250000Y-128147440D01*
X162485317Y-128103162D01*
X162701441Y-127964090D01*
X162846431Y-127751890D01*
X162897440Y-127500000D01*
X162897440Y-123500000D01*
X164052560Y-123500000D01*
X164052560Y-127500000D01*
X164096838Y-127735317D01*
X164235910Y-127951441D01*
X164448110Y-128096431D01*
X164700000Y-128147440D01*
X166700000Y-128147440D01*
X166935317Y-128103162D01*
X167151441Y-127964090D01*
X167296431Y-127751890D01*
X167347440Y-127500000D01*
X167347440Y-123500000D01*
X168502560Y-123500000D01*
X168502560Y-127500000D01*
X168546838Y-127735317D01*
X168685910Y-127951441D01*
X168898110Y-128096431D01*
X169150000Y-128147440D01*
X171150000Y-128147440D01*
X171385317Y-128103162D01*
X171601441Y-127964090D01*
X171746431Y-127751890D01*
X171772153Y-127624868D01*
X180154737Y-127624868D01*
X180265641Y-127902099D01*
X180911593Y-128145323D01*
X181601453Y-128122836D01*
X182134359Y-127902099D01*
X182245263Y-127624868D01*
X182954737Y-127624868D01*
X183065641Y-127902099D01*
X183711593Y-128145323D01*
X184401453Y-128122836D01*
X184934359Y-127902099D01*
X185045263Y-127624868D01*
X184000000Y-126579605D01*
X182954737Y-127624868D01*
X182245263Y-127624868D01*
X181200000Y-126579605D01*
X180154737Y-127624868D01*
X171772153Y-127624868D01*
X171797440Y-127500000D01*
X171797440Y-126585000D01*
X179470108Y-126585000D01*
X179477164Y-126801453D01*
X179697901Y-127334359D01*
X179975132Y-127445263D01*
X181020395Y-126400000D01*
X181006253Y-126385858D01*
X181185858Y-126206253D01*
X181200000Y-126220395D01*
X181214143Y-126206253D01*
X181393748Y-126385858D01*
X181379605Y-126400000D01*
X182424868Y-127445263D01*
X182600000Y-127375203D01*
X182775132Y-127445263D01*
X183820395Y-126400000D01*
X182775132Y-125354737D01*
X182600000Y-125424797D01*
X182424870Y-125354738D01*
X182538910Y-125240698D01*
X182525762Y-125227550D01*
X182578271Y-125175132D01*
X182954737Y-125175132D01*
X184000000Y-126220395D01*
X185045263Y-125175132D01*
X184934359Y-124897901D01*
X184288407Y-124654677D01*
X183598547Y-124677164D01*
X183065641Y-124897901D01*
X182954737Y-125175132D01*
X182578271Y-125175132D01*
X182970004Y-124784082D01*
X183234699Y-124146627D01*
X183235301Y-123456401D01*
X182971719Y-122818485D01*
X182578789Y-122424868D01*
X182954737Y-122424868D01*
X183065641Y-122702099D01*
X183711593Y-122945323D01*
X184401453Y-122922836D01*
X184934359Y-122702099D01*
X185045263Y-122424868D01*
X184000000Y-121379605D01*
X182954737Y-122424868D01*
X182578789Y-122424868D01*
X182526112Y-122372100D01*
X182538910Y-122359302D01*
X182424870Y-122245262D01*
X182600000Y-122175203D01*
X182775132Y-122245263D01*
X183820395Y-121200000D01*
X182775132Y-120154737D01*
X182600000Y-120224797D01*
X182424868Y-120154737D01*
X181379605Y-121200000D01*
X181393748Y-121214143D01*
X181214143Y-121393748D01*
X181200000Y-121379605D01*
X180154737Y-122424868D01*
X180230931Y-122615333D01*
X180029996Y-122815918D01*
X179765301Y-123453373D01*
X179765085Y-123700493D01*
X179050578Y-124415000D01*
X177084983Y-124415000D01*
X177196431Y-124251890D01*
X177247440Y-124000000D01*
X177247440Y-122000000D01*
X177203162Y-121764683D01*
X177064090Y-121548559D01*
X176851890Y-121403569D01*
X176600000Y-121352560D01*
X172600000Y-121352560D01*
X172364683Y-121396838D01*
X172148559Y-121535910D01*
X172003569Y-121748110D01*
X171952560Y-122000000D01*
X171952560Y-124000000D01*
X171996838Y-124235317D01*
X172112461Y-124415000D01*
X171797440Y-124415000D01*
X171797440Y-123500000D01*
X171753162Y-123264683D01*
X171614090Y-123048559D01*
X171401890Y-122903569D01*
X171150000Y-122852560D01*
X169150000Y-122852560D01*
X168914683Y-122896838D01*
X168698559Y-123035910D01*
X168553569Y-123248110D01*
X168502560Y-123500000D01*
X167347440Y-123500000D01*
X167303162Y-123264683D01*
X167164090Y-123048559D01*
X166951890Y-122903569D01*
X166700000Y-122852560D01*
X164700000Y-122852560D01*
X164464683Y-122896838D01*
X164248559Y-123035910D01*
X164103569Y-123248110D01*
X164052560Y-123500000D01*
X162897440Y-123500000D01*
X162853162Y-123264683D01*
X162714090Y-123048559D01*
X162501890Y-122903569D01*
X162250000Y-122852560D01*
X160250000Y-122852560D01*
X160014683Y-122896838D01*
X159798559Y-123035910D01*
X159653569Y-123248110D01*
X159602560Y-123500000D01*
X158447440Y-123500000D01*
X158403162Y-123264683D01*
X158264090Y-123048559D01*
X158051890Y-122903569D01*
X157800000Y-122852560D01*
X155800000Y-122852560D01*
X155564683Y-122896838D01*
X155348559Y-123035910D01*
X155203569Y-123248110D01*
X155152560Y-123500000D01*
X153997440Y-123500000D01*
X153953162Y-123264683D01*
X153814090Y-123048559D01*
X153601890Y-122903569D01*
X153350000Y-122852560D01*
X153110000Y-122852560D01*
X153110000Y-120911593D01*
X179454677Y-120911593D01*
X179477164Y-121601453D01*
X179697901Y-122134359D01*
X179975132Y-122245263D01*
X181020395Y-121200000D01*
X179975132Y-120154737D01*
X179697901Y-120265641D01*
X179454677Y-120911593D01*
X153110000Y-120911593D01*
X153110000Y-118685750D01*
X171965000Y-118685750D01*
X171965000Y-119526310D01*
X172061673Y-119759699D01*
X172240302Y-119938327D01*
X172473691Y-120035000D01*
X174314250Y-120035000D01*
X174473000Y-119876250D01*
X174473000Y-118527000D01*
X174727000Y-118527000D01*
X174727000Y-119876250D01*
X174885750Y-120035000D01*
X176726309Y-120035000D01*
X176870842Y-119975132D01*
X180154737Y-119975132D01*
X181200000Y-121020395D01*
X182245263Y-119975132D01*
X182954737Y-119975132D01*
X184000000Y-121020395D01*
X185045263Y-119975132D01*
X184934359Y-119697901D01*
X184288407Y-119454677D01*
X183598547Y-119477164D01*
X183065641Y-119697901D01*
X182954737Y-119975132D01*
X182245263Y-119975132D01*
X182134359Y-119697901D01*
X181488407Y-119454677D01*
X180798547Y-119477164D01*
X180265641Y-119697901D01*
X180154737Y-119975132D01*
X176870842Y-119975132D01*
X176959698Y-119938327D01*
X177138327Y-119759699D01*
X177235000Y-119526310D01*
X177235000Y-118685750D01*
X177076250Y-118527000D01*
X174727000Y-118527000D01*
X174473000Y-118527000D01*
X172123750Y-118527000D01*
X171965000Y-118685750D01*
X153110000Y-118685750D01*
X153110000Y-118564802D01*
X154401112Y-117273690D01*
X171965000Y-117273690D01*
X171965000Y-118114250D01*
X172123750Y-118273000D01*
X174473000Y-118273000D01*
X174473000Y-116923750D01*
X174727000Y-116923750D01*
X174727000Y-118273000D01*
X177076250Y-118273000D01*
X177235000Y-118114250D01*
X177235000Y-117273690D01*
X177138327Y-117040301D01*
X176959698Y-116861673D01*
X176726309Y-116765000D01*
X174885750Y-116765000D01*
X174727000Y-116923750D01*
X174473000Y-116923750D01*
X174314250Y-116765000D01*
X172473691Y-116765000D01*
X172240302Y-116861673D01*
X172061673Y-117040301D01*
X171965000Y-117273690D01*
X154401112Y-117273690D01*
X156039680Y-115635122D01*
X156085167Y-115635162D01*
X156428943Y-115493117D01*
X156692192Y-115230327D01*
X156834838Y-114886799D01*
X156835162Y-114514833D01*
X156693117Y-114171057D01*
X156682079Y-114160000D01*
X159237537Y-114160000D01*
X159269673Y-114192192D01*
X159613201Y-114334838D01*
X159985167Y-114335162D01*
X160328943Y-114193117D01*
X160436497Y-114085750D01*
X171965000Y-114085750D01*
X171965000Y-114926310D01*
X172061673Y-115159699D01*
X172240302Y-115338327D01*
X172473691Y-115435000D01*
X174314250Y-115435000D01*
X174473000Y-115276250D01*
X174473000Y-113927000D01*
X174727000Y-113927000D01*
X174727000Y-115276250D01*
X174885750Y-115435000D01*
X176726309Y-115435000D01*
X176959698Y-115338327D01*
X177138327Y-115159699D01*
X177235000Y-114926310D01*
X177235000Y-114085750D01*
X177076250Y-113927000D01*
X174727000Y-113927000D01*
X174473000Y-113927000D01*
X172123750Y-113927000D01*
X171965000Y-114085750D01*
X160436497Y-114085750D01*
X160592192Y-113930327D01*
X160734838Y-113586799D01*
X160735162Y-113214833D01*
X160593117Y-112871057D01*
X160382428Y-112660000D01*
X163737537Y-112660000D01*
X163769673Y-112692192D01*
X164113201Y-112834838D01*
X164485167Y-112835162D01*
X164828943Y-112693117D01*
X164848403Y-112673690D01*
X171965000Y-112673690D01*
X171965000Y-113514250D01*
X172123750Y-113673000D01*
X174473000Y-113673000D01*
X174473000Y-112323750D01*
X174727000Y-112323750D01*
X174727000Y-113673000D01*
X177076250Y-113673000D01*
X177235000Y-113514250D01*
X177235000Y-112673690D01*
X177138327Y-112440301D01*
X176959698Y-112261673D01*
X176726309Y-112165000D01*
X174885750Y-112165000D01*
X174727000Y-112323750D01*
X174473000Y-112323750D01*
X174314250Y-112165000D01*
X172473691Y-112165000D01*
X172240302Y-112261673D01*
X172061673Y-112440301D01*
X171965000Y-112673690D01*
X164848403Y-112673690D01*
X165092192Y-112430327D01*
X165234838Y-112086799D01*
X165235143Y-111735750D01*
X178040000Y-111735750D01*
X178040000Y-112326309D01*
X178136673Y-112559698D01*
X178315301Y-112738327D01*
X178548690Y-112835000D01*
X179014250Y-112835000D01*
X179173000Y-112676250D01*
X179173000Y-111577000D01*
X179427000Y-111577000D01*
X179427000Y-112676250D01*
X179585750Y-112835000D01*
X180051310Y-112835000D01*
X180284699Y-112738327D01*
X180463327Y-112559698D01*
X180560000Y-112326309D01*
X180560000Y-111735750D01*
X180401250Y-111577000D01*
X179427000Y-111577000D01*
X179173000Y-111577000D01*
X178198750Y-111577000D01*
X178040000Y-111735750D01*
X165235143Y-111735750D01*
X165235162Y-111714833D01*
X165093117Y-111371057D01*
X164830327Y-111107808D01*
X164486799Y-110965162D01*
X164114833Y-110964838D01*
X163771057Y-111106883D01*
X163737882Y-111140000D01*
X148300000Y-111140000D01*
X148009161Y-111197852D01*
X147762599Y-111362599D01*
X142912599Y-116212599D01*
X142747852Y-116459161D01*
X142690000Y-116750000D01*
X142690000Y-122852560D01*
X142450000Y-122852560D01*
X142214683Y-122896838D01*
X141998559Y-123035910D01*
X141853569Y-123248110D01*
X141802560Y-123500000D01*
X138710000Y-123500000D01*
X138710000Y-99210000D01*
X155814381Y-99210000D01*
X155697591Y-99384788D01*
X155697591Y-99384788D01*
G37*
X155697591Y-99384788D02*
X155615000Y-99800000D01*
X155615000Y-100093494D01*
X155430000Y-100370366D01*
X155219670Y-100055585D01*
X154733489Y-99730729D01*
X154160000Y-99616655D01*
X153586511Y-99730729D01*
X153100330Y-100055585D01*
X152890000Y-100370366D01*
X152679670Y-100055585D01*
X152193489Y-99730729D01*
X151620000Y-99616655D01*
X151046511Y-99730729D01*
X150560330Y-100055585D01*
X150350000Y-100370366D01*
X150139670Y-100055585D01*
X149653489Y-99730729D01*
X149080000Y-99616655D01*
X148506511Y-99730729D01*
X148020330Y-100055585D01*
X147810000Y-100370366D01*
X147599670Y-100055585D01*
X147113489Y-99730729D01*
X146540000Y-99616655D01*
X145966511Y-99730729D01*
X145480330Y-100055585D01*
X145470757Y-100069913D01*
X145466762Y-100048683D01*
X145327690Y-99832559D01*
X145115490Y-99687569D01*
X144863600Y-99636560D01*
X143136400Y-99636560D01*
X142901083Y-99680838D01*
X142684959Y-99819910D01*
X142539969Y-100032110D01*
X142488960Y-100284000D01*
X142488960Y-102316000D01*
X142533238Y-102551317D01*
X142672310Y-102767441D01*
X142884510Y-102912431D01*
X143136400Y-102963440D01*
X143240000Y-102963440D01*
X143240000Y-102985198D01*
X142912599Y-103312599D01*
X142747852Y-103559161D01*
X142690000Y-103850000D01*
X142690000Y-103952560D01*
X142450000Y-103952560D01*
X142214683Y-103996838D01*
X141998559Y-104135910D01*
X141853569Y-104348110D01*
X141802560Y-104600000D01*
X141802560Y-108600000D01*
X141846838Y-108835317D01*
X141985910Y-109051441D01*
X142198110Y-109196431D01*
X142450000Y-109247440D01*
X144450000Y-109247440D01*
X144685317Y-109203162D01*
X144901441Y-109064090D01*
X145046431Y-108851890D01*
X145097440Y-108600000D01*
X145097440Y-104600000D01*
X145053162Y-104364683D01*
X144914090Y-104148559D01*
X144701890Y-104003569D01*
X144450000Y-103952560D01*
X144422242Y-103952560D01*
X144537401Y-103837401D01*
X144702148Y-103590840D01*
X144738286Y-103409161D01*
X144760000Y-103300000D01*
X144760000Y-102963440D01*
X144863600Y-102963440D01*
X145098917Y-102919162D01*
X145315041Y-102780090D01*
X145460031Y-102567890D01*
X145468400Y-102526561D01*
X145480330Y-102544415D01*
X145966511Y-102869271D01*
X146540000Y-102983345D01*
X147097625Y-102872427D01*
X148177758Y-103952560D01*
X146900000Y-103952560D01*
X146664683Y-103996838D01*
X146448559Y-104135910D01*
X146303569Y-104348110D01*
X146252560Y-104600000D01*
X146252560Y-108600000D01*
X146296838Y-108835317D01*
X146435910Y-109051441D01*
X146648110Y-109196431D01*
X146900000Y-109247440D01*
X148900000Y-109247440D01*
X149135317Y-109203162D01*
X149351441Y-109064090D01*
X149496431Y-108851890D01*
X149547440Y-108600000D01*
X149547440Y-104600000D01*
X149539913Y-104560000D01*
X150710660Y-104560000D01*
X150702560Y-104600000D01*
X150702560Y-108600000D01*
X150746838Y-108835317D01*
X150885910Y-109051441D01*
X151098110Y-109196431D01*
X151350000Y-109247440D01*
X153350000Y-109247440D01*
X153585317Y-109203162D01*
X153801441Y-109064090D01*
X153840000Y-109007657D01*
X153840000Y-109700000D01*
X153897852Y-109990839D01*
X154062599Y-110237401D01*
X154662599Y-110837401D01*
X154909161Y-111002148D01*
X155200000Y-111060000D01*
X160700000Y-111060000D01*
X160990839Y-111002148D01*
X161237401Y-110837401D01*
X161787401Y-110287401D01*
X161952148Y-110040840D01*
X161973138Y-109935317D01*
X162010000Y-109750000D01*
X162010000Y-109247440D01*
X162250000Y-109247440D01*
X162485317Y-109203162D01*
X162701441Y-109064090D01*
X162846431Y-108851890D01*
X162897440Y-108600000D01*
X162897440Y-104600000D01*
X162871097Y-104460000D01*
X164080911Y-104460000D01*
X164052560Y-104600000D01*
X164052560Y-108600000D01*
X164096838Y-108835317D01*
X164235910Y-109051441D01*
X164448110Y-109196431D01*
X164700000Y-109247440D01*
X166700000Y-109247440D01*
X166935317Y-109203162D01*
X167151441Y-109064090D01*
X167296431Y-108851890D01*
X167347440Y-108600000D01*
X167347440Y-104872242D01*
X168502560Y-106027362D01*
X168502560Y-108600000D01*
X168546838Y-108835317D01*
X168685910Y-109051441D01*
X168898110Y-109196431D01*
X169150000Y-109247440D01*
X171150000Y-109247440D01*
X171385317Y-109203162D01*
X171601441Y-109064090D01*
X171746431Y-108851890D01*
X171797440Y-108600000D01*
X171797440Y-104600000D01*
X171753162Y-104364683D01*
X171614090Y-104148559D01*
X171401890Y-104003569D01*
X171150000Y-103952560D01*
X169150000Y-103952560D01*
X168914683Y-103996838D01*
X168736377Y-104111575D01*
X167469806Y-102845004D01*
X167919670Y-102544415D01*
X168244526Y-102058234D01*
X168358600Y-101484745D01*
X168358600Y-101115255D01*
X168244526Y-100541766D01*
X168206596Y-100485000D01*
X169950578Y-100485000D01*
X177330578Y-107865000D01*
X177139018Y-107865000D01*
X177064090Y-107748559D01*
X176851890Y-107603569D01*
X176600000Y-107552560D01*
X172600000Y-107552560D01*
X172364683Y-107596838D01*
X172148559Y-107735910D01*
X172003569Y-107948110D01*
X171952560Y-108200000D01*
X171952560Y-110200000D01*
X171996838Y-110435317D01*
X172135910Y-110651441D01*
X172348110Y-110796431D01*
X172600000Y-110847440D01*
X176600000Y-110847440D01*
X176835317Y-110803162D01*
X177051441Y-110664090D01*
X177196431Y-110451890D01*
X177247440Y-110200000D01*
X177247440Y-110035000D01*
X178135982Y-110035000D01*
X178210910Y-110151441D01*
X178279006Y-110197969D01*
X178136673Y-110340302D01*
X178040000Y-110573691D01*
X178040000Y-111164250D01*
X178198750Y-111323000D01*
X179173000Y-111323000D01*
X179173000Y-111303000D01*
X179427000Y-111303000D01*
X179427000Y-111323000D01*
X180401250Y-111323000D01*
X180560000Y-111164250D01*
X180560000Y-110573691D01*
X180463327Y-110340302D01*
X180322090Y-110199064D01*
X180376441Y-110164090D01*
X180521431Y-109951890D01*
X180572440Y-109700000D01*
X180572440Y-108200000D01*
X180528162Y-107964683D01*
X180389090Y-107748559D01*
X180176890Y-107603569D01*
X180104742Y-107588959D01*
X180067211Y-107532789D01*
X171744422Y-99210000D01*
X185590000Y-99210000D01*
X185590000Y-120477853D01*
X185502099Y-120265641D01*
X185224868Y-120154737D01*
X184179605Y-121200000D01*
X185224868Y-122245263D01*
X185502099Y-122134359D01*
X185590000Y-121900912D01*
X185590000Y-125677853D01*
X185502099Y-125465641D01*
X185224868Y-125354737D01*
X184179605Y-126400000D01*
X185224868Y-127445263D01*
X185502099Y-127334359D01*
X185590000Y-127100912D01*
X185590000Y-128490000D01*
X138710000Y-128490000D01*
X138710000Y-123500000D01*
X141802560Y-123500000D01*
X141802560Y-127500000D01*
X141846838Y-127735317D01*
X141985910Y-127951441D01*
X142198110Y-128096431D01*
X142450000Y-128147440D01*
X144450000Y-128147440D01*
X144685317Y-128103162D01*
X144901441Y-127964090D01*
X145046431Y-127751890D01*
X145097440Y-127500000D01*
X145097440Y-123500000D01*
X145053162Y-123264683D01*
X144914090Y-123048559D01*
X144701890Y-122903569D01*
X144450000Y-122852560D01*
X144210000Y-122852560D01*
X144210000Y-117064802D01*
X148614802Y-112660000D01*
X150399454Y-112660000D01*
X150209160Y-112697852D01*
X149962599Y-112862599D01*
X147362599Y-115462599D01*
X147197852Y-115709161D01*
X147140000Y-116000000D01*
X147140000Y-122852560D01*
X146900000Y-122852560D01*
X146664683Y-122896838D01*
X146448559Y-123035910D01*
X146303569Y-123248110D01*
X146252560Y-123500000D01*
X146252560Y-127500000D01*
X146296838Y-127735317D01*
X146435910Y-127951441D01*
X146648110Y-128096431D01*
X146900000Y-128147440D01*
X148900000Y-128147440D01*
X149135317Y-128103162D01*
X149351441Y-127964090D01*
X149496431Y-127751890D01*
X149547440Y-127500000D01*
X149547440Y-123500000D01*
X149503162Y-123264683D01*
X149364090Y-123048559D01*
X149151890Y-122903569D01*
X148900000Y-122852560D01*
X148660000Y-122852560D01*
X148660000Y-116314802D01*
X150814802Y-114160000D01*
X155117498Y-114160000D01*
X155107808Y-114169673D01*
X154965162Y-114513201D01*
X154965121Y-114560077D01*
X151812599Y-117712599D01*
X151647852Y-117959161D01*
X151590000Y-118250000D01*
X151590000Y-122852560D01*
X151350000Y-122852560D01*
X151114683Y-122896838D01*
X150898559Y-123035910D01*
X150753569Y-123248110D01*
X150702560Y-123500000D01*
X150702560Y-127500000D01*
X150746838Y-127735317D01*
X150885910Y-127951441D01*
X151098110Y-128096431D01*
X151350000Y-128147440D01*
X153350000Y-128147440D01*
X153585317Y-128103162D01*
X153801441Y-127964090D01*
X153946431Y-127751890D01*
X153997440Y-127500000D01*
X153997440Y-123500000D01*
X155152560Y-123500000D01*
X155152560Y-127500000D01*
X155196838Y-127735317D01*
X155335910Y-127951441D01*
X155548110Y-128096431D01*
X155800000Y-128147440D01*
X157800000Y-128147440D01*
X158035317Y-128103162D01*
X158251441Y-127964090D01*
X158396431Y-127751890D01*
X158447440Y-127500000D01*
X158447440Y-123500000D01*
X159602560Y-123500000D01*
X159602560Y-127500000D01*
X159646838Y-127735317D01*
X159785910Y-127951441D01*
X159998110Y-128096431D01*
X160250000Y-128147440D01*
X162250000Y-128147440D01*
X162485317Y-128103162D01*
X162701441Y-127964090D01*
X162846431Y-127751890D01*
X162897440Y-127500000D01*
X162897440Y-123500000D01*
X164052560Y-123500000D01*
X164052560Y-127500000D01*
X164096838Y-127735317D01*
X164235910Y-127951441D01*
X164448110Y-128096431D01*
X164700000Y-128147440D01*
X166700000Y-128147440D01*
X166935317Y-128103162D01*
X167151441Y-127964090D01*
X167296431Y-127751890D01*
X167347440Y-127500000D01*
X167347440Y-123500000D01*
X168502560Y-123500000D01*
X168502560Y-127500000D01*
X168546838Y-127735317D01*
X168685910Y-127951441D01*
X168898110Y-128096431D01*
X169150000Y-128147440D01*
X171150000Y-128147440D01*
X171385317Y-128103162D01*
X171601441Y-127964090D01*
X171746431Y-127751890D01*
X171772153Y-127624868D01*
X180154737Y-127624868D01*
X180265641Y-127902099D01*
X180911593Y-128145323D01*
X181601453Y-128122836D01*
X182134359Y-127902099D01*
X182245263Y-127624868D01*
X182954737Y-127624868D01*
X183065641Y-127902099D01*
X183711593Y-128145323D01*
X184401453Y-128122836D01*
X184934359Y-127902099D01*
X185045263Y-127624868D01*
X184000000Y-126579605D01*
X182954737Y-127624868D01*
X182245263Y-127624868D01*
X181200000Y-126579605D01*
X180154737Y-127624868D01*
X171772153Y-127624868D01*
X171797440Y-127500000D01*
X171797440Y-126585000D01*
X179470108Y-126585000D01*
X179477164Y-126801453D01*
X179697901Y-127334359D01*
X179975132Y-127445263D01*
X181020395Y-126400000D01*
X181006253Y-126385858D01*
X181185858Y-126206253D01*
X181200000Y-126220395D01*
X181214143Y-126206253D01*
X181393748Y-126385858D01*
X181379605Y-126400000D01*
X182424868Y-127445263D01*
X182600000Y-127375203D01*
X182775132Y-127445263D01*
X183820395Y-126400000D01*
X182775132Y-125354737D01*
X182600000Y-125424797D01*
X182424870Y-125354738D01*
X182538910Y-125240698D01*
X182525762Y-125227550D01*
X182578271Y-125175132D01*
X182954737Y-125175132D01*
X184000000Y-126220395D01*
X185045263Y-125175132D01*
X184934359Y-124897901D01*
X184288407Y-124654677D01*
X183598547Y-124677164D01*
X183065641Y-124897901D01*
X182954737Y-125175132D01*
X182578271Y-125175132D01*
X182970004Y-124784082D01*
X183234699Y-124146627D01*
X183235301Y-123456401D01*
X182971719Y-122818485D01*
X182578789Y-122424868D01*
X182954737Y-122424868D01*
X183065641Y-122702099D01*
X183711593Y-122945323D01*
X184401453Y-122922836D01*
X184934359Y-122702099D01*
X185045263Y-122424868D01*
X184000000Y-121379605D01*
X182954737Y-122424868D01*
X182578789Y-122424868D01*
X182526112Y-122372100D01*
X182538910Y-122359302D01*
X182424870Y-122245262D01*
X182600000Y-122175203D01*
X182775132Y-122245263D01*
X183820395Y-121200000D01*
X182775132Y-120154737D01*
X182600000Y-120224797D01*
X182424868Y-120154737D01*
X181379605Y-121200000D01*
X181393748Y-121214143D01*
X181214143Y-121393748D01*
X181200000Y-121379605D01*
X180154737Y-122424868D01*
X180230931Y-122615333D01*
X180029996Y-122815918D01*
X179765301Y-123453373D01*
X179765085Y-123700493D01*
X179050578Y-124415000D01*
X177084983Y-124415000D01*
X177196431Y-124251890D01*
X177247440Y-124000000D01*
X177247440Y-122000000D01*
X177203162Y-121764683D01*
X177064090Y-121548559D01*
X176851890Y-121403569D01*
X176600000Y-121352560D01*
X172600000Y-121352560D01*
X172364683Y-121396838D01*
X172148559Y-121535910D01*
X172003569Y-121748110D01*
X171952560Y-122000000D01*
X171952560Y-124000000D01*
X171996838Y-124235317D01*
X172112461Y-124415000D01*
X171797440Y-124415000D01*
X171797440Y-123500000D01*
X171753162Y-123264683D01*
X171614090Y-123048559D01*
X171401890Y-122903569D01*
X171150000Y-122852560D01*
X169150000Y-122852560D01*
X168914683Y-122896838D01*
X168698559Y-123035910D01*
X168553569Y-123248110D01*
X168502560Y-123500000D01*
X167347440Y-123500000D01*
X167303162Y-123264683D01*
X167164090Y-123048559D01*
X166951890Y-122903569D01*
X166700000Y-122852560D01*
X164700000Y-122852560D01*
X164464683Y-122896838D01*
X164248559Y-123035910D01*
X164103569Y-123248110D01*
X164052560Y-123500000D01*
X162897440Y-123500000D01*
X162853162Y-123264683D01*
X162714090Y-123048559D01*
X162501890Y-122903569D01*
X162250000Y-122852560D01*
X160250000Y-122852560D01*
X160014683Y-122896838D01*
X159798559Y-123035910D01*
X159653569Y-123248110D01*
X159602560Y-123500000D01*
X158447440Y-123500000D01*
X158403162Y-123264683D01*
X158264090Y-123048559D01*
X158051890Y-122903569D01*
X157800000Y-122852560D01*
X155800000Y-122852560D01*
X155564683Y-122896838D01*
X155348559Y-123035910D01*
X155203569Y-123248110D01*
X155152560Y-123500000D01*
X153997440Y-123500000D01*
X153953162Y-123264683D01*
X153814090Y-123048559D01*
X153601890Y-122903569D01*
X153350000Y-122852560D01*
X153110000Y-122852560D01*
X153110000Y-120911593D01*
X179454677Y-120911593D01*
X179477164Y-121601453D01*
X179697901Y-122134359D01*
X179975132Y-122245263D01*
X181020395Y-121200000D01*
X179975132Y-120154737D01*
X179697901Y-120265641D01*
X179454677Y-120911593D01*
X153110000Y-120911593D01*
X153110000Y-118685750D01*
X171965000Y-118685750D01*
X171965000Y-119526310D01*
X172061673Y-119759699D01*
X172240302Y-119938327D01*
X172473691Y-120035000D01*
X174314250Y-120035000D01*
X174473000Y-119876250D01*
X174473000Y-118527000D01*
X174727000Y-118527000D01*
X174727000Y-119876250D01*
X174885750Y-120035000D01*
X176726309Y-120035000D01*
X176870842Y-119975132D01*
X180154737Y-119975132D01*
X181200000Y-121020395D01*
X182245263Y-119975132D01*
X182954737Y-119975132D01*
X184000000Y-121020395D01*
X185045263Y-119975132D01*
X184934359Y-119697901D01*
X184288407Y-119454677D01*
X183598547Y-119477164D01*
X183065641Y-119697901D01*
X182954737Y-119975132D01*
X182245263Y-119975132D01*
X182134359Y-119697901D01*
X181488407Y-119454677D01*
X180798547Y-119477164D01*
X180265641Y-119697901D01*
X180154737Y-119975132D01*
X176870842Y-119975132D01*
X176959698Y-119938327D01*
X177138327Y-119759699D01*
X177235000Y-119526310D01*
X177235000Y-118685750D01*
X177076250Y-118527000D01*
X174727000Y-118527000D01*
X174473000Y-118527000D01*
X172123750Y-118527000D01*
X171965000Y-118685750D01*
X153110000Y-118685750D01*
X153110000Y-118564802D01*
X154401112Y-117273690D01*
X171965000Y-117273690D01*
X171965000Y-118114250D01*
X172123750Y-118273000D01*
X174473000Y-118273000D01*
X174473000Y-116923750D01*
X174727000Y-116923750D01*
X174727000Y-118273000D01*
X177076250Y-118273000D01*
X177235000Y-118114250D01*
X177235000Y-117273690D01*
X177138327Y-117040301D01*
X176959698Y-116861673D01*
X176726309Y-116765000D01*
X174885750Y-116765000D01*
X174727000Y-116923750D01*
X174473000Y-116923750D01*
X174314250Y-116765000D01*
X172473691Y-116765000D01*
X172240302Y-116861673D01*
X172061673Y-117040301D01*
X171965000Y-117273690D01*
X154401112Y-117273690D01*
X156039680Y-115635122D01*
X156085167Y-115635162D01*
X156428943Y-115493117D01*
X156692192Y-115230327D01*
X156834838Y-114886799D01*
X156835162Y-114514833D01*
X156693117Y-114171057D01*
X156682079Y-114160000D01*
X159237537Y-114160000D01*
X159269673Y-114192192D01*
X159613201Y-114334838D01*
X159985167Y-114335162D01*
X160328943Y-114193117D01*
X160436497Y-114085750D01*
X171965000Y-114085750D01*
X171965000Y-114926310D01*
X172061673Y-115159699D01*
X172240302Y-115338327D01*
X172473691Y-115435000D01*
X174314250Y-115435000D01*
X174473000Y-115276250D01*
X174473000Y-113927000D01*
X174727000Y-113927000D01*
X174727000Y-115276250D01*
X174885750Y-115435000D01*
X176726309Y-115435000D01*
X176959698Y-115338327D01*
X177138327Y-115159699D01*
X177235000Y-114926310D01*
X177235000Y-114085750D01*
X177076250Y-113927000D01*
X174727000Y-113927000D01*
X174473000Y-113927000D01*
X172123750Y-113927000D01*
X171965000Y-114085750D01*
X160436497Y-114085750D01*
X160592192Y-113930327D01*
X160734838Y-113586799D01*
X160735162Y-113214833D01*
X160593117Y-112871057D01*
X160382428Y-112660000D01*
X163737537Y-112660000D01*
X163769673Y-112692192D01*
X164113201Y-112834838D01*
X164485167Y-112835162D01*
X164828943Y-112693117D01*
X164848403Y-112673690D01*
X171965000Y-112673690D01*
X171965000Y-113514250D01*
X172123750Y-113673000D01*
X174473000Y-113673000D01*
X174473000Y-112323750D01*
X174727000Y-112323750D01*
X174727000Y-113673000D01*
X177076250Y-113673000D01*
X177235000Y-113514250D01*
X177235000Y-112673690D01*
X177138327Y-112440301D01*
X176959698Y-112261673D01*
X176726309Y-112165000D01*
X174885750Y-112165000D01*
X174727000Y-112323750D01*
X174473000Y-112323750D01*
X174314250Y-112165000D01*
X172473691Y-112165000D01*
X172240302Y-112261673D01*
X172061673Y-112440301D01*
X171965000Y-112673690D01*
X164848403Y-112673690D01*
X165092192Y-112430327D01*
X165234838Y-112086799D01*
X165235143Y-111735750D01*
X178040000Y-111735750D01*
X178040000Y-112326309D01*
X178136673Y-112559698D01*
X178315301Y-112738327D01*
X178548690Y-112835000D01*
X179014250Y-112835000D01*
X179173000Y-112676250D01*
X179173000Y-111577000D01*
X179427000Y-111577000D01*
X179427000Y-112676250D01*
X179585750Y-112835000D01*
X180051310Y-112835000D01*
X180284699Y-112738327D01*
X180463327Y-112559698D01*
X180560000Y-112326309D01*
X180560000Y-111735750D01*
X180401250Y-111577000D01*
X179427000Y-111577000D01*
X179173000Y-111577000D01*
X178198750Y-111577000D01*
X178040000Y-111735750D01*
X165235143Y-111735750D01*
X165235162Y-111714833D01*
X165093117Y-111371057D01*
X164830327Y-111107808D01*
X164486799Y-110965162D01*
X164114833Y-110964838D01*
X163771057Y-111106883D01*
X163737882Y-111140000D01*
X148300000Y-111140000D01*
X148009161Y-111197852D01*
X147762599Y-111362599D01*
X142912599Y-116212599D01*
X142747852Y-116459161D01*
X142690000Y-116750000D01*
X142690000Y-122852560D01*
X142450000Y-122852560D01*
X142214683Y-122896838D01*
X141998559Y-123035910D01*
X141853569Y-123248110D01*
X141802560Y-123500000D01*
X138710000Y-123500000D01*
X138710000Y-99210000D01*
X155814381Y-99210000D01*
X155697591Y-99384788D01*
G36*
X159367000Y-101173000D02*
X159387000Y-101173000D01*
X159387000Y-101427000D01*
X159367000Y-101427000D01*
X159367000Y-101447000D01*
X159113000Y-101447000D01*
X159113000Y-101427000D01*
X159093000Y-101427000D01*
X159093000Y-101173000D01*
X159113000Y-101173000D01*
X159113000Y-101153000D01*
X159367000Y-101153000D01*
X159367000Y-101173000D01*
X159367000Y-101173000D01*
G37*
X159367000Y-101173000D02*
X159387000Y-101173000D01*
X159387000Y-101427000D01*
X159367000Y-101427000D01*
X159367000Y-101447000D01*
X159113000Y-101447000D01*
X159113000Y-101427000D01*
X159093000Y-101427000D01*
X159093000Y-101173000D01*
X159113000Y-101173000D01*
X159113000Y-101153000D01*
X159367000Y-101153000D01*
X159367000Y-101173000D01*
M02*
