G04 #@! TF.FileFunction,Legend,Top*
%FSLAX46Y46*%
G04 Gerber Fmt 4.6, Leading zero omitted, Abs format (unit mm)*
G04 Created by KiCad (PCBNEW 4.0.1-stable) date Tisdag 26 Januari 2016 09:48:20*
%MOMM*%
G01*
G04 APERTURE LIST*
%ADD10C,0.100000*%
%ADD11C,0.150000*%
G04 APERTURE END LIST*
D10*
D11*
X180150000Y-110700000D02*
X180150000Y-109700000D01*
X178450000Y-109700000D02*
X178450000Y-110700000D01*
X145270000Y-100030000D02*
X168130000Y-100030000D01*
X168130000Y-100030000D02*
X168130000Y-102570000D01*
X168130000Y-102570000D02*
X145270000Y-102570000D01*
X142450000Y-99750000D02*
X144000000Y-99750000D01*
X145270000Y-100030000D02*
X145270000Y-102570000D01*
X144000000Y-102850000D02*
X142450000Y-102850000D01*
X142450000Y-102850000D02*
X142450000Y-99750000D01*
X144400000Y-110200000D02*
G75*
G03X144400000Y-110200000I-1000000J0D01*
G01*
X139000000Y-106600000D02*
X174600000Y-106600000D01*
X174600000Y-106800000D02*
X174600000Y-106600000D01*
X174600000Y-125600000D02*
X139000000Y-125600000D01*
X139000000Y-125600000D02*
X139000000Y-106600000D01*
X174600000Y-106780000D02*
X174600000Y-125580000D01*
X184375000Y-123800000D02*
G75*
G03X184375000Y-123800000I-3175000J0D01*
G01*
X184375000Y-120625000D02*
X178025000Y-120625000D01*
X178025000Y-120625000D02*
X178025000Y-126975000D01*
X178025000Y-126975000D02*
X184375000Y-126975000D01*
X184375000Y-126975000D02*
X184375000Y-120625000D01*
X181757143Y-110366666D02*
X181804762Y-110414285D01*
X181852381Y-110557142D01*
X181852381Y-110652380D01*
X181804762Y-110795238D01*
X181709524Y-110890476D01*
X181614286Y-110938095D01*
X181423810Y-110985714D01*
X181280952Y-110985714D01*
X181090476Y-110938095D01*
X180995238Y-110890476D01*
X180900000Y-110795238D01*
X180852381Y-110652380D01*
X180852381Y-110557142D01*
X180900000Y-110414285D01*
X180947619Y-110366666D01*
X181852381Y-109414285D02*
X181852381Y-109985714D01*
X181852381Y-109700000D02*
X180852381Y-109700000D01*
X180995238Y-109795238D01*
X181090476Y-109890476D01*
X181138095Y-109985714D01*
X141452381Y-102038095D02*
X140452381Y-102038095D01*
X140452381Y-101657142D01*
X140500000Y-101561904D01*
X140547619Y-101514285D01*
X140642857Y-101466666D01*
X140785714Y-101466666D01*
X140880952Y-101514285D01*
X140928571Y-101561904D01*
X140976190Y-101657142D01*
X140976190Y-102038095D01*
X141452381Y-100514285D02*
X141452381Y-101085714D01*
X141452381Y-100800000D02*
X140452381Y-100800000D01*
X140595238Y-100895238D01*
X140690476Y-100990476D01*
X140738095Y-101085714D01*
X139152381Y-128061905D02*
X139961905Y-128061905D01*
X140057143Y-128014286D01*
X140104762Y-127966667D01*
X140152381Y-127871429D01*
X140152381Y-127680952D01*
X140104762Y-127585714D01*
X140057143Y-127538095D01*
X139961905Y-127490476D01*
X139152381Y-127490476D01*
X140152381Y-126490476D02*
X140152381Y-127061905D01*
X140152381Y-126776191D02*
X139152381Y-126776191D01*
X139295238Y-126871429D01*
X139390476Y-126966667D01*
X139438095Y-127061905D01*
X178152381Y-119733333D02*
X178866667Y-119733333D01*
X179009524Y-119780953D01*
X179104762Y-119876191D01*
X179152381Y-120019048D01*
X179152381Y-120114286D01*
X179152381Y-118733333D02*
X179152381Y-119304762D01*
X179152381Y-119019048D02*
X178152381Y-119019048D01*
X178295238Y-119114286D01*
X178390476Y-119209524D01*
X178438095Y-119304762D01*
M02*
